<svg width="16" height="16" viewBox="0 0 16 16" fill="none" xmlns="http://www.w3.org/2000/svg">
<path fill-rule="evenodd" clip-rule="evenodd" d="M4.81903 0.5H11.181C11.7847 0.499991 12.283 0.499983 12.6889 0.533146C13.1104 0.56759 13.498 0.641513 13.862 0.826981C14.4265 1.1146 14.8854 1.57354 15.173 2.13803C15.3585 2.50203 15.4324 2.88956 15.4669 3.31113C15.5 3.71702 15.5 4.21529 15.5 4.81901V11.181C15.5 11.7847 15.5 12.283 15.4669 12.6889C15.4324 13.1104 15.3585 13.498 15.173 13.862C14.8854 14.4265 14.4265 14.8854 13.862 15.173C13.498 15.3585 13.1104 15.4324 12.6889 15.4669C12.283 15.5 11.7847 15.5 11.181 15.5H4.81901C4.21529 15.5 3.71702 15.5 3.31113 15.4669C2.88956 15.4324 2.50203 15.3585 2.13803 15.173C1.57354 14.8854 1.1146 14.4265 0.826981 13.862C0.641513 13.498 0.56759 13.1104 0.533146 12.6889C0.499983 12.283 0.499991 11.7847 0.5 11.181V4.81903C0.499991 4.2153 0.499983 3.71703 0.533146 3.31113C0.56759 2.88956 0.641513 2.50203 0.826981 2.13803C1.1146 1.57354 1.57354 1.1146 2.13803 0.826981C2.50203 0.641513 2.88956 0.56759 3.31113 0.533146C3.71703 0.499983 4.2153 0.499991 4.81903 0.5ZM2 6.5V11.15C2 11.7924 2.00058 12.2292 2.02816 12.5667C2.05503 12.8955 2.10372 13.0637 2.16349 13.181C2.3073 13.4632 2.53677 13.6927 2.81902 13.8365C2.93631 13.8963 3.10447 13.945 3.43328 13.9718C3.77085 13.9994 4.20757 14 4.85 14H11.15C11.7924 14 12.2292 13.9994 12.5667 13.9718C12.8955 13.945 13.0637 13.8963 13.181 13.8365C13.4632 13.6927 13.6927 13.4632 13.8365 13.181C13.8963 13.0637 13.945 12.8955 13.9718 12.5667C13.9994 12.2292 14 11.7924 14 11.15V6.5H2ZM14 5H2V4.85C2 4.20757 2.00058 3.77085 2.02816 3.43328C2.05503 3.10447 2.10372 2.93631 2.16349 2.81902C2.3073 2.53677 2.53677 2.3073 2.81902 2.16349C2.93631 2.10372 3.10447 2.05503 3.43328 2.02816C3.77085 2.00058 4.20757 2 4.85 2H11.15C11.7924 2 12.2292 2.00058 12.5667 2.02816C12.8955 2.05503 13.0637 2.10372 13.181 2.16349C13.4632 2.3073 13.6927 2.53677 13.8365 2.81902C13.8963 2.93631 13.945 3.10447 13.9718 3.43328C13.9994 3.77085 14 4.20757 14 4.85V5Z" fill="#94949A"/>
</svg>
