<svg width="16" height="16" viewBox="0 0 16 16" fill="none" xmlns="http://www.w3.org/2000/svg">
<path fill-rule="evenodd" clip-rule="evenodd" d="M2.44775 0.672378C2.53664 0.679183 2.66053 0.6965 2.79323 0.757145C2.9677 0.83688 3.11555 0.965114 3.21916 1.12655C3.29796 1.24934 3.33263 1.36953 3.35193 1.45657C3.36833 1.53049 3.3803 1.61449 3.3901 1.68329C3.39076 1.68792 3.39141 1.69248 3.39205 1.69696L3.62581 3.33333L14.0398 3.33333C14.1345 3.33329 14.2438 3.33325 14.3386 3.34152C14.4452 3.35081 14.6054 3.37495 14.7674 3.46936C14.9721 3.5887 15.1279 3.77687 15.2068 4.00033C15.2692 4.17713 15.2629 4.339 15.2521 4.44549C15.2425 4.54015 15.222 4.64749 15.2043 4.74054L14.3143 9.41292C14.2591 9.70248 14.2111 9.95485 14.1553 10.1623C14.0958 10.3832 14.0166 10.5985 13.8773 10.8009C13.6668 11.1065 13.3755 11.3476 13.036 11.4971C12.8111 11.5961 12.5848 11.6336 12.3567 11.6507C12.1424 11.6667 11.8855 11.6667 11.5907 11.6667H5.83915C5.52924 11.6667 5.25985 11.6667 5.03593 11.6495C4.79805 11.6312 4.56192 11.5909 4.32925 11.484C3.97897 11.3231 3.68267 11.0644 3.47599 10.739C3.3387 10.5229 3.26695 10.2943 3.21678 10.0611C3.16955 9.84152 3.13324 9.5746 3.09148 9.26751L2.38733 4.09207L2.08847 2H1.33333C0.965141 2 0.666664 1.70152 0.666664 1.33333C0.666664 0.965141 0.965141 0.666664 1.33333 0.666664H2.20411C2.20864 0.666664 2.21324 0.666662 2.21792 0.66666C2.28741 0.666633 2.37226 0.6666 2.44775 0.672378ZM3.81113 4.66666L4.40946 9.06439C4.45533 9.40154 4.48513 9.6172 4.5203 9.78068C4.55371 9.93601 4.58239 9.99407 4.60147 10.0241C4.67036 10.1326 4.76913 10.2188 4.88589 10.2725C4.91822 10.2873 4.97962 10.3079 5.13804 10.3201C5.30477 10.3329 5.52247 10.3333 5.86274 10.3333H11.568C11.8921 10.3333 12.0987 10.3329 12.2573 10.3211C12.4076 10.3098 12.4667 10.2909 12.4986 10.2768C12.6118 10.227 12.7089 10.1466 12.7791 10.0447C12.7989 10.016 12.8286 9.96146 12.8677 9.81597C12.909 9.66236 12.9481 9.45944 13.0088 9.1411L13.861 4.66666H3.81113ZM4.66666 14C4.66666 13.2636 5.26362 12.6667 6 12.6667C6.73638 12.6667 7.33333 13.2636 7.33333 14C7.33333 14.7364 6.73638 15.3333 6 15.3333C5.26362 15.3333 4.66666 14.7364 4.66666 14ZM10 14C10 13.2636 10.597 12.6667 11.3333 12.6667C12.0697 12.6667 12.6667 13.2636 12.6667 14C12.6667 14.7364 12.0697 15.3333 11.3333 15.3333C10.597 15.3333 10 14.7364 10 14Z" fill="white"/>
</svg>
