<svg width="22" height="22" viewBox="0 0 22 22" fill="none" xmlns="http://www.w3.org/2000/svg">
<path fill-rule="evenodd" clip-rule="evenodd" d="M11.0001 2.75002C6.44373 2.75002 2.75008 6.44367 2.75008 11C2.75008 15.5564 6.44373 19.25 11.0001 19.25C15.5564 19.25 19.2501 15.5564 19.2501 11C19.2501 6.44367 15.5564 2.75002 11.0001 2.75002ZM0.916748 11C0.916748 5.43115 5.43121 0.916687 11.0001 0.916687C16.569 0.916687 21.0834 5.43115 21.0834 11C21.0834 16.5689 16.569 21.0834 11.0001 21.0834C5.43121 21.0834 0.916748 16.5689 0.916748 11ZM15.7733 7.60184C16.1312 7.95982 16.1312 8.54022 15.7733 8.8982L10.2733 14.3982C9.91528 14.7562 9.33488 14.7562 8.9769 14.3982L6.2269 11.6482C5.86892 11.2902 5.86892 10.7098 6.2269 10.3518C6.58488 9.99386 7.16528 9.99386 7.52326 10.3518L9.62508 12.4537L14.4769 7.60184C14.8349 7.24386 15.4153 7.24386 15.7733 7.60184Z" fill="#A580FF"/>
</svg>
