<svg width="16" height="16" viewBox="0 0 16 16" fill="none" xmlns="http://www.w3.org/2000/svg">
<path fill-rule="evenodd" clip-rule="evenodd" d="M8 2.00001C4.68629 2.00001 2 4.6863 2 8C2 11.3137 4.68629 14 8 14C11.3137 14 14 11.3137 14 8C14 4.6863 11.3137 2.00001 8 2.00001ZM0.666667 8C0.666667 3.94992 3.94991 0.666672 8 0.666672C12.0501 0.666672 15.3333 3.94992 15.3333 8C15.3333 12.0501 12.0501 15.3333 8 15.3333C3.94991 15.3333 0.666667 12.0501 0.666667 8ZM8 4.66667C8.36819 4.66667 8.66667 4.96515 8.66667 5.33334V9.0572L10.1953 7.5286C10.4556 7.26825 10.8777 7.26825 11.1381 7.5286C11.3984 7.78895 11.3984 8.21106 11.1381 8.47141L8.4714 11.1381C8.21105 11.3984 7.78894 11.3984 7.52859 11.1381L4.86193 8.47141C4.60158 8.21106 4.60158 7.78895 4.86193 7.5286C5.12228 7.26825 5.54439 7.26825 5.80474 7.5286L7.33333 9.0572V5.33334C7.33333 4.96515 7.63181 4.66667 8 4.66667Z" fill="#6B6B73"/>
</svg>
