<svg id="download" xmlns="http://www.w3.org/2000/svg" width="12" height="12" viewBox="0 0 12 12">
  <path id="Path_1556" data-name="Path 1556" d="M113.134,8.84a2.255,2.255,0,0,0,3.185,0h0l1.607-1.6a.75.75,0,1,0-1.043-1.078l-.018.018-1.393,1.389L115.461.749A.75.75,0,0,0,114.71,0h0a.75.75,0,0,0-.751.749l.01,6.806-1.382-1.379a.75.75,0,0,0-1.061,1.059Z" transform="translate(-108.71)" fill="#6e6e6e"/>
  <path id="Path_1557" data-name="Path 1557" d="M11.25,309.333a.75.75,0,0,0-.75.749v2.293a.2.2,0,0,1-.2.2H1.7a.2.2,0,0,1-.2-.2v-2.293a.75.75,0,0,0-1.5,0v2.293a1.706,1.706,0,0,0,1.7,1.7H10.3a1.705,1.705,0,0,0,1.7-1.7v-2.293A.75.75,0,0,0,11.25,309.333Z" transform="translate(0 -302.078)" fill="#6e6e6e"/>
</svg>
