<svg width="16" height="13" viewBox="0 0 16 13" fill="none" xmlns="http://www.w3.org/2000/svg">
<path fill-rule="evenodd" clip-rule="evenodd" d="M12.5 2.31634C11.6716 2.31634 11 2.9605 11 3.75512C11 4.54973 11.6716 5.19389 12.5 5.19389C13.3284 5.19389 14 4.54973 14 3.75511C14 2.9605 13.3284 2.31634 12.5 2.31634ZM9.59451 3.03573C9.92754 1.79462 11.1021 0.877563 12.5 0.877563C14.1569 0.877563 15.5 2.16589 15.5 3.75511C15.5 5.34434 14.1569 6.63267 12.5 6.63267C11.1021 6.63267 9.92755 5.71561 9.59451 4.4745L1.25 4.4745C0.835786 4.4745 0.5 4.15242 0.5 3.75511C0.5 3.35781 0.835787 3.03573 1.25 3.03573L9.59451 3.03573ZM3.5 8.07144C2.67157 8.07144 2 8.7156 2 9.51022C2 10.3048 2.67157 10.949 3.5 10.949C4.32843 10.949 5 10.3048 5 9.51022C5 8.7156 4.32843 8.07144 3.5 8.07144ZM0.5 9.51022C0.5 7.92099 1.84315 6.63267 3.5 6.63267C4.89788 6.63267 6.07245 7.54972 6.40549 8.79083L14.75 8.79083C15.1642 8.79083 15.5 9.11291 15.5 9.51022C15.5 9.90753 15.1642 10.2296 14.75 10.2296H6.40549C6.07245 11.4707 4.89788 12.3878 3.5 12.3878C1.84315 12.3878 0.5 11.0994 0.5 9.51022Z" fill="#6B6B73"/>
</svg>
