<svg width="16" height="16" viewBox="0 0 16 16" fill="none" xmlns="http://www.w3.org/2000/svg">
<path fill-rule="evenodd" clip-rule="evenodd" d="M12.5667 2.02816C12.2292 2.00058 11.7924 2 11.15 2H10.25C9.83578 2 9.5 1.66421 9.5 1.25C9.5 0.835787 9.83578 0.500001 10.25 0.500001L11.181 0.5C11.7847 0.499991 12.283 0.499983 12.6889 0.533146C13.1104 0.56759 13.498 0.641513 13.862 0.826981C14.4265 1.1146 14.8854 1.57354 15.173 2.13803C15.3585 2.50203 15.4324 2.88956 15.4669 3.31113C15.5 3.71702 15.5 4.21529 15.5 4.81901V11.181C15.5 11.7847 15.5 12.283 15.4669 12.6889C15.4324 13.1104 15.3585 13.498 15.173 13.862C14.8854 14.4265 14.4265 14.8854 13.862 15.173C13.498 15.3585 13.1104 15.4324 12.6889 15.4669C12.283 15.5 11.7847 15.5 11.181 15.5H10.25C9.83578 15.5 9.5 15.1642 9.5 14.75C9.5 14.3358 9.83578 14 10.25 14H11.15C11.7924 14 12.2292 13.9994 12.5667 13.9718C12.8955 13.945 13.0637 13.8963 13.181 13.8365C13.4632 13.6927 13.6927 13.4632 13.8365 13.181C13.8963 13.0637 13.945 12.8955 13.9718 12.5667C13.9994 12.2292 14 11.7924 14 11.15V4.85C14 4.20757 13.9994 3.77085 13.9718 3.43328C13.945 3.10447 13.8963 2.93631 13.8365 2.81901C13.6927 2.53677 13.4632 2.3073 13.181 2.16349C13.0637 2.10372 12.8955 2.05503 12.5667 2.02816ZM5.96967 3.71967C6.26256 3.42678 6.73744 3.42678 7.03033 3.71967L10.7803 7.46967C11.0732 7.76256 11.0732 8.23744 10.7803 8.53033L7.03033 12.2803C6.73744 12.5732 6.26256 12.5732 5.96967 12.2803C5.67678 11.9874 5.67678 11.5126 5.96967 11.2197L8.43934 8.75L1.25 8.75C0.835786 8.75 0.5 8.41421 0.5 8C0.5 7.58579 0.835787 7.25 1.25 7.25L8.43934 7.25L5.96967 4.78033C5.67678 4.48744 5.67678 4.01256 5.96967 3.71967Z" fill="#57575F"/>
</svg>
