<svg width="18" height="18" viewBox="0 0 18 18" fill="none" xmlns="http://www.w3.org/2000/svg">
<mask id="mask0_299_36195" style="mask-type:alpha" maskUnits="userSpaceOnUse" x="0" y="0" width="18" height="18">
<rect width="18" height="18" fill="#D9D9D9"/>
</mask>
<g mask="url(#mask0_299_36195)">
<path d="M15.3976 9.64826C15.2621 9.46789 15.1943 9.24243 15.1943 9.00945C15.1943 8.78399 15.2696 8.55852 15.3976 8.37815L16.0378 7.50636C16.3164 7.13059 16.4746 6.67967 16.4972 6.21371C16.5198 5.74776 16.4068 5.2818 16.1733 4.87597C15.9399 4.47013 15.5934 4.14697 15.1717 3.92902C14.7575 3.71859 14.2831 3.62841 13.8161 3.68101L12.7392 3.79375C12.5133 3.81629 12.2873 3.7712 12.0915 3.65847C11.8957 3.54574 11.7451 3.37288 11.6472 3.16245L11.2029 2.17793C11.0146 1.74955 10.7058 1.38881 10.3067 1.13329C9.52348 0.622238 8.45408 0.622238 7.67086 1.13329C7.27925 1.38881 6.97048 1.74955 6.7822 2.17793L6.33787 3.16997C6.2475 3.3804 6.08935 3.54574 5.90108 3.65847C5.70527 3.7712 5.47181 3.82381 5.24588 3.79375L4.16895 3.68101C3.70203 3.62841 3.23511 3.71859 2.81338 3.92902C2.39164 4.13945 2.05275 4.47013 1.81929 4.87597C1.59336 5.2818 1.48039 5.74024 1.50299 6.21371C1.52558 6.67967 1.68373 7.13059 1.96237 7.50636L2.60251 8.37815C2.73807 8.56604 2.80584 8.78399 2.80584 9.00945C2.80584 9.23491 2.73807 9.45286 2.60251 9.64074L1.96237 10.5125C1.69126 10.8958 1.53311 11.3392 1.50299 11.8052C1.48039 12.2711 1.58583 12.7371 1.82682 13.1429C2.06028 13.5488 2.4067 13.8719 2.82091 14.0899C3.24264 14.3003 3.70956 14.3905 4.17648 14.3379L5.25341 14.2252C5.47934 14.2026 5.70527 14.2477 5.90861 14.3604C6.10441 14.4732 6.26257 14.646 6.35294 14.8564L6.78973 15.841C6.97801 16.2693 7.28678 16.6301 7.68592 16.8856C8.08506 17.1411 8.53692 17.2764 9.00384 17.2764C9.47076 17.2764 9.93015 17.1411 10.3218 16.8856C10.7134 16.6301 11.0221 16.2693 11.2104 15.841L11.6472 14.8564C11.7376 14.646 11.8957 14.4807 12.0915 14.3679C12.2873 14.2552 12.5133 14.2101 12.7392 14.2327L13.8161 14.3454C14.2831 14.398 14.75 14.3078 15.1642 14.0974C15.5784 13.887 15.9248 13.5563 16.1658 13.1504C16.3993 12.7446 16.5122 12.2862 16.4896 11.8202C16.467 11.3543 16.3089 10.9033 16.0302 10.5276L15.3976 9.65578V9.64826ZM14.1776 10.5276L14.8178 11.3994C14.9232 11.5421 14.9834 11.7075 14.991 11.8879C14.9985 12.0607 14.9608 12.2411 14.8705 12.3914C14.7801 12.5417 14.6521 12.6695 14.4939 12.7446C14.3358 12.8273 14.155 12.8573 13.9818 12.8423L12.9049 12.7296C12.3551 12.6695 11.8204 12.7897 11.3384 13.0603C10.864 13.3308 10.495 13.7442 10.2766 14.2402L9.83225 15.2322C9.76447 15.39 9.64398 15.5253 9.50089 15.623C9.19965 15.8184 8.8005 15.8184 8.5068 15.623C8.35618 15.5253 8.24321 15.39 8.1679 15.2247L7.73111 14.2402C7.51271 13.7442 7.12863 13.3233 6.66171 13.0527C6.18725 12.7747 5.64502 12.6619 5.09526 12.7221L4.01833 12.8348C3.84512 12.8498 3.66438 12.8198 3.50623 12.7371C3.34808 12.6544 3.22005 12.5342 3.12968 12.3764C3.03931 12.226 3.00165 12.0532 3.00918 11.8728C3.01671 11.6925 3.07696 11.5271 3.18239 11.3843L3.82253 10.5125C4.14636 10.0691 4.31957 9.54304 4.31957 8.99442C4.31957 8.44579 4.14636 7.91971 3.82253 7.4763L3.18239 6.60451C3.07696 6.46172 3.01671 6.29638 3.00918 6.11601C3.00165 5.94316 3.03931 5.76279 3.12968 5.61248C3.22005 5.46217 3.34808 5.33441 3.50623 5.25925C3.66438 5.17658 3.83759 5.14652 4.01833 5.16907L5.10279 5.2818C5.65256 5.34192 6.18726 5.22168 6.66924 4.95112C7.14369 4.67305 7.51271 4.26722 7.73111 3.76368L8.1679 2.77916C8.24321 2.61382 8.35618 2.47855 8.5068 2.38836C8.8005 2.19296 9.20718 2.19296 9.50089 2.38836C9.65151 2.48606 9.76447 2.62134 9.83978 2.78668L10.2841 3.7712C10.5025 4.27473 10.8715 4.68057 11.3535 4.95864C11.828 5.22919 12.3702 5.34944 12.92 5.28931L13.9969 5.17658C14.1701 5.16155 14.3508 5.19161 14.509 5.27428C14.6671 5.35695 14.7952 5.4772 14.8855 5.62751C14.9759 5.77782 15.0136 5.95819 15.006 6.13104C14.9985 6.31141 14.9383 6.47675 14.8328 6.61954L14.1927 7.49133C13.8689 7.93474 13.6956 8.46082 13.6956 9.00193C13.6956 9.55056 13.8613 10.0766 14.1852 10.5276H14.1776Z" fill="#57575F"/>
<path d="M9.0036 6.0033C7.33926 6.0033 5.99121 7.34856 5.99121 9.00946C5.99121 10.6704 7.33926 12.0156 9.0036 12.0156C10.668 12.0156 12.016 10.6704 12.016 9.00946C12.016 7.34856 10.668 6.0033 9.0036 6.0033ZM9.0036 10.5125C8.1752 10.5125 7.49741 9.83616 7.49741 9.00946C7.49741 8.18277 8.1752 7.50638 9.0036 7.50638C9.83201 7.50638 10.5098 8.18277 10.5098 9.00946C10.5098 9.83616 9.83201 10.5125 9.0036 10.5125Z" fill="#57575F"/>
</g>
</svg>
