<svg width="28" height="28" viewBox="0 0 28 28" fill="none" xmlns="http://www.w3.org/2000/svg">
<path d="M12.8333 15.1666V8.16663C12.8333 7.52496 13.3583 6.99996 14 6.99996C14.6416 6.99996 15.1666 7.52496 15.1666 8.16663V15.1666C15.1666 15.8083 14.6416 16.3333 14 16.3333C13.3583 16.3333 12.8333 15.8083 12.8333 15.1666ZM14 17.5C13.0316 17.5 12.25 18.2816 12.25 19.25C12.25 20.2183 13.0316 21 14 21C14.9683 21 15.75 20.2183 15.75 19.25C15.75 18.2816 14.9683 17.5 14 17.5ZM27.51 23.1933C26.6933 24.7683 24.9783 25.6666 22.8316 25.6666H5.17997C3.02164 25.6666 1.3183 24.7683 0.501636 23.1933C-0.326697 21.6066 -0.0933637 19.5766 1.08497 17.8733L10.465 3.03329C11.2933 1.84329 12.6 1.16663 14 1.16663C15.4 1.16663 16.7066 1.84329 17.5 2.99829L26.9266 17.8966C28.105 19.6 28.3266 21.6183 27.4983 23.1933H27.51ZM25.0016 19.2033C25.0016 19.2033 24.9783 19.18 24.9783 19.1566L15.5633 4.28163C15.225 3.80329 14.6416 3.49996 14 3.49996C13.3583 3.49996 12.775 3.80329 12.4133 4.32829L3.02164 19.1566C2.2983 20.1833 2.13497 21.3033 2.55497 22.1083C2.9633 22.9016 3.89664 23.3333 5.1683 23.3333H22.8083C24.08 23.3333 25.0133 22.9016 25.4216 22.1083C25.8416 21.3033 25.6783 20.1833 24.99 19.2033H25.0016Z" fill="#F17D0E"/>
</svg>
