<svg width="128" height="128" viewBox="0 0 128 128" fill="none" xmlns="http://www.w3.org/2000/svg">
<g clip-path="url(#clip0_1833_2872)">
<circle cx="64" cy="64" r="64" fill="url(#paint0_linear_1833_2872)"/>
<g filter="url(#filter0_d_1833_2872)">
<path d="M34.2823 65.1633C38.5016 65.1633 42.7207 65.1633 46.94 65.1633C47.3765 65.1633 47.3765 65.1633 47.3765 65.5998C47.231 67.3457 47.0856 68.9461 46.7946 70.692C46.6492 72.2924 46.5037 73.8929 46.3582 75.4933C46.2127 77.3847 45.9217 79.2761 45.7762 81.022C45.6307 82.6224 45.4852 84.2228 45.3397 85.8232C45.3397 86.4052 45.1941 86.9872 45.1941 87.7146C44.9031 90.77 46.9401 93.5343 49.9955 94.1163C50.2865 94.1163 50.5774 94.2618 50.8684 94.2618C53.1963 94.2618 55.524 94.2618 57.8519 94.2618C60.7618 94.2618 63.0898 92.2249 63.5263 89.4605C63.6718 88.7331 63.6718 87.8601 63.8172 87.1327C63.9627 85.6777 64.1082 84.3683 64.2537 82.9134C64.3992 81.604 64.5447 80.149 64.6902 78.8396C64.8357 77.5302 64.981 76.0752 65.1265 74.7658C65.272 73.6019 65.4177 72.5834 65.4177 71.4195C65.5632 69.9646 65.7085 68.6551 65.854 67.2002C65.854 66.6183 65.9996 66.0363 65.9996 65.3088C65.9996 65.1633 65.9995 65.0178 66.2905 65.0178C66.436 65.0178 66.436 65.0178 66.5815 65.0178C70.6552 65.0178 74.7292 65.0178 78.803 65.0178C81.1308 65.0178 83.3132 63.5629 84.1862 61.235C84.3317 60.6531 84.4771 60.0711 84.6226 59.4891C84.9136 57.7432 85.2046 55.9973 85.6411 54.2514C86.2231 51.1961 84.0407 48.1407 80.9853 47.5588C80.6944 47.5588 80.2579 47.4133 79.9669 47.4133C73.4197 47.4133 66.8726 47.4133 60.3254 47.4133C56.6881 47.4133 53.4873 46.2493 50.8684 43.6305C48.8315 41.5936 47.5221 39.2657 47.0856 36.5013C46.9401 35.7739 46.94 34.9009 46.94 34.1735C46.94 33.446 46.94 32.7185 46.94 31.9911C47.0855 29.3722 48.1039 27.1898 49.8498 25.2984C51.0138 24.1345 52.3234 23.1161 53.7783 22.5341C54.3602 22.2431 54.7966 22.2431 55.3785 22.0976C58.5794 21.5156 61.6347 21.2247 64.8355 21.3701C72.1102 21.6611 78.8029 23.5525 85.0591 27.3353C93.7887 32.7185 99.8992 40.1387 103.391 49.7411C104.264 52.2145 104.846 54.8334 105.283 57.4522C105.719 60.3621 105.864 63.4174 105.573 66.3273C104.846 75.9298 101.354 84.2228 95.0981 91.4974C89.5694 97.7536 82.7311 101.973 74.5835 104.301C72.5466 104.883 70.5097 105.174 68.4729 105.465C66.145 105.756 63.8171 105.901 61.4892 105.756C52.4687 105.319 44.3213 102.264 37.1922 96.7351C30.645 91.4974 25.9892 84.8048 23.3704 76.9482C22.4974 74.3293 21.9155 71.7105 21.6245 68.9461C21.479 67.7822 21.3335 66.7637 21.3335 65.5998C21.3335 65.1633 21.3335 65.1633 21.77 65.1633C25.8438 65.1633 30.063 65.1633 34.2823 65.1633Z" fill="white"/>
</g>
</g>
<defs>
<filter id="filter0_d_1833_2872" x="16.5741" y="18.9534" width="93.9102" height="93.9985" filterUnits="userSpaceOnUse" color-interpolation-filters="sRGB">
<feFlood flood-opacity="0" result="BackgroundImageFix"/>
<feColorMatrix in="SourceAlpha" type="matrix" values="0 0 0 0 0 0 0 0 0 0 0 0 0 0 0 0 0 0 127 0" result="hardAlpha"/>
<feOffset dy="2.37971"/>
<feGaussianBlur stdDeviation="2.37971"/>
<feComposite in2="hardAlpha" operator="out"/>
<feColorMatrix type="matrix" values="0 0 0 0 0.0627451 0 0 0 0 0.0941176 0 0 0 0 0.156863 0 0 0 0.08 0"/>
<feBlend mode="normal" in2="BackgroundImageFix" result="effect1_dropShadow_1833_2872"/>
<feBlend mode="normal" in="SourceGraphic" in2="effect1_dropShadow_1833_2872" result="shape"/>
</filter>
<linearGradient id="paint0_linear_1833_2872" x1="99.282" y1="105.026" x2="9.02564" y2="21.3333" gradientUnits="userSpaceOnUse">
<stop stop-color="#F9D423"/>
<stop offset="1" stop-color="#E14FAD"/>
</linearGradient>
<clipPath id="clip0_1833_2872">
<rect width="128" height="128" fill="white"/>
</clipPath>
</defs>
</svg>