<svg width="256" height="256" viewbox="0 0 256 256" fill="none" xmlns="http://www.w3.org/2000/svg">
<g clip-path="url(#clip0_1235_5354)">
<path d="M0 40C0 21.1438 0 11.7157 5.85786 5.85786C11.7157 0 21.1438 0 40 0H216C234.856 0 244.284 0 250.142 5.85786C256 11.7157 256 21.1438 256 40V216C256 234.856 256 244.284 250.142 250.142C244.284 256 234.856 256 216 256H40C21.1438 256 11.7157 256 5.85786 250.142C0 244.284 0 234.856 0 216V40Z" fill="white"></path>
<rect opacity="0.1" width="256" height="256" fill="#6C3AF8"></rect>
<path fill-rule="evenodd" clip-rule="evenodd" d="M51.3555 67.3945V171.42L118.695 214.711C120.076 215.598 121.892 214.607 121.892 212.966V110.072L51.3555 67.3945ZM63.8031 89.4745V164.624L109.444 193.966V117.089L63.8031 89.4745Z" fill="#6C3AF8"></path>
<path fill-rule="evenodd" clip-rule="evenodd" d="M204.872 125.48V172.505L137.513 214.769C136.131 215.636 134.336 214.643 134.336 213.012V169.738L204.872 125.48ZM192.424 147.986V165.62L146.783 194.258V176.623L192.424 147.986Z" fill="#6C3AF8"></path>
<path fill-rule="evenodd" clip-rule="evenodd" d="M204.872 71.5391V141.466L134.336 183.566V108.88L204.872 71.5391ZM192.424 92.2129V134.399L146.783 161.64V116.375L192.424 92.2129Z" fill="#6C3AF8"></path>
<path fill-rule="evenodd" clip-rule="evenodd" d="M96.5121 51.1018C97.8393 54.2725 96.3448 57.9188 93.1741 59.246L59.9805 73.1402C56.8098 74.4674 53.1635 72.9729 51.8362 69.8022C50.509 66.6314 52.0035 62.9851 55.1743 61.6579L88.3678 47.7638C91.5386 46.4366 95.1849 47.931 96.5121 51.1018Z" fill="#6C3AF8"></path>
<path fill-rule="evenodd" clip-rule="evenodd" d="M204.119 74.5186C202.478 77.5386 198.699 78.656 195.679 77.0144L162.485 58.9711C159.465 57.3295 158.348 53.5505 159.99 50.5306C161.631 47.5106 165.41 46.3932 168.43 48.0348L201.624 66.0781C204.644 67.7197 205.761 71.4987 204.119 74.5186Z" fill="#6C3AF8"></path>
</g>
<defs>
<clippath id="clip0_1235_5354">
<path d="M0 40C0 21.1438 0 11.7157 5.85786 5.85786C11.7157 0 21.1438 0 40 0H216C234.856 0 244.284 0 250.142 5.85786C256 11.7157 256 21.1438 256 40V216C256 234.856 256 244.284 250.142 250.142C244.284 256 234.856 256 216 256H40C21.1438 256 11.7157 256 5.85786 250.142C0 244.284 0 234.856 0 216V40Z" fill="white"></path>
</clippath>
</defs>
</svg>
