<svg xmlns="http://www.w3.org/2000/svg" width="14.667" height="16" viewBox="0 0 14.667 16">
  <path id="address-book" d="M12,0H6A3.667,3.667,0,0,0,2.738,2H2A1,1,0,0,0,2,4h.333V5.333H2a1,1,0,0,0,0,2h.333V8.667H2a1,1,0,0,0,0,2h.333V12H2a1,1,0,0,0,0,2h.738A3.667,3.667,0,0,0,6,16h6a3.671,3.671,0,0,0,3.667-3.667V3.667A3.671,3.671,0,0,0,12,0Zm1.667,12.333A1.667,1.667,0,0,1,12,14H6a1.667,1.667,0,0,1-1.667-1.667V3.667A1.667,1.667,0,0,1,6,2h6a1.667,1.667,0,0,1,1.667,1.667Zm-6.333-6A1.667,1.667,0,1,1,9,8,1.667,1.667,0,0,1,7.333,6.333Zm4.325,4.488a.443.443,0,0,1-.449.512H6.769a.443.443,0,0,1-.449-.512,2.736,2.736,0,0,1,5.338,0Z" transform="translate(-1)" fill="#6e6e6e"/>
</svg>
