<svg xmlns="http://www.w3.org/2000/svg" width="12" height="14" viewBox="0 0 12 14">
  <path id="medical-star_1_" data-name="medical-star (1)" d="M13.377,10.656a.857.857,0,0,1-.735.418.843.843,0,0,1-.449-.129L8.365,8.562v4.563a.861.861,0,1,1-1.722,0V8.562L2.814,10.945a.851.851,0,0,1-1.183-.289.882.882,0,0,1,.285-1.2L5.855,7,1.915,4.548a.883.883,0,0,1-.285-1.2.853.853,0,0,1,1.183-.289L6.643,5.439V.875a.861.861,0,1,1,1.722,0V5.438l3.828-2.383a.853.853,0,0,1,1.183.289.883.883,0,0,1-.285,1.2L9.152,7l3.94,2.452a.883.883,0,0,1,.285,1.2Z" transform="translate(-1.504)" fill="#6e6e6e"/>
</svg>
