<svg xmlns="http://www.w3.org/2000/svg" width="270.495" height="20" viewBox="0 0 270.495 20">
  <g id="audio-inactive" transform="translate(-1180.997 -2455)">
    <path id="Path_1591" data-name="Path 1591" d="M-879.583,701.9a.975.975,0,0,0-.975.974v7.074c0,.4.437.723.975.723s.974-.324.974-.723v-7.074A.974.974,0,0,0-879.583,701.9Z" transform="translate(2087.457 1759.103)" fill="#6e6e6e"/>
    <path id="Path_1638" data-name="Path 1638" d="M-879.583,701.9a.975.975,0,0,0-.975.974v7.074c0,.4.437.723.975.723s.974-.324.974-.723v-7.074A.974.974,0,0,0-879.583,701.9Z" transform="translate(2227.144 1759.103)" fill="#6e6e6e"/>
    <path id="Path_1592" data-name="Path 1592" d="M-875.916,702.066a.975.975,0,0,0-.975.975v6.778c0,.4.436.723.975.723s.974-.324.974-.723v-6.778A.975.975,0,0,0-875.916,702.066Z" transform="translate(2087.457 1758.934)" fill="#6e6e6e"/>
    <path id="Path_1640" data-name="Path 1640" d="M-875.916,702.066a.975.975,0,0,0-.975.975v6.778c0,.4.436.723.975.723s.974-.324.974-.723v-6.778A.975.975,0,0,0-875.916,702.066Z" transform="translate(2227.144 1758.934)" fill="#6e6e6e"/>
    <path id="Path_1593" data-name="Path 1593" d="M-872.249,698.7a.967.967,0,0,0-.975.961v18.326c0,.394.436.713.975.713s.974-.32.974-.713V699.659A.967.967,0,0,0-872.249,698.7Z" transform="translate(2087.457 1756.302)" fill="#6e6e6e"/>
    <path id="Path_1641" data-name="Path 1641" d="M-872.249,698.7a.967.967,0,0,0-.975.961v18.326c0,.394.436.713.975.713s.974-.32.974-.713V699.659A.967.967,0,0,0-872.249,698.7Z" transform="translate(2227.144 1756.302)" fill="#6e6e6e"/>
    <path id="Path_1594" data-name="Path 1594" d="M-868.582,698.3a.975.975,0,0,0-.975.975v16.3c0,.4.436.723.975.723s.974-.324.974-.723v-16.3A.975.975,0,0,0-868.582,698.3Z" transform="translate(2087.457 1757.7)" fill="#6e6e6e"/>
    <path id="Path_1642" data-name="Path 1642" d="M-868.582,698.3a.975.975,0,0,0-.975.975v16.3c0,.4.436.723.975.723s.974-.324.974-.723v-16.3A.975.975,0,0,0-868.582,698.3Z" transform="translate(2227.144 1757.7)" fill="#6e6e6e"/>
    <path id="Path_1595" data-name="Path 1595" d="M-857.582,701.9a.974.974,0,0,0-.974.974v7.074c0,.4.436.723.974.723s.975-.324.975-.723v-7.074A.975.975,0,0,0-857.582,701.9Z" transform="translate(2087.457 1759.103)" fill="#6e6e6e"/>
    <path id="Path_1643" data-name="Path 1643" d="M-857.582,701.9a.974.974,0,0,0-.974.974v7.074c0,.4.436.723.974.723s.975-.324.975-.723v-7.074A.975.975,0,0,0-857.582,701.9Z" transform="translate(2227.144 1759.103)" fill="#6e6e6e"/>
    <path id="Path_1596" data-name="Path 1596" d="M-861.249,699.43a.975.975,0,0,0-.974.975v11.369c0,.4.436.723.974.723s.975-.323.975-.723V700.405A.975.975,0,0,0-861.249,699.43Z" transform="translate(2087.457 1759.037)" fill="#6e6e6e"/>
    <path id="Path_1644" data-name="Path 1644" d="M-861.249,699.43a.975.975,0,0,0-.974.975v11.369c0,.4.436.723.974.723s.975-.323.975-.723V700.405A.975.975,0,0,0-861.249,699.43Z" transform="translate(2227.144 1759.57)" fill="#6e6e6e"/>
    <path id="Path_1597" data-name="Path 1597" d="M-864.916,701a.974.974,0,0,0-.974.974v8.631c0,.4.436.723.974.723s.975-.324.975-.723v-8.631A.974.974,0,0,0-864.916,701Z" transform="translate(2087.457 1759.219)" fill="#6e6e6e"/>
    <path id="Path_1645" data-name="Path 1645" d="M-864.916,701a.974.974,0,0,0-.974.974v8.631c0,.4.436.723.974.723s.975-.324.975-.723v-8.631A.974.974,0,0,0-864.916,701Z" transform="translate(2227.144 1758.997)" fill="#6e6e6e"/>
    <path id="Path_1598" data-name="Path 1598" d="M-828.382,698.872a.974.974,0,0,0-.974.975v12.341c0,.4.436.723.974.723s.975-.323.975-.723V699.847A.975.975,0,0,0-828.382,698.872Z" transform="translate(2087.457 1759.128)" fill="#6e6e6e"/>
    <path id="Path_1647" data-name="Path 1647" d="M-828.382,698.872a.974.974,0,0,0-.974.975v12.341c0,.4.436.723.974.723s.975-.323.975-.723V699.847A.975.975,0,0,0-828.382,698.872Z" transform="translate(2227.144 1759.128)" fill="#6e6e6e"/>
    <path id="Path_1599" data-name="Path 1599" d="M-824.715,701.9a.975.975,0,0,0-.975.974v7.073c0,.4.437.723.975.723s.975-.323.975-.723v-7.073A.975.975,0,0,0-824.715,701.9Z" transform="translate(2087.457 1759.103)" fill="#6e6e6e"/>
    <path id="Path_1654" data-name="Path 1654" d="M-824.715,701.9a.975.975,0,0,0-.975.974v7.073c0,.4.437.723.975.723s.975-.323.975-.723v-7.073A.975.975,0,0,0-824.715,701.9Z" transform="translate(2227.144 1759.103)" fill="#6e6e6e"/>
    <path id="Path_1600" data-name="Path 1600" d="M-821.048,700.447a.975.975,0,0,0-.975.975v9.6c0,.4.437.723.975.723s.975-.324.975-.723v-9.6A.975.975,0,0,0-821.048,700.447Z" transform="translate(2087.457 1758.553)" fill="#6e6e6e"/>
    <path id="Path_1655" data-name="Path 1655" d="M-821.048,700.447a.975.975,0,0,0-.975.975v9.6c0,.4.437.723.975.723s.975-.324.975-.723v-9.6A.975.975,0,0,0-821.048,700.447Z" transform="translate(2227.144 1758.553)" fill="#6e6e6e"/>
    <path id="Path_1630" data-name="Path 1630" d="M-821.048,700.447a.975.975,0,0,0-.975.975v9.6c0,.4.437.723.975.723s.975-.324.975-.723v-9.6A.975.975,0,0,0-821.048,700.447Z" transform="translate(2072.938 1759.209)" fill="#6e6e6e"/>
    <path id="Path_1648" data-name="Path 1648" d="M-821.048,700.447a.975.975,0,0,0-.975.975v9.6c0,.4.437.723.975.723s.975-.324.975-.723v-9.6A.975.975,0,0,0-821.048,700.447Z" transform="translate(2212.711 1758.553)" fill="#6e6e6e"/>
    <path id="Path_1601" data-name="Path 1601" d="M-817.381,698.219a.975.975,0,0,0-.975.975v13.479c0,.4.437.723.975.723s.974-.324.974-.723V699.194A.974.974,0,0,0-817.381,698.219Z" transform="translate(2087.457 1758.781)" fill="#6e6e6e"/>
    <path id="Path_1656" data-name="Path 1656" d="M-817.381,698.219a.975.975,0,0,0-.975.975v13.479c0,.4.437.723.975.723s.974-.324.974-.723V699.194A.974.974,0,0,0-817.381,698.219Z" transform="translate(2227.144 1758.781)" fill="#6e6e6e"/>
    <path id="Path_1602" data-name="Path 1602" d="M-806.381,704.623a.975.975,0,0,0-.974.975v2.324c0,.4.436.723.974.723s.975-.324.975-.723V705.6A.975.975,0,0,0-806.381,704.623Z" transform="translate(2087.457 1758.377)" fill="#6e6e6e"/>
    <path id="Path_1657" data-name="Path 1657" d="M-806.381,704.623a.975.975,0,0,0-.974.975v2.324c0,.4.436.723.974.723s.975-.324.975-.723V705.6A.975.975,0,0,0-806.381,704.623Z" transform="translate(2227.144 1758.377)" fill="#6e6e6e"/>
    <path id="Path_1603" data-name="Path 1603" d="M-810.047,698.062a.975.975,0,0,0-.975.975v13.752c0,.4.436.723.975.723s.974-.324.974-.723V699.037A.975.975,0,0,0-810.047,698.062Z" transform="translate(2087.457 1758.938)" fill="#6e6e6e"/>
    <path id="Path_1658" data-name="Path 1658" d="M-810.047,698.062a.975.975,0,0,0-.975.975v13.752c0,.4.436.723.975.723s.974-.324.974-.723V699.037A.975.975,0,0,0-810.047,698.062Z" transform="translate(2227.144 1758.938)" fill="#6e6e6e"/>
    <path id="Path_1604" data-name="Path 1604" d="M-813.714,700.447a.974.974,0,0,0-.975.975v9.6c0,.4.436.723.975.723s.974-.324.974-.723v-9.6A.974.974,0,0,0-813.714,700.447Z" transform="translate(2087.457 1758.553)" fill="#6e6e6e"/>
    <path id="Path_1659" data-name="Path 1659" d="M-813.714,700.447a.974.974,0,0,0-.975.975v9.6c0,.4.436.723.975.723s.974-.324.974-.723v-9.6A.974.974,0,0,0-813.714,700.447Z" transform="translate(2227.144 1758.553)" fill="#6e6e6e"/>
    <path id="Path_1605" data-name="Path 1605" d="M-787.646,703.139a.974.974,0,0,0-.974.974v4.91c0,.4.436.723.974.723s.975-.324.975-.723v-4.91A.974.974,0,0,0-787.646,703.139Z" transform="translate(2087.457 1758.861)" fill="#6e6e6e"/>
    <path id="Path_1606" data-name="Path 1606" d="M-783.979,701.689a.974.974,0,0,0-.974.974V710.1c0,.4.436.723.974.723s.975-.324.975-.723v-7.436A.975.975,0,0,0-783.979,701.689Z" transform="translate(2087.457 1759.311)" fill="#6e6e6e"/>
    <path id="Path_1663" data-name="Path 1663" d="M-783.979,701.689a.974.974,0,0,0-.974.974V710.1c0,.4.436.723.974.723s.975-.324.975-.723v-7.436A.975.975,0,0,0-783.979,701.689Z" transform="translate(2219.829 1759.311)" fill="#6e6e6e"/>
    <path id="Path_1607" data-name="Path 1607" d="M-780.312,699.461a.975.975,0,0,0-.975.975v11.315c0,.4.437.723.975.723s.975-.323.975-.723V700.436A.975.975,0,0,0-780.312,699.461Z" transform="translate(2087.457 1759.539)" fill="#6e6e6e"/>
    <path id="Path_1664" data-name="Path 1664" d="M-780.312,699.461a.975.975,0,0,0-.975.975v11.315c0,.4.437.723.975.723s.975-.323.975-.723V700.436A.975.975,0,0,0-780.312,699.461Z" transform="translate(2219.829 1759.539)" fill="#6e6e6e"/>
    <path id="Path_1608" data-name="Path 1608" d="M-769.311,704.907a.974.974,0,0,0-.975.974v1.83c0,.4.436.723.975.723s.974-.323.974-.723v-1.83A.974.974,0,0,0-769.311,704.907Z" transform="translate(2087.457 1758.093)" fill="#6e6e6e"/>
    <path id="Path_1666" data-name="Path 1666" d="M-769.311,704.907a.974.974,0,0,0-.975.974v1.83c0,.4.436.723.975.723s.974-.323.974-.723v-1.83A.974.974,0,0,0-769.311,704.907Z" transform="translate(2219.829 1758.748)" fill="#6e6e6e"/>
    <path id="Path_1609" data-name="Path 1609" d="M-772.978,703.139a.975.975,0,0,0-.975.974v4.91c0,.4.437.723.975.723s.974-.324.974-.723v-4.91A.974.974,0,0,0-772.978,703.139Z" transform="translate(2087.457 1758.861)" fill="#6e6e6e"/>
    <path id="Path_1667" data-name="Path 1667" d="M-772.978,703.139a.975.975,0,0,0-.975.974v4.91c0,.4.437.723.975.723s.974-.324.974-.723v-4.91A.974.974,0,0,0-772.978,703.139Z" transform="translate(2219.829 1759.064)" fill="#6e6e6e"/>
    <path id="Path_1610" data-name="Path 1610" d="M-776.645,701.689a.975.975,0,0,0-.975.974V710.1c0,.4.437.723.975.723s.975-.324.975-.723v-7.436A.975.975,0,0,0-776.645,701.689Z" transform="translate(2087.457 1759.311)" fill="#6e6e6e"/>
    <path id="Path_1665" data-name="Path 1665" d="M-776.645,701.689a.975.975,0,0,0-.975.974V710.1c0,.4.437.723.975.723s.975-.324.975-.723v-7.436A.975.975,0,0,0-776.645,701.689Z" transform="translate(2219.829 1759.311)" fill="#6e6e6e"/>
    <path id="Path_1611" data-name="Path 1611" d="M-905.482,704.034h0a.975.975,0,0,0-.974.975v3.35c0,.4.436.723.974.723h0c.538,0,.975-.324.975-.723v-3.35A.976.976,0,0,0-905.482,704.034Z" transform="translate(2087.453 1758.444)" fill="#6e6e6e"/>
    <path id="Path_1632" data-name="Path 1632" d="M-905.482,704.034h0a.975.975,0,0,0-.974.975v3.35c0,.4.436.723.974.723h0c.538,0,.975-.324.975-.723v-3.35A.976.976,0,0,0-905.482,704.034Z" transform="translate(2227.144 1758.966)" fill="#6e6e6e"/>
    <path id="Path_1612" data-name="Path 1612" d="M-901.815,702.725a.975.975,0,0,0-.975.975v5.63c0,.4.437.723.975.723s.975-.324.975-.723V703.7A.975.975,0,0,0-901.815,702.725Z" transform="translate(2087.455 1758.611)" fill="#6e6e6e"/>
    <path id="Path_1633" data-name="Path 1633" d="M-901.815,702.725a.975.975,0,0,0-.975.975v5.63c0,.4.437.723.975.723s.975-.324.975-.723V703.7A.975.975,0,0,0-901.815,702.725Z" transform="translate(2227.144 1758.275)" fill="#6e6e6e"/>
    <path id="Path_1613" data-name="Path 1613" d="M-898.148,701.651a.976.976,0,0,0-.975.975v7.5c0,.4.437.723.975.723s.975-.324.975-.723v-7.5A.976.976,0,0,0-898.148,701.651Z" transform="translate(2087.455 1758.75)" fill="#6e6e6e"/>
    <path id="Path_1634" data-name="Path 1634" d="M-898.148,701.651a.976.976,0,0,0-.975.975v7.5c0,.4.437.723.975.723s.975-.324.975-.723v-7.5A.976.976,0,0,0-898.148,701.651Z" transform="translate(2227.144 1758.349)" fill="#6e6e6e"/>
    <path id="Path_1614" data-name="Path 1614" d="M-894.481,704.075a.976.976,0,0,0-.975.975v3.278c0,.4.437.723.975.723s.974-.324.974-.723V705.05A.975.975,0,0,0-894.481,704.075Z" transform="translate(2087.457 1758.438)" fill="#6e6e6e"/>
    <path id="Path_1635" data-name="Path 1635" d="M-894.481,704.075a.976.976,0,0,0-.975.975v3.278c0,.4.437.723.975.723s.974-.324.974-.723V705.05A.975.975,0,0,0-894.481,704.075Z" transform="translate(2227.144 1758.925)" fill="#6e6e6e"/>
    <path id="Path_1615" data-name="Path 1615" d="M-883.48,704.034a.975.975,0,0,0-.975.975v3.35c0,.4.436.723.975.723s.974-.324.974-.723v-3.35A.975.975,0,0,0-883.48,704.034Z" transform="translate(2087.457 1758.828)" fill="#6e6e6e"/>
    <path id="Path_1639" data-name="Path 1639" d="M-883.48,704.034a.975.975,0,0,0-.975.975v3.35c0,.4.436.723.975.723s.974-.324.974-.723v-3.35A.975.975,0,0,0-883.48,704.034Z" transform="translate(2227.144 1758.966)" fill="#6e6e6e"/>
    <path id="Path_1616" data-name="Path 1616" d="M-887.147,699.849a.975.975,0,0,0-.975.975v10.639c0,.4.436.723.975.723s.974-.323.974-.723V700.824A.975.975,0,0,0-887.147,699.849Z" transform="translate(2087.457 1759.151)" fill="#6e6e6e"/>
    <path id="Path_1636" data-name="Path 1636" d="M-887.147,699.849a.975.975,0,0,0-.975.975v10.639c0,.4.436.723.975.723s.974-.323.974-.723V700.824A.975.975,0,0,0-887.147,699.849Z" transform="translate(2227.144 1759.151)" fill="#6e6e6e"/>
    <path id="Path_1617" data-name="Path 1617" d="M-890.814,696.139a.975.975,0,0,0-.975.975v17.1c0,.4.436.723.975.723s.974-.324.974-.723v-17.1A.975.975,0,0,0-890.814,696.139Z" transform="translate(2087.457 1759.861)" fill="#6e6e6e"/>
    <path id="Path_1637" data-name="Path 1637" d="M-890.814,696.139a.975.975,0,0,0-.975.975v17.1c0,.4.436.723.975.723s.974-.324.974-.723v-17.1A.975.975,0,0,0-890.814,696.139Z" transform="translate(2227.144 1759.861)" fill="#6e6e6e"/>
    <path id="Path_1618" data-name="Path 1618" d="M-802.291,703.706a.974.974,0,0,0-.974.974V708.6c0,.4.436.723.974.723s.975-.323.975-.723V704.68A.975.975,0,0,0-802.291,703.706Z" transform="translate(2087.457 1758.294)" fill="#6e6e6e"/>
    <path id="Path_1660" data-name="Path 1660" d="M-802.291,703.706a.974.974,0,0,0-.974.974V708.6c0,.4.436.723.974.723s.975-.323.975-.723V704.68A.975.975,0,0,0-802.291,703.706Z" transform="translate(2227.144 1758.294)" fill="#6e6e6e"/>
    <path id="Path_1621" data-name="Path 1621" d="M-798.624,704.531a.975.975,0,0,0-.975.974v2.485c0,.4.437.723.975.723s.975-.323.975-.723v-2.485A.975.975,0,0,0-798.624,704.531Z" transform="translate(2087.457 1758.469)" fill="#6e6e6e"/>
    <path id="Path_1661" data-name="Path 1661" d="M-798.624,704.531a.975.975,0,0,0-.975.974v2.485c0,.4.437.723.975.723s.975-.323.975-.723v-2.485A.975.975,0,0,0-798.624,704.531Z" transform="translate(2227.144 1758.469)" fill="#6e6e6e"/>
    <path id="Path_1622" data-name="Path 1622" d="M-853.9,697.573a.961.961,0,0,0-.974.947v16.352c0,.387.436.7.974.7s.975-.315.975-.7V698.52A.961.961,0,0,0-853.9,697.573Z" transform="translate(2087.457 1758.427)" fill="#6e6e6e"/>
    <path id="Path_1646" data-name="Path 1646" d="M-853.9,697.573a.961.961,0,0,0-.974.947v16.352c0,.387.436.7.974.7s.975-.315.975-.7V698.52A.961.961,0,0,0-853.9,697.573Z" transform="translate(2227.144 1758.427)" fill="#6e6e6e"/>
    <path id="Path_1629" data-name="Path 1629" d="M-853.9,697.573a.961.961,0,0,0-.974.947v16.352c0,.387.436.7.974.7s.975-.315.975-.7V698.52A.961.961,0,0,0-853.9,697.573Z" transform="translate(2094.875 1758.427)" fill="#6e6e6e"/>
    <path id="Path_1649" data-name="Path 1649" d="M-853.9,697.573a.961.961,0,0,0-.974.947v16.352c0,.387.436.7.974.7s.975-.315.975-.7V698.52A.961.961,0,0,0-853.9,697.573Z" transform="translate(2234.563 1758.427)" fill="#6e6e6e"/>
    <path id="Path_1623" data-name="Path 1623" d="M-850.234,695.7a.974.974,0,0,0-.974.974v18.3c0,.4.436.723.974.723s.975-.324.975-.723v-18.3A.974.974,0,0,0-850.234,695.7Z" transform="translate(2087.457 1759.299)" fill="#6e6e6e"/>
    <path id="Path_1650" data-name="Path 1650" d="M-850.234,695.7a.974.974,0,0,0-.974.974v18.3c0,.4.436.723.974.723s.975-.324.975-.723v-18.3A.974.974,0,0,0-850.234,695.7Z" transform="translate(2227.144 1759.299)" fill="#6e6e6e"/>
    <path id="Path_1625" data-name="Path 1625" d="M-842.9,698.545a.975.975,0,0,0-.975.974v12.912c0,.4.437.723.975.723s.975-.324.975-.723V699.519A.975.975,0,0,0-842.9,698.545Z" transform="translate(2087.457 1759.455)" fill="#6e6e6e"/>
    <path id="Path_1651" data-name="Path 1651" d="M-842.9,698.545a.975.975,0,0,0-.975.974v12.912c0,.4.437.723.975.723s.975-.324.975-.723V699.519A.975.975,0,0,0-842.9,698.545Z" transform="translate(2227.144 1759.455)" fill="#6e6e6e"/>
    <path id="Path_1626" data-name="Path 1626" d="M-831.9,703.878a.974.974,0,0,0-.975.974v3.623c0,.4.436.723.975.723s.974-.324.974-.723v-3.623A.974.974,0,0,0-831.9,703.878Z" transform="translate(2087.457 1758.481)" fill="#6e6e6e"/>
    <path id="Path_1652" data-name="Path 1652" d="M-831.9,703.878a.974.974,0,0,0-.975.974v3.623c0,.4.436.723.975.723s.974-.324.974-.723v-3.623A.974.974,0,0,0-831.9,703.878Z" transform="translate(2227.144 1758.122)" fill="#6e6e6e"/>
    <path id="Path_1631" data-name="Path 1631" d="M-835.566,699.89h0a.974.974,0,0,0-.975.975v10.568c0,.4.436.723.975.723h0c.538,0,.974-.324.974-.723V700.865A.974.974,0,0,0-835.566,699.89Z" transform="translate(2083.541 1759.11)" fill="#6e6e6e"/>
    <path id="Path_1653" data-name="Path 1653" d="M-835.566,699.89h0a.974.974,0,0,0-.975.975v10.568c0,.4.436.723.975.723h0c.538,0,.974-.324.974-.723V700.865A.974.974,0,0,0-835.566,699.89Z" transform="translate(2223.229 1759.11)" fill="#6e6e6e"/>
    <rect id="Rectangle_1998" data-name="Rectangle 1998" width="1.95" height="4" rx="0.975" transform="translate(1295.191 2463)" fill="#6e6e6e"/>
    <rect id="Rectangle_1999" data-name="Rectangle 1999" width="1.95" height="3.505" rx="0.975" transform="translate(1291.549 2463)" fill="#6e6e6e"/>
    <rect id="Rectangle_2000" data-name="Rectangle 2000" width="1.95" height="3.505" rx="0.975" transform="translate(1431.211 2463.338)" fill="#6e6e6e"/>
  </g>
</svg>
