<svg id="box" xmlns="http://www.w3.org/2000/svg" width="14.003" height="14.003" viewBox="0 0 14.003 14.003">
  <path id="Path_1551" data-name="Path 1551" d="M14,3.209A3.213,3.213,0,0,0,10.794,0H3.209A3.213,3.213,0,0,0,0,3.209v.583A2.034,2.034,0,0,0,.583,5.217v5.577A3.213,3.213,0,0,0,3.792,14H10.21a3.212,3.212,0,0,0,3.209-3.209V5.217A2.033,2.033,0,0,0,14,3.792Zm-12.253,0A1.459,1.459,0,0,1,3.209,1.75h7.585a1.459,1.459,0,0,1,1.459,1.459v.583a.292.292,0,0,1-.292.292H2.042a.292.292,0,0,1-.292-.292Zm9.919,7.585a1.459,1.459,0,0,1-1.459,1.459H3.792a1.459,1.459,0,0,1-1.459-1.459V5.835h9.335v4.959Z" fill="#6e6e6e"/>
  <path id="Path_1552" data-name="Path 1552" d="M171.542,256h2.917a.875.875,0,0,1,.875.875h0a.875.875,0,0,1-.875.875h-2.917a.875.875,0,0,1-.875-.875h0A.875.875,0,0,1,171.542,256Z" transform="translate(-165.999 -248.999)" fill="#6e6e6e"/>
</svg>
