<svg id="Brick_Icon" data-name="Brick Icon" xmlns="http://www.w3.org/2000/svg" width="30.002" height="30.002" viewbox="0 0 30.002 30.002">
  <path id="Path_6444" data-name="Path 6444" d="M0,0H30V30H0Z" fill="#fed43d"></path>
  <path id="Path_6445" data-name="Path 6445" d="M-68.367-1.428c.139.121.139.121.166.227.01.146.01.289.007.435,0,.055,0,.111,0,.168,0,.184,0,.367,0,.551q0,.191,0,.382,0,.5-.007,1c0,.342,0,.683-.006,1.025q0,1.006-.014,2.012l.191-.109.253-.144.125-.072a6.37,6.37,0,0,1,3.474-.788l.146.006A6.561,6.561,0,0,1-60.2,4.611l.095.075a7.347,7.347,0,0,1,2.7,4.757,9.467,9.467,0,0,1,.037,1.1v.121a7.517,7.517,0,0,1-.952,3.845l-.062.108a7.176,7.176,0,0,1-1.11,1.415l-.116.127a6.543,6.543,0,0,1-4.33,1.889,6.685,6.685,0,0,1-3.523-.786l-.169-.095a8.772,8.772,0,0,1-1.237-.96l-.059,1.465h-3.692V-1.073l2.051-.234c.554-.072.554-.072,1.108-.146C-68.684-1.542-68.684-1.542-68.367-1.428Z" transform="translate(80.123 6.698)" fill="#222121"></path>
  <path id="Path_6446" data-name="Path 6446" d="M-89.047-11.393l.109.1.116.1a3.475,3.475,0,0,1,1.089,2.356q0,.205,0,.411l0,.218a3.3,3.3,0,0,1-.324,1.489l-.088.186a3.336,3.336,0,0,1-1.787,1.572l-.145.066A3.911,3.911,0,0,1-92.7-5.055,3.7,3.7,0,0,1-94.512-7.34a4.7,4.7,0,0,1-.074-1.1l0-.22a3.508,3.508,0,0,1,1-2.506A3.573,3.573,0,0,1-89.047-11.393Z" transform="translate(106.225 25.77)" fill="#fed43d"></path>
</svg>
