<svg xmlns="http://www.w3.org/2000/svg" width="16" height="16" viewBox="0 0 16 16">
  <path id="calendar-day" d="M12.333,1.333H12V1a1,1,0,0,0-2,0v.333H6V1A1,1,0,0,0,4,1v.333H3.667A3.671,3.671,0,0,0,0,5v7.333A3.671,3.671,0,0,0,3.667,16h8.667A3.671,3.671,0,0,0,16,12.333V5A3.671,3.671,0,0,0,12.333,1.333Zm0,12.667H3.667A1.669,1.669,0,0,1,2,12.333V6H14v6.333A1.669,1.669,0,0,1,12.333,14ZM6.667,8.333V9.667a1,1,0,0,1-1,1H4.333a1,1,0,0,1-1-1V8.333a1,1,0,0,1,1-1H5.667A1,1,0,0,1,6.667,8.333Z" fill="#6e6e6e"/>
</svg>
