<svg xmlns="http://www.w3.org/2000/svg" width="16" height="15.777" viewBox="0 0 16 15.777">
  <path id="comment-user" d="M6.333,5A1.667,1.667,0,1,1,8,6.667,1.667,1.667,0,0,1,6.333,5ZM9.08,15.377l2.472-2.043h.781A3.671,3.671,0,0,0,16,9.667v-6A3.671,3.671,0,0,0,12.333,0H3.667A3.671,3.671,0,0,0,0,3.667v6a3.671,3.671,0,0,0,3.667,3.667h.827l2.4,2.02a1.677,1.677,0,0,0,1.117.424A1.6,1.6,0,0,0,9.08,15.377ZM12.333,2A1.667,1.667,0,0,1,14,3.667v6a1.667,1.667,0,0,1-1.667,1.667H11.192a1,1,0,0,0-.637.229L8,13.674,5.5,11.569a1,1,0,0,0-.644-.235H3.667A1.667,1.667,0,0,1,2,9.667v-6A1.667,1.667,0,0,1,3.667,2ZM5.321,9.488A.443.443,0,0,0,5.769,10H10.21a.443.443,0,0,0,.449-.512A2.736,2.736,0,0,0,5.321,9.488Z" fill="#6e6e6e"/>
</svg>
