<svg xmlns="http://www.w3.org/2000/svg" width="24" height="24" viewBox="0 0 24 24" fill="none">
<path d="M12 1.71429C17.6743 1.71429 22.2857 6.32571 22.2857 12C22.2857 17.6743 17.6743 22.2857 12 22.2857C6.32571 22.2857 1.71429 17.6743 1.71429 12C1.71429 6.32571 6.32571 1.71429 12 1.71429ZM12 0C5.37429 0 0 5.37429 0 12C0 18.6257 5.37429 24 12 24C18.6257 24 24 18.6257 24 12C24 5.37429 18.6257 0 12 0Z" fill="#8F42EC"/>
<path d="M15.36 14.9914C15.6771 14.6143 15.9171 14.1686 16.08 13.6629C16.2429 13.1486 16.4571 11.4 16.0714 10.2514C15.9 9.74572 15.66 9.3 15.3429 8.93143C15.0257 8.56286 14.64 8.28 14.1771 8.07429C13.7143 7.86857 13.1657 7.71429 12.5571 7.71429H9.42857V16.2857H12.5571C13.1743 16.2857 13.7229 16.08 14.1943 15.8657C14.6571 15.66 15.0514 15.36 15.36 14.9914ZM14.76 6.46286C15.4543 6.75429 16.0543 7.17429 16.5429 7.70571C17.0229 8.23714 17.3914 8.87143 17.64 9.59143C17.88 10.3114 18 11.1514 18 12C18 12.8314 17.8886 13.5686 17.6486 14.2886C17.4086 15.0086 17.0486 15.6514 16.5686 16.1829C16.0886 16.7229 15.4971 17.1514 14.7857 17.46C14.0914 17.76 13.2771 18 12.3686 18H7.7143V17.1429L7.70721 6.85714L7.7143 6H12.3686C13.26 6 14.0657 6.17143 14.76 6.46286Z" fill="#8F42EC"/>
</svg>