<svg xmlns="http://www.w3.org/2000/svg" width="16" height="14.667" viewBox="0 0 16 14.667">
  <path id="envelope" d="M12.333,1H3.667A3.671,3.671,0,0,0,0,4.667V12a3.671,3.671,0,0,0,3.667,3.667h8.667A3.671,3.671,0,0,0,16,12V4.667A3.671,3.671,0,0,0,12.333,1Zm0,2a1.651,1.651,0,0,1,1.1.421L9.1,7.754a1.582,1.582,0,0,1-2.185,0L2.577,3.421A1.651,1.651,0,0,1,3.667,3Zm0,10.667H3.667A1.667,1.667,0,0,1,2,12V5.678L5.493,9.171a3.545,3.545,0,0,0,5.014,0L14,5.678V12A1.667,1.667,0,0,1,12.333,13.667Z" transform="translate(0 -1)" fill="#6e6e6e"/>
</svg>
