<svg xmlns="http://www.w3.org/2000/svg" width="25" height="30" viewBox="0 0 25 30">
  <path id="file-pdf" d="M9.475,20.675A1.108,1.108,0,0,1,8.362,21.75H7.325V19.6h1.05a1.108,1.108,0,0,1,1.112,1.075ZM14.612,19.6h-1.05v4.375h1.05A1.108,1.108,0,0,0,15.725,22.9V20.675A1.108,1.108,0,0,0,14.612,19.6ZM27,10.2V23.125A6.887,6.887,0,0,1,20.125,30H8.875A6.887,6.887,0,0,1,2,23.125V6.875A6.887,6.887,0,0,1,8.875,0H16.8a6.826,6.826,0,0,1,4.862,2.012l3.325,3.325A6.826,6.826,0,0,1,27,10.2ZM11.037,20.675a2.662,2.662,0,0,0-2.675-2.637H7a1.254,1.254,0,0,0-1.25,1.25v5.55a.771.771,0,0,0,.775.775.779.779,0,0,0,.775-.775V23.313H8.35a2.662,2.662,0,0,0,2.675-2.638Zm6.25,0a2.662,2.662,0,0,0-2.675-2.637H13.25A1.254,1.254,0,0,0,12,19.288v5.55a.711.711,0,0,0,.775.7H14.6A2.662,2.662,0,0,0,17.275,22.9V20.675Zm5.862-1.962a.78.78,0,0,0-.763-.587H19.5a.771.771,0,0,0-.775.775v6.012a.771.771,0,0,0,.775.775.779.779,0,0,0,.775-.775v-2.25h1.55a.771.771,0,0,0,.775-.775.779.779,0,0,0-.775-.775h-1.55V19.687h2.112a.791.791,0,0,0,.763-.587v-.375ZM23.25,15V11.25h-5a2.507,2.507,0,0,1-2.5-2.5v-5H8.875A3.126,3.126,0,0,0,5.75,6.875V15h17.5Z" transform="translate(-2)" fill="#a2a2a2"/>
</svg>
