<svg width="22" height="22" viewBox="0 0 22 22" fill="none" xmlns="http://www.w3.org/2000/svg">
<g clip-path="url(#clip0_289_2052)">
<path d="M2.32935 10.7293C2.32935 10.7293 3.19852 12.0062 5.02023 13.087C5.02023 13.087 3.70087 1.93656 12.2973 0C10.0949 8.08332 15.0989 10.3629 16.923 6.09237C19.9691 10.1594 17.6563 13.7077 17.6563 13.7077C18.9053 13.8876 19.9545 12.523 19.9545 12.523C19.9639 12.6911 19.9691 12.8604 19.9691 13.0308C19.9692 17.9844 15.9535 22 11 22C6.04641 22 2.03076 17.9844 2.03076 13.0308C2.03076 12.2351 2.13492 11.4638 2.32935 10.7293Z" fill="#FF6536"/>
<path d="M19.9546 12.523C19.9546 12.523 18.9054 13.8876 17.6563 13.7077C17.6563 13.7077 19.9692 10.1594 16.923 6.09237C15.099 10.3629 10.0949 8.08332 12.2974 0C11.837 0.103727 11.4052 0.234051 11 0.387492V22C15.9536 22 19.9692 17.9844 19.9692 13.0308C19.9692 12.8603 19.964 12.6911 19.9546 12.523Z" fill="#FF421D"/>
<path d="M7.06641 18.0665C7.06641 20.2389 8.82752 22 10.9999 22C13.1724 22 14.9335 20.2389 14.9335 18.0665C14.9335 16.9037 14.429 15.8588 13.6269 15.1387C12.106 17.2048 9.93878 14.0706 11.6278 11.7819C11.6278 11.7819 7.06641 12.3535 7.06641 18.0665Z" fill="#FBBF00"/>
<path d="M14.9335 18.0665C14.9335 16.9037 14.429 15.8588 13.6269 15.1387C12.1061 17.2048 9.93884 14.0706 11.6279 11.7819C11.6279 11.7819 11.38 11.813 11 11.9329V22C13.1724 22 14.9335 20.2389 14.9335 18.0665Z" fill="#FFA900"/>
</g>
<defs>
<clipPath id="clip0_289_2052">
<rect width="22" height="22" fill="white"/>
</clipPath>
</defs>
</svg>
