<svg id="grid" xmlns="http://www.w3.org/2000/svg" width="8.59" height="14" viewBox="0 0 8.59 14">
  <path id="Path_1515" data-name="Path 1515" d="M.979,373.333H2.2a.979.979,0,0,1,.979.979v1.224a.979.979,0,0,1-.979.979H.979A.979.979,0,0,1,0,375.535v-1.224A.979.979,0,0,1,.979,373.333Z" transform="translate(0 -362.514)" fill="#cbcbcb"/>
  <path id="Path_1517" data-name="Path 1517" d="M.979,186.667H2.2a.979.979,0,0,1,.979.979v1.224a.979.979,0,0,1-.979.979H.979A.979.979,0,0,1,0,188.869v-1.224A.979.979,0,0,1,.979,186.667Z" transform="translate(0 -181.258)" fill="#cbcbcb"/>
  <path id="Path_1519" data-name="Path 1519" d="M.979,0H2.2a.979.979,0,0,1,.979.979V2.2a.979.979,0,0,1-.979.979H.979A.979.979,0,0,1,0,2.2V.979A.979.979,0,0,1,.979,0Z" fill="#cbcbcb"/>
  <path id="Path_1520" data-name="Path 1520" d="M187.645,373.333h1.224a.979.979,0,0,1,.979.979v1.224a.979.979,0,0,1-.979.979h-1.224a.979.979,0,0,1-.979-.979v-1.224A.979.979,0,0,1,187.645,373.333Z" transform="translate(-181.257 -362.514)" fill="#cbcbcb"/>
  <path id="Path_1521" data-name="Path 1521" d="M187.645,186.667h1.224a.979.979,0,0,1,.979.979v1.224a.979.979,0,0,1-.979.979h-1.224a.979.979,0,0,1-.979-.979v-1.224A.979.979,0,0,1,187.645,186.667Z" transform="translate(-181.257 -181.258)" fill="#cbcbcb"/>
  <path id="Path_1522" data-name="Path 1522" d="M187.645,0h1.224a.979.979,0,0,1,.979.979V2.2a.979.979,0,0,1-.979.979h-1.224a.979.979,0,0,1-.979-.979V.979A.979.979,0,0,1,187.645,0Z" transform="translate(-181.257)" fill="#cbcbcb"/>
</svg>
