<svg xmlns="http://www.w3.org/2000/svg" width="89.464" height="20.003" viewBox="0 0 89.464 20.003">
  <g id="templatiq-logo-dark" transform="translate(-67.2 -53)">
    <g id="Group_2852" data-name="Group 2852" transform="translate(67.2 53)">
      <path id="Path_1573" data-name="Path 1573" d="M87.914,58.046a1.428,1.428,0,0,0-1.53.243L84.7,59.862V58.1A5.338,5.338,0,0,0,79.351,53H72.532A5.335,5.335,0,0,0,67.2,58.347v6.8a5.338,5.338,0,0,0,4.06,5.189V72a1.12,1.12,0,0,0,.1.443,1.018,1.018,0,0,0,1.358.457l4.746-2.373,1.472-.029h.415a3.236,3.236,0,0,0,.372-.014,5.173,5.173,0,0,0,.658-.086,5.343,5.343,0,0,0,4.317-5V64.265l1.7,1.573a1.388,1.388,0,0,0,.958.372,1.422,1.422,0,0,0,1.4-1.358v-5.59A1.331,1.331,0,0,0,87.914,58.046ZM76.449,67.825,74.2,68.954a.382.382,0,0,1-.558-.343V67.382A5.94,5.94,0,0,1,70,61.892h0a5.967,5.967,0,0,1,5.961-5.961h0a5.957,5.957,0,0,1,.486,11.894Z" transform="translate(-67.2 -53)"/>
      <g id="Group_2851" data-name="Group 2851" transform="translate(4.945 8.03)">
        <circle id="Ellipse_320" data-name="Ellipse 320" cx="0.858" cy="0.858" r="0.858" transform="translate(5.648 0.176)"/>
        <circle id="Ellipse_321" data-name="Ellipse 321" cx="0.858" cy="0.858" r="0.858" transform="translate(2.904 0.176)"/>
        <circle id="Ellipse_322" data-name="Ellipse 322" cx="0.858" cy="0.858" r="0.858" transform="translate(0 0.394) rotate(-13.286)"/>
      </g>
    </g>
    <path id="Path_13889" d="M254.087,80.633h4.246v4.1h2.1V74.615h-2.1v4h-4.246v-4H252V84.736h2.1v-4.1Zm15.053,1.2c.014-.157.029-.4.029-.729a3.286,3.286,0,0,0-3.445-3.46,3.585,3.585,0,0,0-2.587,1.058,3.424,3.424,0,0,0-1.072,2.545,3.466,3.466,0,0,0,1.086,2.616,3.926,3.926,0,0,0,2.7,1.015,3.111,3.111,0,0,0,2.973-1.558l-1.458-.958a1.849,1.849,0,0,1-1.544.829,1.61,1.61,0,0,1-1.7-1.358h5.018Zm-4.975-1.33a1.36,1.36,0,0,1,.472-.8,1.51,1.51,0,0,1,2.5.8Zm8.463-6.3H270.6V84.736h2.03Zm3.86,3.631h-2V88.153H276.5V83.979h.029a2.537,2.537,0,0,0,2.044.9,3.062,3.062,0,0,0,2.387-1.087,3.7,3.7,0,0,0,.944-2.516,3.793,3.793,0,0,0-.915-2.488,2.927,2.927,0,0,0-2.373-1.087,2.415,2.415,0,0,0-2.1.986h-.029Zm-.029,3.431a1.737,1.737,0,0,1,.5-1.258,1.6,1.6,0,0,1,1.2-.486,1.686,1.686,0,0,1,1.715,1.744,1.79,1.79,0,0,1-.486,1.287,1.606,1.606,0,0,1-1.215.486,1.66,1.66,0,0,1-1.215-.486A1.723,1.723,0,0,1,276.46,81.262Zm8.663-1.6a3.147,3.147,0,0,1,.9-2.3,2.99,2.99,0,0,1,2.216-.929,2.682,2.682,0,0,1,1.758.543,2.844,2.844,0,0,1,.958,1.244l1.844-.9a4.385,4.385,0,0,0-1.587-1.973,4.93,4.93,0,0,0-2.945-.886,5.136,5.136,0,0,0-3.731,1.515,5.039,5.039,0,0,0-1.53,3.717,5.216,5.216,0,0,0,1.458,3.717,5.14,5.14,0,0,0,3.788,1.5,4.587,4.587,0,0,0,4.1-2.173,5.041,5.041,0,0,0,.7-2.631v-.786H287.8v1.9h3.074a2.507,2.507,0,0,1-2.616,1.7,2.931,2.931,0,0,1-2.244-.944,3.335,3.335,0,0,1-.886-2.316Zm15.968,2.173c.014-.157.029-.4.029-.729a3.286,3.286,0,0,0-3.445-3.46,3.584,3.584,0,0,0-2.587,1.058,3.424,3.424,0,0,0-1.072,2.545,3.465,3.465,0,0,0,1.086,2.616,3.926,3.926,0,0,0,2.7,1.015,3.111,3.111,0,0,0,2.973-1.558l-1.458-.958a1.849,1.849,0,0,1-1.544.829,1.61,1.61,0,0,1-1.7-1.358ZM296.13,80.5a1.36,1.36,0,0,1,.472-.8,1.51,1.51,0,0,1,2.5.8Zm12.895,4.232V80.447a3.033,3.033,0,0,0-.629-1.959,2.2,2.2,0,0,0-1.858-.786,2.261,2.261,0,0,0-1.272.357,1.724,1.724,0,0,0-.686.672h-.014v-.9h-2v6.905h2.016V80.9a1.226,1.226,0,0,1,1.072-1.344.688.688,0,0,1,.172,0c.786,0,1.2.529,1.2,1.344v3.831Zm5.99-1.7a1.776,1.776,0,0,1-.472.057c-.786,0-1.2-.315-1.2-1.1v-2.4h1.7V77.831h-1.7V75.673h-1.987v2.159h-1.272v1.744h1.244V82.22a2.427,2.427,0,0,0,2.745,2.6,3.493,3.493,0,0,0,.944-.129Z" transform="translate(-158.379 -18.169)"/>
  </g>
</svg>
