<svg id="templatiq-logo-light" xmlns="http://www.w3.org/2000/svg" width="106" height="23.7" viewBox="0 0 106 23.7">
  <g id="Group_2852" data-name="Group 2852">
    <path id="Path_1573" data-name="Path 1573" d="M91.73,58.979a1.69,1.69,0,0,0-1.811.288l-2,1.863V59.047A6.323,6.323,0,0,0,81.589,53H73.514A6.32,6.32,0,0,0,67.2,59.335V67.4a6.324,6.324,0,0,0,4.808,6.149v1.965a1.327,1.327,0,0,0,.119.525,1.2,1.2,0,0,0,1.608.542l5.62-2.812,1.744-.034h.491a3.828,3.828,0,0,0,.44-.017,6.125,6.125,0,0,0,.779-.1,6.329,6.329,0,0,0,5.113-5.928V66.347l2.015,1.863a1.643,1.643,0,0,0,1.134.44,1.684,1.684,0,0,0,1.659-1.609V60.419A1.577,1.577,0,0,0,91.73,58.979ZM78.153,70.565,75.495,71.9a.45.45,0,0,1-.2.051.455.455,0,0,1-.457-.457V70.04a7.038,7.038,0,0,1-4.317-6.5h0a7.068,7.068,0,0,1,7.059-7.063h0a7.058,7.058,0,0,1,.576,14.093Z" transform="translate(-67.2 -53)" fill="#fff"/>
    <g id="Group_2851" data-name="Group 2851" transform="translate(5.856 9.515)">
      <circle id="Ellipse_320" data-name="Ellipse 320" cx="1.016" cy="1.016" r="1.016" transform="translate(6.689 0.208)" fill="#fff"/>
      <circle id="Ellipse_321" data-name="Ellipse 321" cx="1.016" cy="1.016" r="1.016" transform="translate(3.439 0.208)" fill="#fff"/>
      <circle id="Ellipse_322" data-name="Ellipse 322" cx="1.016" cy="1.016" r="1.016" transform="translate(0 0.467) rotate(-13.286)" fill="#fff"/>
    </g>
  </g>
  <path id="Path_13889" d="M254.472,81.824H259.5v4.862h2.489v-12H259.5v4.744h-5.028V74.691H252v12h2.489V81.824ZM272.3,83.247c.017-.186.034-.474.034-.864a3.892,3.892,0,0,0-4.08-4.1,4.243,4.243,0,0,0-3.064,1.254,4.059,4.059,0,0,0-1.27,3.016,4.109,4.109,0,0,0,1.287,3.1,4.648,4.648,0,0,0,3.2,1.2,3.684,3.684,0,0,0,3.521-1.847L270.2,83.874a2.19,2.19,0,0,1-1.828.983,1.907,1.907,0,0,1-2.015-1.609H272.3Zm-5.891-1.576a1.611,1.611,0,0,1,.559-.949,1.787,1.787,0,0,1,2.962.949ZM276.429,74.2h-2.4V86.686h2.4ZM281,78.5h-2.37V90.736h2.387V85.789h.034a3,3,0,0,0,2.421,1.067,3.625,3.625,0,0,0,2.827-1.288,4.382,4.382,0,0,0,1.117-2.982,4.5,4.5,0,0,0-1.083-2.948,3.465,3.465,0,0,0-2.81-1.288,2.859,2.859,0,0,0-2.489,1.169H281Zm-.034,4.066a2.059,2.059,0,0,1,.592-1.491,1.889,1.889,0,0,1,1.422-.576,2,2,0,0,1,2.032,2.067,2.122,2.122,0,0,1-.576,1.525A1.9,1.9,0,0,1,283,84.67a1.965,1.965,0,0,1-1.439-.576A2.043,2.043,0,0,1,280.966,82.569Zm10.259-1.9a3.73,3.73,0,0,1,1.066-2.728,3.539,3.539,0,0,1,2.624-1.1,3.175,3.175,0,0,1,2.082.644,3.37,3.37,0,0,1,1.134,1.474l2.184-1.067a5.2,5.2,0,0,0-1.879-2.338,5.835,5.835,0,0,0-3.487-1.05,6.08,6.08,0,0,0-4.418,1.8,5.974,5.974,0,0,0-1.811,4.4,6.183,6.183,0,0,0,1.727,4.4,6.084,6.084,0,0,0,4.486,1.779,5.431,5.431,0,0,0,4.859-2.575,5.978,5.978,0,0,0,.83-3.117v-.932h-6.23v2.253h3.64a2.969,2.969,0,0,1-3.1,2.016,3.47,3.47,0,0,1-2.658-1.118,3.954,3.954,0,0,1-1.05-2.745Zm18.91,2.575c.017-.186.034-.474.034-.864a3.892,3.892,0,0,0-4.08-4.1,4.243,4.243,0,0,0-3.064,1.254,4.059,4.059,0,0,0-1.27,3.016,4.108,4.108,0,0,0,1.287,3.1,4.648,4.648,0,0,0,3.2,1.2,3.684,3.684,0,0,0,3.521-1.847l-1.727-1.135a2.19,2.19,0,0,1-1.828.983,1.907,1.907,0,0,1-2.015-1.609Zm-5.874-1.576a1.612,1.612,0,0,1,.559-.949,1.787,1.787,0,0,1,2.963.949Zm15.27,5.015V81.6a3.6,3.6,0,0,0-.745-2.321,2.6,2.6,0,0,0-2.2-.932,2.676,2.676,0,0,0-1.507.424,2.043,2.043,0,0,0-.813.8h-.017V78.5h-2.37v8.183h2.387V82.146a1.453,1.453,0,0,1,1.27-1.593.814.814,0,0,1,.2,0c.931,0,1.422.627,1.422,1.593v4.541Zm7.093-2.016a2.1,2.1,0,0,1-.559.068c-.931,0-1.422-.373-1.422-1.3V80.587h2.015V78.5h-2.015V75.945H322.29V78.5h-1.507V80.57h1.473V83.7c0,1.914,1.117,3.083,3.25,3.083a4.134,4.134,0,0,0,1.117-.152Z" transform="translate(-220.657 -70.611)" fill="#fff"/>
</svg>
