<svg xmlns="http://www.w3.org/2000/svg" width="19.998" height="18.554" viewBox="0 0 19.998 18.554">
  <g id="templatiq_Icon" data-name="templatiq Icon" transform="translate(-1 -19.5)" opacity="0.5">
    <path id="Path_1578" data-name="Path 1578" d="M20.226,24.171A1.3,1.3,0,0,0,18.8,24.4l-1.569,1.459v-1.4c0-.075,0-.149,0-.224A4.952,4.952,0,0,0,12.276,19.5H5.953A4.946,4.946,0,0,0,1,24.453v6.314a4.96,4.96,0,0,0,3.765,4.816v1.537a.952.952,0,0,0,.1.416.938.938,0,0,0,1.255.42l4.4-2.208,1.369-.024h.384q.171,0,.341-.012a4.521,4.521,0,0,0,.608-.078,4.958,4.958,0,0,0,4.008-4.644c0-.075,0-.149,0-.224v-.816l1.573,1.459a1.323,1.323,0,0,0,.894.345,1.284,1.284,0,0,0,.529-.114A1.234,1.234,0,0,0,21,30.5V25.308A1.222,1.222,0,0,0,20.226,24.171ZM9.581,33.246,7.5,34.29a.371.371,0,0,1-.157.039.355.355,0,0,1-.357-.353V32.839A5.528,5.528,0,0,1,3.6,27.744h0a5.527,5.527,0,0,1,5.526-5.526h0a5.524,5.524,0,0,1,.455,11.029Z" transform="translate(0)" fill="#fff"/>
    <g id="Group_2848" data-name="Group 2848" transform="translate(5.597 26.947)">
      <circle id="Ellipse_323" data-name="Ellipse 323" cx="0.792" cy="0.792" r="0.792" transform="translate(5.235 0.162)" fill="#fff"/>
      <circle id="Ellipse_324" data-name="Ellipse 324" cx="0.792" cy="0.792" r="0.792" transform="translate(2.698 0.162)" fill="#fff"/>
      <circle id="Ellipse_325" data-name="Ellipse 325" cx="0.792" cy="0.792" r="0.792" transform="translate(0 0.364) rotate(-13.286)" fill="#fff"/>
    </g>
  </g>
</svg>
