<svg xmlns="http://www.w3.org/2000/svg" width="17.998" height="14.998" viewBox="0 0 17.998 14.998">
  <path id="left-indent" d="M14561.75,2636a3.752,3.752,0,0,1-3.75-3.75v-7.5a3.755,3.755,0,0,1,3.75-3.75h10.5a3.755,3.755,0,0,1,3.75,3.75v7.5a3.752,3.752,0,0,1-3.75,3.75Zm4.5-1.5h6a2.253,2.253,0,0,0,2.25-2.25v-7.5a2.253,2.253,0,0,0-2.25-2.25h-6Zm-6.749-9.749v7.5a2.253,2.253,0,0,0,2.25,2.25h3v-12h-3A2.253,2.253,0,0,0,14559.5,2624.748Zm11.432,6.658-2.443-2.473a.577.577,0,0,1-.172-.41.57.57,0,0,1,.172-.41l2.443-2.444a.57.57,0,0,1,.815,0,.576.576,0,0,1,0,.812l-2.037,2.041,2.037,2.067a.576.576,0,0,1-.409.984A.574.574,0,0,1,14570.932,2631.406Zm-9.182.092a.75.75,0,1,1,0-1.5h.75a.75.75,0,0,1,0,1.5Zm0-3a.75.75,0,0,1,0-1.5h.75a.75.75,0,0,1,0,1.5Zm0-3a.75.75,0,1,1,0-1.5h.75a.75.75,0,0,1,0,1.5Z" transform="translate(-14558 -2620.999)" fill="#3c3c3c"/>
</svg>
