<svg xmlns="http://www.w3.org/2000/svg" width="13.418" height="16" viewBox="0 0 13.418 16">
  <g id="lock" transform="translate(-41.056)">
    <path id="Path_1575" data-name="Path 1575" d="M52.461,5.673V4.7a4.7,4.7,0,0,0-9.392,0v.977a3.69,3.69,0,0,0-2.013,3.283V12.31A3.694,3.694,0,0,0,44.746,16h6.038a3.694,3.694,0,0,0,3.69-3.69V8.956A3.69,3.69,0,0,0,52.461,5.673Zm-4.7-3.66A2.684,2.684,0,0,1,50.448,4.7v.57H45.081V4.7A2.684,2.684,0,0,1,47.765,2.013Zm4.7,10.3a1.677,1.677,0,0,1-1.677,1.677H44.746a1.677,1.677,0,0,1-1.677-1.677V8.956a1.677,1.677,0,0,1,1.677-1.677h6.038a1.677,1.677,0,0,1,1.677,1.677Z" fill="#a2a2a2"/>
    <path id="Path_1576" data-name="Path 1576" d="M212.729,295.445h.671a1.006,1.006,0,0,1,1.006,1.006h0a1.006,1.006,0,0,1-1.006,1.006h-.671a1.006,1.006,0,0,1-1.006-1.006h0A1.006,1.006,0,0,1,212.729,295.445Z" transform="translate(-165.3 -286.154)" fill="#a2a2a2"/>
  </g>
</svg>
