<svg xmlns="http://www.w3.org/2000/svg" width="60" height="40" viewBox="0 0 60 40">
  <g id="Group_2631" data-name="Group 2631" transform="translate(-1655 -1155)">
    <path id="Rectangle_3761_-_Outline" data-name="Rectangle 3761 - Outline" d="M6,1.5A4.505,4.505,0,0,0,1.5,6V34A4.505,4.505,0,0,0,6,38.5H54A4.505,4.505,0,0,0,58.5,34V6A4.505,4.505,0,0,0,54,1.5H6M6,0H54a6,6,0,0,1,6,6V34a6,6,0,0,1-6,6H6a6,6,0,0,1-6-6V6A6,6,0,0,1,6,0Z" transform="translate(1655 1155)" fill="#a2a2a2"/>
    <path id="Rectangle_3762" data-name="Rectangle 3762" d="M18.78,0H0V32H18.78A3.058,3.058,0,0,0,22,29.134V2.866A3.058,3.058,0,0,0,18.78,0Z" transform="translate(1689 1159)" fill="#a2a2a2"/>
    <rect id="Rectangle_3763" data-name="Rectangle 3763" width="18" height="1.5" rx="0.75" transform="translate(1663 1171)" fill="#a2a2a2"/>
    <rect id="Rectangle_3764" data-name="Rectangle 3764" width="12" height="1.5" rx="0.75" transform="translate(1663 1177)" fill="#a2a2a2"/>
  </g>
</svg>
