<svg xmlns="http://www.w3.org/2000/svg" width="60" height="40" viewBox="0 0 60 40">
  <g id="media-behind" transform="translate(-1735 -1155)">
    <path id="Rectangle_3761_-_Outline" data-name="Rectangle 3761 - Outline" d="M6,1.5A4.505,4.505,0,0,0,1.5,6V34A4.505,4.505,0,0,0,6,38.5H54A4.505,4.505,0,0,0,58.5,34V6A4.505,4.505,0,0,0,54,1.5H6M6,0H54a6,6,0,0,1,6,6V34a6,6,0,0,1-6,6H6a6,6,0,0,1-6-6V6A6,6,0,0,1,6,0Z" transform="translate(1735 1155)" fill="#a2a2a2"/>
    <path id="media-behind-2" data-name="media-behind" d="M10616-949h-44a4,4,0,0,1-4-4v-24a4,4,0,0,1,4-4h44a4,4,0,0,1,4,4v24A4,4,0,0,1,10616-949Zm-27.25-14a.75.75,0,0,0-.749.749.75.75,0,0,0,.749.749h10.5a.75.75,0,0,0,.749-.749.75.75,0,0,0-.749-.749Zm-3-6a.75.75,0,0,0-.749.749.75.75,0,0,0,.749.749h16.5a.75.75,0,0,0,.749-.749.75.75,0,0,0-.749-.749Z" transform="translate(-8829 2140)" fill="#a2a2a2"/>
  </g>
</svg>
