<svg xmlns="http://www.w3.org/2000/svg" width="16" height="14.337" viewBox="0 0 16 14.337">
  <path id="tachometer-fast" d="M16,8.959a7.933,7.933,0,0,1-2.321,5.625,2.341,2.341,0,0,1-3.145.184l-.855-.693a1,1,0,1,1,1.259-1.553l.855.693a.349.349,0,0,0,.467-.039A6.027,6.027,0,0,0,12,4.484a6,6,0,0,0-8.267,8.685.346.346,0,0,0,.467.037l.828-.685A1,1,0,0,1,6.3,14.063l-.826.685a2.337,2.337,0,0,1-3.167-.172A8,8,0,1,1,16,8.959Zm-4.959-1.6A1,1,0,1,0,9.626,5.944L7.917,7.651A1.333,1.333,0,1,0,9.333,9.067Z" transform="translate(0 -0.952)" fill="#6e6e6e"/>
</svg>
