<svg xmlns="http://www.w3.org/2000/svg" width="15.625" height="25" viewBox="0 0 15.625 25">
  <path id="Icon_awesome-mobile-alt" data-name="Icon awesome-mobile-alt" d="M13.281,0H2.344A2.344,2.344,0,0,0,0,2.344V22.656A2.344,2.344,0,0,0,2.344,25H13.281a2.344,2.344,0,0,0,2.344-2.344V2.344A2.344,2.344,0,0,0,13.281,0ZM7.813,23.438a1.563,1.563,0,1,1,1.563-1.562A1.561,1.561,0,0,1,7.813,23.438Zm5.469-5.273a.588.588,0,0,1-.586.586H2.93a.588.588,0,0,1-.586-.586V2.93a.588.588,0,0,1,.586-.586H12.7a.588.588,0,0,1,.586.586Z" fill="#a2a2a2"/>
</svg>
