<svg xmlns="http://www.w3.org/2000/svg" width="16" height="15.998" viewBox="0 0 16 15.998">
  <g id="open-ended" transform="translate(-2 -2.002)">
    <path id="Path_1511" data-name="Path 1511" d="M17.649,9.938a.8.8,0,0,0-.746-.08l-2.94,1.176A2.4,2.4,0,0,0,11.6,9H4.4A2.4,2.4,0,0,0,2,11.4V17a2.4,2.4,0,0,0,2.4,2.4h7.2a2.4,2.4,0,0,0,2.363-2.033l2.94,1.176A.8.8,0,0,0,18,17.8V10.6a.8.8,0,0,0-.351-.662ZM11.6,17.8H4.4a.8.8,0,0,1-.8-.8V11.4a.8.8,0,0,1,.8-.8h7.2a.8.8,0,0,1,.8.8V17A.8.8,0,0,1,11.6,17.8Zm4.8-1.182-2.4-.96V12.742l2.4-.96v4.838Z" transform="translate(0 -1.4)" fill="#6e6e6e"/>
    <path id="Path_1512" data-name="Path 1512" d="M5.867,4.676a3.771,3.771,0,0,1,5.28,0,.8.8,0,0,0,1.12-1.14,5.377,5.377,0,0,0-7.52,0,.8.8,0,0,0,1.12,1.14Z" transform="translate(-0.507 0)" fill="#6e6e6e"/>
    <path id="Path_1513" data-name="Path 1513" d="M7.133,6.1a.8.8,0,1,0,1.12,1.14,1.026,1.026,0,0,1,1.44,0,.8.8,0,1,0,1.12-1.14,2.632,2.632,0,0,0-3.68,0Z" transform="translate(-0.973 -0.669)" fill="#6e6e6e"/>
  </g>
</svg>
