<svg width="18" height="18" viewBox="0 0 18 18" fill="none" xmlns="http://www.w3.org/2000/svg">
<path fill-rule="evenodd" clip-rule="evenodd" d="M9.75 2.26487C9.61073 2.25218 9.40436 2.24999 9.00883 2.24999H6.6C5.95757 2.24999 5.52085 2.25057 5.18328 2.27815C4.85447 2.30501 4.68631 2.35371 4.56902 2.41348C4.28677 2.55729 4.0573 2.78676 3.91349 3.069C3.85372 3.1863 3.80503 3.35445 3.77816 3.68326C3.75058 4.02083 3.75 4.45755 3.75 5.09999V12.9C3.75 13.5424 3.75058 13.9791 3.77816 14.3167C3.80503 14.6455 3.85372 14.8137 3.91349 14.931C4.0573 15.2132 4.28677 15.4427 4.56902 15.5865C4.68631 15.6463 4.85447 15.695 5.18328 15.7218C5.52085 15.7494 5.95757 15.75 6.6 15.75H11.4C12.0424 15.75 12.4792 15.7494 12.8167 15.7218C13.1455 15.695 13.3137 15.6463 13.431 15.5865C13.7132 15.4427 13.9427 15.2132 14.0865 14.931C14.1463 14.8137 14.195 14.6455 14.2218 14.3167C14.2494 13.9791 14.25 13.5424 14.25 12.9V7.49115C14.25 7.09563 14.2478 6.88926 14.2351 6.74999L11.6761 6.74999C11.4868 6.75001 11.3024 6.75003 11.1463 6.73728C10.9749 6.72327 10.7726 6.69022 10.569 6.5865C10.2868 6.44269 10.0573 6.21321 9.91349 5.93097C9.80977 5.7274 9.77672 5.5251 9.76271 5.35366C9.74995 5.19754 9.74998 5.01319 9.75 4.8239L9.75 2.26487ZM10.7927 1.01134C10.624 0.935924 10.4485 0.876133 10.2684 0.832877C9.92134 0.749564 9.56149 0.749736 9.08524 0.749962C9.0601 0.749974 9.03464 0.749986 9.00883 0.749986L6.56903 0.749986C5.9653 0.749976 5.46703 0.749968 5.06113 0.783131C4.63956 0.817575 4.25203 0.891499 3.88803 1.07697C3.32354 1.36459 2.8646 1.82353 2.57698 2.38801C2.39151 2.75202 2.31759 3.13954 2.28315 3.56112C2.24998 3.96701 2.24999 4.46528 2.25 5.06901V12.931C2.24999 13.5347 2.24998 14.033 2.28315 14.4389C2.31759 14.8604 2.39151 15.248 2.57698 15.612C2.8646 16.1764 3.32354 16.6354 3.88803 16.923C4.25203 17.1085 4.63956 17.1824 5.06113 17.2168C5.46702 17.25 5.96529 17.25 6.56901 17.25H11.431C12.0347 17.25 12.533 17.25 12.9389 17.2168C13.3604 17.1824 13.748 17.1085 14.112 16.923C14.6765 16.6354 15.1354 16.1764 15.423 15.612C15.6085 15.248 15.6824 14.8604 15.7169 14.4389C15.75 14.033 15.75 13.5347 15.75 12.931V7.49115C15.75 7.46535 15.75 7.43989 15.75 7.41475C15.7502 6.9385 15.7504 6.57865 15.6671 6.23163C15.6239 6.05145 15.5641 5.87594 15.4886 5.70728C15.4837 5.69554 15.4784 5.68394 15.4728 5.67251C15.424 5.56687 15.3689 5.464 15.3079 5.36447C15.1214 5.06018 14.8669 4.80585 14.53 4.46924C14.5122 4.45148 14.4942 4.43348 14.4759 4.41524L12.0847 2.02407C12.0665 2.00583 12.0485 1.98781 12.0307 1.97003C11.6941 1.63311 11.4398 1.37854 11.1355 1.19207C11.036 1.13107 10.9331 1.07603 10.8275 1.02717C10.8161 1.02161 10.8044 1.01633 10.7927 1.01134ZM11.25 3.31065V4.79999C11.25 5.02238 11.2506 5.14407 11.2577 5.23151C11.258 5.23499 11.2583 5.23829 11.2586 5.2414C11.2617 5.24169 11.265 5.24197 11.2685 5.24226C11.3559 5.2494 11.4776 5.24999 11.7 5.24999H13.1893L11.25 3.31065Z" fill="#94949A"/>
</svg>
