<svg xmlns="http://www.w3.org/2000/svg" width="14" height="13.978" viewBox="0 0 14 13.978">
  <path id="paint-bucket" d="M13.024,10.762a4.339,4.339,0,0,1,.976,1.8,1.458,1.458,0,0,1-2.917,0,4.734,4.734,0,0,1,.987-1.79.583.583,0,0,1,.954-.005Zm-.51-2.248L7.952,13.076a3.213,3.213,0,0,1-4.537,0L.94,10.6a3.208,3.208,0,0,1,0-4.537L3.167,3.836,1.423,2.093A.875.875,0,1,1,2.661.855L4.4,2.6,5.5,1.5A.875.875,0,0,1,6.744.272l7,7a.875.875,0,0,1-1.23,1.243ZM11.275,7.278,6.738,2.74l-1.1,1.1L7.911,6.105A.875.875,0,0,1,6.673,7.343L4.4,5.074,2.177,7.3a1.458,1.458,0,0,0,0,2.063l2.475,2.475a1.458,1.458,0,0,0,2.063,0Z" transform="translate(0 -0.037)" fill="#6e6e6e"/>
</svg>
