<svg xmlns="http://www.w3.org/2000/svg" width="12.25" height="14" viewBox="0 0 12.25 14"><g id="clip" transform="translate(-31.961 0)"><path id="Path_1475" data-name="Path 1475" d="M37.316,14a5.415,5.415,0,0,1-3.791-1.541,5.585,5.585,0,0,1,.093-7.845l3.407-3.4A4,4,0,0,1,42.26.775a3.909,3.909,0,0,1,.388,5.865L39.083,10.2a2.548,2.548,0,0,1-1.509.764,2.389,2.389,0,0,1-2.066-.811,2.539,2.539,0,0,1,.2-3.35l2.718-2.713a.883.883,0,0,1,1.248,0h0a.881.881,0,0,1,0,1.247l-2.8,2.8a.631.631,0,0,0,.893.892l3.6-3.593a2.181,2.181,0,0,0,.328-2.724,2.15,2.15,0,0,0-3.319-.353l-3.55,3.55a3.738,3.738,0,0,0-.408,4.9,3.665,3.665,0,0,0,5.493.362l2.8-2.8a.883.883,0,0,1,1.248,0h0a.881.881,0,0,1,0,1.247l-2.8,2.8A5.408,5.408,0,0,1,37.316,14Z" transform="translate(0)" fill="#4d4d4d"></path></g></svg>