<svg xmlns="http://www.w3.org/2000/svg" width="14" height="13.997" viewBox="0 0 14 13.997">
  <g id="paper-plane" transform="translate(0 -0.049)">
    <path id="Path_1572" data-name="Path 1572" d="M13.416.632A1.958,1.958,0,0,0,11.563.1L2.646,1.978A3.1,3.1,0,0,0,.908,7.236l.956.957a.233.233,0,0,1,.069.167v1.764a1.99,1.99,0,0,0,1.988,1.988H5.685a.238.238,0,0,1,.168.069l.956.956a3.082,3.082,0,0,0,2.184.91,3.121,3.121,0,0,0,1-.164A3.081,3.081,0,0,0,12.067,11.4l1.874-8.889A1.973,1.973,0,0,0,13.416.632ZM1.82,4.614a1.325,1.325,0,0,1,1.1-.907l.061-.01,7.77-1.633L3.683,9.125V8.36A1.973,1.973,0,0,0,3.1,6.955L2.145,6A1.326,1.326,0,0,1,1.82,4.614Zm8.528,6.455c0,.02-.008.041-.01.061a1.35,1.35,0,0,1-2.292.772l-.955-.955a1.973,1.973,0,0,0-1.406-.583H4.92L11.984,3.3Z" transform="translate(0)" fill="#3c3c3c"/>
  </g>
</svg>
