<svg xmlns="http://www.w3.org/2000/svg" width="16" height="16" viewBox="0 0 16 16">
  <path id="phone-flip" d="M14.763,1.3,14.036.664a2.351,2.351,0,0,0-3.3.053L9.354,2.211a2.332,2.332,0,0,0-.007,3.3l.267.267A7.722,7.722,0,0,1,5.772,9.629L5.5,9.362a2.336,2.336,0,0,0-3.275-.02L.677,10.775A2.323,2.323,0,0,0-.01,12.428a2.287,2.287,0,0,0,.654,1.62s.62.713.634.726a4.266,4.266,0,0,0,3.041,1.24c5.015,0,11.672-6.652,11.672-11.663a4.26,4.26,0,0,0-1.241-3.039ZM4.332,14a2.3,2.3,0,0,1-1.607-.633s-.614-.706-.634-.72a.334.334,0,0,1-.1-.233.3.3,0,0,1,.073-.207l1.547-1.433a.335.335,0,0,1,.233-.1.325.325,0,0,1,.233.1l.754.746a1,1,0,0,0,1.06.22A9.885,9.885,0,0,0,11.715,5.93,1,1,0,0,0,11.5,4.857l-.747-.76a.334.334,0,0,1-.1-.233.358.358,0,0,1,.127-.26l1.381-1.493a.343.343,0,0,1,.474,0c.013.013.72.633.72.633a2.284,2.284,0,0,1,.634,1.606c0,4.266-6,9.664-9.671,9.664Z" transform="translate(0.01 -0.013)" fill="#6e6e6e"/>
</svg>
