<svg xmlns="http://www.w3.org/2000/svg" width="16" height="16" viewBox="0 0 16 16">
  <path id="poll-h" d="M12.333,0H3.667A3.673,3.673,0,0,0,0,3.667v8.667A3.673,3.673,0,0,0,3.667,16h8.667A3.673,3.673,0,0,0,16,12.333V3.667A3.673,3.673,0,0,0,12.333,0ZM14,12.333A1.667,1.667,0,0,1,12.333,14H3.667A1.667,1.667,0,0,1,2,12.333V3.667A1.667,1.667,0,0,1,3.667,2h8.667A1.667,1.667,0,0,1,14,3.667Zm-10.667-8a1,1,0,0,1,1-1H9.667a1,1,0,1,1,0,2H4.333A1,1,0,0,1,3.333,4.333ZM12.667,8a1,1,0,0,1-1,1H4.333a1,1,0,1,1,0-2h7.333A1,1,0,0,1,12.667,8Zm-6,3.667a1,1,0,0,1-1,1H4.333a1,1,0,1,1,0-2H5.667A1,1,0,0,1,6.667,11.667Z" fill="#6551f2"/>
</svg>
