<svg width="28" height="29" viewBox="0 0 28 29" fill="none" xmlns="http://www.w3.org/2000/svg">
<path fill-rule="evenodd" clip-rule="evenodd" d="M8.77371 20.0209H10.1187C10.2977 20.0209 10.4441 19.8746 10.4441 19.6957V13.0434C10.4441 12.8645 10.2977 12.7182 10.1187 12.7182H8.77371C8.59473 12.7182 8.44832 12.8645 8.44832 13.0434V19.6957C8.44832 19.8747 8.59473 20.0209 8.77371 20.0209ZM11.6214 19.8147L12.0145 20.021H17.1681C17.6916 20.021 18.12 19.5929 18.12 19.0694C18.12 18.5461 17.6916 18.1179 17.1681 18.1179H17.6453C18.1688 18.1179 18.5972 17.6884 18.5972 17.1635C18.5972 16.6385 18.1688 16.209 17.6453 16.209H18.1226C18.6461 16.209 19.0744 15.7796 19.0744 15.2546C19.0744 14.7296 18.6461 14.3001 18.1226 14.3001H18.5998C19.1233 14.3001 19.5517 13.8707 19.5517 13.3457C19.5517 12.8207 19.1233 12.3912 18.5998 12.3912L15.2012 12.4084C15.5635 10.998 16.1509 9.13141 16.2062 8.53637C16.3336 7.16314 15.1961 6.19111 14.5468 7.27058L11.4728 12.382C11.5709 12.5818 11.6262 12.8063 11.626 13.0435L11.6214 19.8147ZM25.6041 21.3584C27.7344 20.6211 28.7104 17.6183 27.4205 15.77C26.8778 14.9924 26.8777 14.0077 27.4204 13.2301C28.7104 11.3819 27.7345 8.37908 25.6042 7.64173C24.7079 7.33158 24.1288 6.53486 24.1107 5.58691C24.0676 3.33367 21.5125 1.47778 19.3554 2.13301C18.4479 2.40868 17.5111 2.10451 16.939 1.34826C15.5794 -0.449358 12.4209 -0.449432 11.0612 1.34811C10.4891 2.10436 9.55222 2.40883 8.64481 2.13309C6.48782 1.47771 3.93253 3.33352 3.88939 5.58676C3.87122 6.53471 3.29231 7.3315 2.39605 7.64166C0.265657 8.37893 -0.71038 11.3817 0.579527 13.23C1.12225 14.0076 1.12232 14.9923 0.579601 15.7699C-0.710454 17.6181 0.265508 20.621 2.39583 21.3584C3.29209 21.6685 3.87122 22.4651 3.88932 23.4131C3.93239 25.6663 6.48753 27.5222 8.64452 26.867C9.552 26.5913 10.4889 26.8955 11.0609 27.6517C12.4206 29.4494 15.5792 29.4494 16.9389 27.6518C17.5109 26.8956 18.4477 26.5913 19.3552 26.867C21.5122 27.5223 24.0674 25.6664 24.1105 23.4132C24.1288 22.4652 24.7078 21.6686 25.6041 21.3584ZM14 5.03159C19.231 5.03159 23.4716 9.27076 23.4716 14.5C23.4716 19.7293 19.231 23.9685 14 23.9685C8.76906 23.9685 4.52851 19.7293 4.52851 14.5C4.52851 9.27076 8.76906 5.03159 14 5.03159Z" fill="#8941FF"/>
</svg>
