<svg xmlns="http://www.w3.org/2000/svg" width="14" height="12.192" viewBox="0 0 14 12.192">
  <path id="redo" d="M.875,14.745A.875.875,0,0,1,0,13.87v-3.5A5.549,5.549,0,0,1,5.543,4.827H7.681V3.846a1.292,1.292,0,0,1,2.238-.879l3.627,3.906a1.716,1.716,0,0,1,0,2.325L9.919,13.1a1.292,1.292,0,0,1-2.239-.879v-.98h-3.3A2.626,2.626,0,0,0,1.75,13.87a.875.875,0,0,1-.875.875Zm3.5-5.251h4.18a.875.875,0,0,1,.875.875v.688l2.833-3.05L9.431,5v.7a.875.875,0,0,1-.875.875H5.543A3.8,3.8,0,0,0,1.75,10.368h0A4.351,4.351,0,0,1,4.376,9.494ZM8.635,4.156l0,0Z" transform="translate(0 -2.554)" fill="#6e6e6e"/>
</svg>
