<svg width="24" height="24" viewBox="0 0 24 24" fill="none" xmlns="http://www.w3.org/2000/svg">
<g clip-path="url(#clip0_1737_3462)">
<path d="M12 0C5.37258 0 0 5.37258 0 12C0 18.6274 5.37258 24 12 24C18.6274 24 24 18.6274 24 12C23.9928 5.37553 18.6245 0.00717187 12 0ZM12 21C7.02942 21 3 16.9706 3 12C3 7.02942 7.02942 3 12 3C16.9706 3 21 7.02942 21 12C20.9945 16.9683 16.9683 20.9945 12 21Z" fill="#6C3AF8"/>
<path d="M12 15.091C12.8284 15.091 13.5 14.4194 13.5 13.591V6.591C13.5 5.76258 12.8284 5.091 12 5.091C11.1716 5.091 10.5 5.76258 10.5 6.591V13.591C10.5 14.4194 11.1716 15.091 12 15.091Z" fill="#6C3AF8"/>
<path d="M12.0049 18.9999C12.8333 18.9999 13.5049 18.3284 13.5049 17.4999C13.5049 16.6715 12.8333 15.9999 12.0049 15.9999C11.1765 15.9999 10.5049 16.6715 10.5049 17.4999C10.5049 18.3284 11.1765 18.9999 12.0049 18.9999Z" fill="#6C3AF8"/>
</g>
<defs>
<clipPath id="clip0_1737_3462">
<rect width="24" height="24" fill="white"/>
</clipPath>
</defs>
</svg>
