<svg xmlns="http://www.w3.org/2000/svg" width="18" height="17.999" viewBox="0 0 18 17.999">
  <path id="rocket-lunch" d="M3.976,14.026a1.8,1.8,0,0,1,0,2.546,9.6,9.6,0,0,1-3.159,1.41.665.665,0,0,1-.8-.794,9.6,9.6,0,0,1,1.408-3.161,1.8,1.8,0,0,1,2.55,0ZM12.035,13.21ZM4.693,6.1h0C4.718,6.07,4.705,6.087,4.693,6.1Zm8.808.271A1.875,1.875,0,1,0,11.626,8.25,1.875,1.875,0,0,0,13.5,6.375Zm-1.482,6.847.006,0a9.08,9.08,0,0,1-.617,1.583,6.535,6.535,0,0,1-2.886,3.053A1.82,1.82,0,0,1,6,16.166V14.251A2.261,2.261,0,0,0,3.751,12H1.794A1.78,1.78,0,0,1,.144,9.535,6.389,6.389,0,0,1,3.13,6.713,8.911,8.911,0,0,1,4.693,6.1c-.012.017-.023.033,0,0C7.567,2.1,10.853.128,15.345,0A2.635,2.635,0,0,1,18,2.625c-.128,4.524-1.969,7.72-5.976,10.593ZM15.751,2.594a.37.37,0,0,0-.375-.344c-3.777.108-6.225,1.5-8.709,4.961a21.029,21.029,0,0,0-1.615,2.73A4.514,4.514,0,0,1,8.04,12.883l1.622-.807c.38-.225.764-.476,1.129-.737C14.251,8.85,15.643,6.4,15.751,2.594ZM12.025,13.218l.008-.005-.007.005Z" transform="translate(-0.001 0)" fill="#fff"/>
</svg>
