<svg xmlns="http://www.w3.org/2000/svg" width="128" height="107" viewBox="0 0 128 107">
  <g id="session-expired" transform="translate(-889 -359)">
    <ellipse id="Ellipse_5" data-name="Ellipse 5" cx="64" cy="17.5" rx="64" ry="17.5" transform="translate(889 431)" fill="#6551f2" opacity="0.07"/>
    <path id="Path_1577" data-name="Path 1577" d="M2,67.731C2,70.3,4.6,72.38,7.806,72.38H86.194C89.4,72.38,92,70.3,92,67.731V12.38H2Z" transform="translate(902 375.62)" fill="#fff"/>
    <path id="Path_1578" data-name="Path 1578" d="M86.194,2H7.806A5.611,5.611,0,0,0,2,7.395V16H92V7.395A5.611,5.611,0,0,0,86.194,2Z" transform="translate(902 372)" fill="#6551f2" opacity="0.2"/>
    <circle id="Ellipse_1" data-name="Ellipse 1" cx="3" cy="3" r="3" transform="translate(912.537 378)" fill="#6551f2" opacity="0.5"/>
    <circle id="Ellipse_2" data-name="Ellipse 2" cx="3" cy="3" r="3" transform="translate(923.372 378)" fill="#6551f2" opacity="0.5"/>
    <circle id="Ellipse_3" data-name="Ellipse 3" cx="3" cy="3" r="3" transform="translate(934.207 378)" fill="#6551f2" opacity="0.5"/>
    <path id="Rectangle_2046" data-name="Rectangle 2046" d="M6,0A6,6,0,0,0,0,6V68a6,6,0,0,0,6,6H84a6,6,0,0,0,6-6V6a6,6,0,0,0-6-6H6M6-3H84a9.01,9.01,0,0,1,9,9V68a9.01,9.01,0,0,1-9,9H6a9.01,9.01,0,0,1-9-9V6A9.01,9.01,0,0,1,6-3Z" transform="translate(904 374)" fill="#6551f2" opacity="0.5"/>
    <g id="Group_2717" data-name="Group 2717" transform="translate(930 399)">
      <g id="Group_2711" data-name="Group 2711" transform="translate(0 0)">
        <g id="Group_2707" data-name="Group 2707">
          <path id="Path_1579" data-name="Path 1579" d="M19.307,38.614A19.307,19.307,0,0,1,5.655,5.655,19.309,19.309,0,0,1,35.323,30.094l-1.4-.942A17.624,17.624,0,1,0,19.307,36.93c.269,0,.542-.006.811-.018l.076,1.683C19.9,38.608,19.6,38.614,19.307,38.614Z" transform="translate(0 0)" fill="#6551f2"/>
        </g>
        <g id="Group_2708" data-name="Group 2708" transform="translate(4.594 4.594)">
          <path id="Path_1580" data-name="Path 1580" d="M74.616,89.426a14.713,14.713,0,1,1,13.652-8.99l-1.551-.657a13.029,13.029,0,1,0-25.033-5.066A13.061,13.061,0,0,0,74.627,87.742Z" transform="translate(-60 -60)" fill="#6551f2"/>
        </g>
        <g id="Group_2710" data-name="Group 2710" transform="translate(11.485 11.419)">
          <g id="Group_2709" data-name="Group 2709">
            <path id="Path_1581" data-name="Path 1581" d="M158.719,153.47v-3.484a.842.842,0,1,0-1.684,0v3.484a3.151,3.151,0,0,0-2.182,2.182h-4.006a.842.842,0,1,0,0,1.684h4.006a3.139,3.139,0,1,0,3.867-3.867Zm-.842,4.479a1.455,1.455,0,1,1,1.455-1.455A1.457,1.457,0,0,1,157.877,157.949Z" transform="translate(-150.004 -149.144)" fill="#6551f2"/>
          </g>
        </g>
      </g>
      <g id="Group_2716" data-name="Group 2716" transform="translate(17.249 19.072)">
        <g id="Group_2712" data-name="Group 2712">
          <path id="Path_1582" data-name="Path 1582" d="M243.731,268.617H228.192a2.9,2.9,0,0,1-2.527-4.334l7.769-13.724a2.9,2.9,0,0,1,5.053,0l7.769,13.724a2.9,2.9,0,0,1-2.527,4.334Zm-16.6-3.5a1.219,1.219,0,0,0,1.061,1.82h15.539a1.219,1.219,0,0,0,1.061-1.819l-7.769-13.724a1.219,1.219,0,0,0-2.122,0Z" transform="translate(-225.284 -249.086)" fill="#6551f2"/>
        </g>
        <g id="Group_2715" data-name="Group 2715" transform="translate(9.835 6.208)">
          <g id="Group_2713" data-name="Group 2713" transform="translate(0.019 7.427)">
            <path id="Path_1583" data-name="Path 1583" d="M354.807,428.844a.841.841,0,1,1,.165-1.668A.841.841,0,0,1,354.807,428.844Z" transform="translate(-353.984 -427.159)" fill="#6551f2"/>
          </g>
          <g id="Group_2714" data-name="Group 2714">
            <path id="Path_1584" data-name="Path 1584" d="M354.575,335.205a.842.842,0,0,1-.842-.842V331a.842.842,0,1,1,1.684,0v3.36A.842.842,0,0,1,354.575,335.205Z" transform="translate(-353.733 -330.161)" fill="#6551f2"/>
          </g>
        </g>
      </g>
    </g>
    <g id="Ellipse_4" data-name="Ellipse 4" transform="translate(977 359)" fill="#fff" stroke="#b1a7f8" stroke-width="3">
      <circle cx="20" cy="20" r="20" stroke="none"/>
      <circle cx="20" cy="20" r="18.5" fill="none"/>
    </g>
    <g id="Group_2718" data-name="Group 2718" transform="matrix(0.921, -0.391, 0.391, 0.921, 985.996, 373.554)">
      <path id="Path_1585" data-name="Path 1585" d="M2.1,42.651A6.274,6.274,0,0,1,3.941,38.2h0L4.981,39.24l.258-3.82-3.82.258,1.039,1.039A8.392,8.392,0,0,0,8.392,51.043v-2.1A6.294,6.294,0,0,1,2.1,42.651Z" transform="translate(0 -34.259)" fill="#6551f2"/>
      <path id="Path_1587" data-name="Path 1587" d="M264.392,8.392A8.392,8.392,0,0,0,256,0V2.1a6.294,6.294,0,0,1,4.45,10.744L259.411,11.8l-.258,3.82,3.82-.257-1.04-1.04a8.365,8.365,0,0,0,2.458-5.934Z" transform="translate(-247.608)" fill="#6551f2"/>
    </g>
  </g>
</svg>
