<svg xmlns="http://www.w3.org/2000/svg" width="13.417" height="14" viewBox="0 0 13.417 14">
  <g id="sort-amount-down-alt" transform="translate(-1)">
    <path id="Path_1574" data-name="Path 1574" d="M17.292,1H10.875a.875.875,0,0,0,0,1.75h6.417a.875.875,0,1,0,0-1.75Z" transform="translate(-3.75 -0.417)" fill="#6e6e6e"/>
    <path id="Path_1575" data-name="Path 1575" d="M14.958,7H10.875a.875.875,0,0,0,0,1.75h4.083a.875.875,0,0,0,0-1.75Z" transform="translate(-3.75 -2.917)" fill="#6e6e6e"/>
    <path id="Path_1576" data-name="Path 1576" d="M12.625,13h-1.75a.875.875,0,0,0,0,1.75h1.75a.875.875,0,0,0,0-1.75Z" transform="translate(-3.75 -5.417)" fill="#6e6e6e"/>
    <path id="Path_1577" data-name="Path 1577" d="M5.767,10.742H4.5V.875a.875.875,0,0,0-1.75,0v9.867H1.583a.583.583,0,0,0-.412,1l2.092,2.092a.584.584,0,0,0,.825,0L6.18,11.737a.583.583,0,0,0-.412-1Z" fill="#6e6e6e"/>
  </g>
</svg>
