<svg xmlns="http://www.w3.org/2000/svg" width="14" height="14" viewBox="0 0 14 14">
  <path id="tags" d="M1.786,46.014h0a3.669,3.669,0,0,1,.271-.309l4.6-4.561a2.585,2.585,0,0,1,2.117-.689l4.885.645a1.107,1.107,0,0,1,.958,1.008l.377,4.713a2.551,2.551,0,0,1-.777,2.06L9.728,53.328A3.658,3.658,0,0,1,7.1,54.434h0a3.656,3.656,0,0,1-2.628-1.1L2.05,50.877A3.669,3.669,0,0,1,1,48.356,3.39,3.39,0,0,1,1.786,46.014Zm1.841,3.313,2.416,2.456a1.475,1.475,0,0,0,2.116-.013L12.674,47.3a.365.365,0,0,0,.113-.3l-.305-3.824-4-.528a.348.348,0,0,0-.286.083L3.625,47.264a1.482,1.482,0,0,0,0,2.065Zm5.476-4.1a1.106,1.106,0,0,0,2.212,0A1.106,1.106,0,0,0,9.1,45.222Z" transform="translate(-1 -40.434)" fill="#6e6e6e"/>
</svg>
