<svg xmlns="http://www.w3.org/2000/svg" width="24.005" height="20.574" viewBox="0 0 24.005 20.574">
  <g id="thumbs-up" transform="translate(0 -0.426)">
    <path id="Path_1535" data-name="Path 1535" d="M22.773,7.721A4.994,4.994,0,0,0,19,6H15.011l.336-2.041A3.037,3.037,0,0,0,9.626,2.122L8,5.417V21H18.3a5.024,5.024,0,0,0,4.951-4.3l.7-5a4.994,4.994,0,0,0-1.183-3.979Z" fill="#a2a2a2"/>
    <path id="Path_1536" data-name="Path 1536" d="M0,11v5a5.006,5.006,0,0,0,5,5H6V6H5a5.006,5.006,0,0,0-5,5Z" fill="#a2a2a2"/>
  </g>
</svg>
