<svg width="12" height="12" viewBox="0 0 12 12" fill="none" xmlns="http://www.w3.org/2000/svg">
<path fill-rule="evenodd" clip-rule="evenodd" d="M6 0C6.36819 0 6.66667 0.298477 6.66667 0.666667V4.39052L9.5286 1.5286C9.78895 1.26825 10.2111 1.26825 10.4714 1.5286C10.7318 1.78895 10.7318 2.21106 10.4714 2.4714L7.60948 5.33333H11.3333C11.7015 5.33333 12 5.63181 12 6C12 6.36819 11.7015 6.66667 11.3333 6.66667H7.60948L10.4714 9.5286C10.7318 9.78895 10.7318 10.2111 10.4714 10.4714C10.2111 10.7318 9.78895 10.7318 9.5286 10.4714L6.66667 7.60948V11.3333C6.66667 11.7015 6.36819 12 6 12C5.63181 12 5.33333 11.7015 5.33333 11.3333V7.60948L2.4714 10.4714C2.21106 10.7318 1.78895 10.7318 1.5286 10.4714C1.26825 10.2111 1.26825 9.78895 1.5286 9.5286L4.39052 6.66667H0.666667C0.298477 6.66667 0 6.36819 0 6C0 5.63181 0.298477 5.33333 0.666667 5.33333H4.39052L1.5286 2.4714C1.26825 2.21106 1.26825 1.78895 1.5286 1.5286C1.78895 1.26825 2.21106 1.26825 2.4714 1.5286L5.33333 4.39052V0.666667C5.33333 0.298477 5.63181 0 6 0Z" fill="#FB3D38"/>
</svg>
