<svg xmlns="http://www.w3.org/2000/svg" width="16" height="16.001" viewBox="0 0 16 16.001">
  <path id="user-unlock" d="M14,10H11.334V9a1,1,0,0,1,1-1,.989.989,0,0,1,.746.334A1,1,0,0,0,14.569,7,3,3,0,0,0,9.333,9v1.51A1.993,1.993,0,0,0,8.666,12v2a2,2,0,0,0,2,2H14a2,2,0,0,0,2-2V12a2,2,0,0,0-2-2Zm-1.667,4a1,1,0,1,1,1-1A1,1,0,0,1,12.334,14Zm-7-14a4,4,0,1,0,4,4A4,4,0,0,0,5.334,0Zm0,6a2,2,0,1,1,2-2A2,2,0,0,1,5.334,6Zm1.973,4.68a1,1,0,0,1-1.2.743A3.337,3.337,0,0,0,2,14.667V15a1,1,0,0,1-2,0v-.333A5.338,5.338,0,0,1,6.564,9.476a1,1,0,0,1,.743,1.2Z" fill="#6551f2"/>
</svg>
