<svg width="14" height="14" viewBox="0 0 14 14" fill="none" xmlns="http://www.w3.org/2000/svg">
<path fill-rule="evenodd" clip-rule="evenodd" d="M7.00002 1.66668C5.71136 1.66668 4.66669 2.71135 4.66669 4.00001C4.66669 5.28867 5.71136 6.33334 7.00002 6.33334C8.28869 6.33334 9.33336 5.28867 9.33336 4.00001C9.33336 2.71135 8.28869 1.66668 7.00002 1.66668ZM3.33336 4.00001C3.33336 1.97497 4.97498 0.333344 7.00002 0.333344C9.02507 0.333344 10.6667 1.97497 10.6667 4.00001C10.6667 6.02505 9.02507 7.66668 7.00002 7.66668C4.97498 7.66668 3.33336 6.02505 3.33336 4.00001ZM7.00002 9.66668C5.10734 9.66668 3.42035 10.5795 2.34259 12.0059C2.27665 12.0932 2.2262 12.16 2.18422 12.2188C2.15236 12.2634 2.13061 12.2961 2.11547 12.321C2.21455 12.3323 2.35574 12.3333 2.61818 12.3333H11.3819C11.6443 12.3333 11.7855 12.3323 11.8846 12.321C11.8694 12.2961 11.8477 12.2634 11.8158 12.2188C11.7739 12.16 11.7234 12.0932 11.6575 12.0059C10.5797 10.5795 8.89271 9.66668 7.00002 9.66668ZM1.27879 11.2021C2.5941 9.46134 4.66594 8.33334 7.00002 8.33334C9.3341 8.33334 11.406 9.46134 12.7213 11.2021C12.7272 11.21 12.7332 11.2179 12.7392 11.2258C12.8523 11.3753 12.9735 11.5357 13.0602 11.6904C13.1651 11.8776 13.2428 12.0943 13.238 12.3577C13.2341 12.5695 13.17 12.7677 13.092 12.9243C13.0141 13.0808 12.8946 13.2515 12.728 13.3823C12.5058 13.5566 12.2639 13.6184 12.0489 13.6442C11.8604 13.6668 11.6369 13.6667 11.4122 13.6667C11.4021 13.6667 11.392 13.6667 11.3819 13.6667H2.61818C2.60805 13.6667 2.59792 13.6667 2.5878 13.6667C2.36313 13.6667 2.13968 13.6668 1.95112 13.6442C1.73619 13.6184 1.49425 13.5566 1.27204 13.3823C1.10541 13.2515 0.985924 13.0808 0.908007 12.9243C0.830089 12.7677 0.765926 12.5695 0.762053 12.3577C0.757235 12.0943 0.834974 11.8776 0.939864 11.6904C1.02652 11.5357 1.14778 11.3753 1.26087 11.2258C1.26687 11.2179 1.27284 11.21 1.27879 11.2021Z" fill="#35353D"/>
</svg>
