<svg xmlns="http://www.w3.org/2000/svg" width="24" height="18" viewBox="0 0 24 18">
  <path id="video-camera-alt" d="M22.925,5.695a1.934,1.934,0,0,0-2.037.183L18.944,7.76A5.505,5.505,0,0,0,13.5,3h-8A5.506,5.506,0,0,0,0,8.5v7A5.507,5.507,0,0,0,5.5,21h8a5.505,5.505,0,0,0,5.441-4.736l1.947,1.846a1.937,1.937,0,0,0,2.145.126A2.077,2.077,0,0,0,24,16.42V7.434A1.933,1.933,0,0,0,22.925,5.695ZM16,15.5A2.5,2.5,0,0,1,13.5,18h-8A2.5,2.5,0,0,1,3,15.5v-7A2.5,2.5,0,0,1,5.5,6h8A2.5,2.5,0,0,1,16,8.5v7Z" transform="translate(0 -3)" fill="#fff"/>
</svg>
