<svg width="64" height="64" viewBox="0 0 64 64" fill="none" xmlns="http://www.w3.org/2000/svg">
<circle cx="32" cy="32" r="31" fill="#D5C4FF" stroke="#8941FF" stroke-width="2"/>
<path d="M32 16C27.3476 16 23.5625 19.7851 23.5625 24.4375C23.5625 29.0899 27.3476 32.875 32 32.875C36.6524 32.875 40.4375 29.0899 40.4375 24.4375C40.4375 19.7851 36.6524 16 32 16Z" fill="white"/>
<path d="M42.4979 38.3872C40.1879 36.0417 37.1256 34.75 33.875 34.75H30.125C26.8745 34.75 23.8121 36.0417 21.5021 38.3872C19.2034 40.7212 17.9375 43.8021 17.9375 47.0625C17.9375 47.5802 18.3572 48 18.875 48H45.125C45.6427 48 46.0625 47.5802 46.0625 47.0625C46.0625 43.8021 44.7966 40.7212 42.4979 38.3872Z" fill="white"/>
</svg>
