<svg width="130" height="30" viewBox="0 0 130 30" fill="none" xmlns="http://www.w3.org/2000/svg">
<g clip-path="url(#clip0_519_15308)">
<path d="M37.723 8.64018H33.6646V6.50808H44.138V8.64018H40.0796V19.7496H37.723V8.64018Z" fill="black"/>
<path d="M45.2581 16.0464C45.333 16.7197 45.5948 17.2434 46.0437 17.6175C46.4925 17.9915 47.0349 18.1785 47.6708 18.1785C48.2319 18.1785 48.6994 18.0663 49.0735 17.8419C49.46 17.605 49.7967 17.312 50.0834 16.9629L51.6919 18.1785C51.1682 18.8269 50.5822 19.2882 49.9338 19.5625C49.2855 19.8368 48.6059 19.974 47.8952 19.974C47.2219 19.974 46.586 19.8618 45.9876 19.6373C45.3891 19.4129 44.8716 19.095 44.4352 18.6835C43.9988 18.272 43.6497 17.7795 43.3879 17.206C43.1385 16.62 43.0138 15.9716 43.0138 15.2609C43.0138 14.5502 43.1385 13.9081 43.3879 13.3345C43.6497 12.7485 43.9988 12.2498 44.4352 11.8383C44.8716 11.4269 45.3891 11.1089 45.9876 10.8845C46.586 10.6601 47.2219 10.5479 47.8952 10.5479C48.5186 10.5479 49.086 10.6601 49.5972 10.8845C50.1208 11.0965 50.5635 11.4082 50.9251 11.8196C51.2991 12.2311 51.5859 12.7423 51.7854 13.3532C51.9973 13.9517 52.1033 14.6437 52.1033 15.4292V16.0464H45.2581ZM49.859 14.3632C49.8465 13.7024 49.6408 13.1849 49.2418 12.8109C48.8428 12.4244 48.288 12.2311 47.5773 12.2311C46.904 12.2311 46.3678 12.4244 45.9688 12.8109C45.5823 13.1974 45.3454 13.7148 45.2581 14.3632H49.859Z" fill="black"/>
<path d="M54.1086 10.7723H56.2407V12.175H56.2781C56.4776 11.7511 56.7955 11.377 57.2319 11.0528C57.6808 10.7162 58.2793 10.5479 59.0274 10.5479C60.4363 10.5479 61.3715 11.1027 61.8328 12.2124C62.157 11.6388 62.5622 11.2211 63.0485 10.9593C63.5347 10.685 64.1145 10.5479 64.7878 10.5479C65.3863 10.5479 65.8913 10.6476 66.3027 10.8471C66.7142 11.0466 67.0446 11.3209 67.294 11.67C67.5558 12.0191 67.7428 12.4306 67.855 12.9044C67.9673 13.3657 68.0234 13.8645 68.0234 14.4006V19.7496H65.779V14.6624C65.779 14.3881 65.7541 14.1263 65.7042 13.8769C65.6544 13.6151 65.5671 13.3907 65.4424 13.2036C65.3177 13.0041 65.1494 12.8483 64.9374 12.7361C64.7255 12.6238 64.4512 12.5677 64.1145 12.5677C63.7654 12.5677 63.4662 12.6363 63.2168 12.7735C62.9799 12.8982 62.7804 13.0727 62.6183 13.2971C62.4687 13.5091 62.3565 13.7585 62.2816 14.0452C62.2193 14.3196 62.1881 14.6001 62.1881 14.8869V19.7496H59.9438V14.4006C59.9438 13.8395 59.8254 13.3969 59.5885 13.0727C59.3516 12.7361 58.9588 12.5677 58.4102 12.5677C58.0361 12.5677 57.7182 12.6301 57.4564 12.7548C57.207 12.8794 56.995 13.0478 56.8205 13.2597C56.6584 13.4717 56.5399 13.7148 56.4651 13.9891C56.3903 14.2634 56.3529 14.5502 56.3529 14.8495V19.7496H54.1086V10.7723Z" fill="black"/>
<path d="M70.4756 10.7723H72.6077V12.1189H72.6451C72.9693 11.5703 73.4057 11.1713 73.9543 10.9219C74.5029 10.6725 75.0952 10.5479 75.731 10.5479C76.4168 10.5479 77.034 10.6725 77.5826 10.9219C78.1312 11.1588 78.5988 11.4892 78.9853 11.9131C79.3718 12.3371 79.6648 12.8358 79.8643 13.4094C80.0638 13.9829 80.1636 14.6001 80.1636 15.2609C80.1636 15.9217 80.0576 16.5389 79.8456 17.1125C79.6337 17.686 79.3344 18.1848 78.9479 18.6087C78.5738 19.0326 78.1188 19.3693 77.5826 19.6186C77.0465 19.8555 76.4604 19.974 75.8246 19.974C75.4006 19.974 75.0266 19.9303 74.7024 19.8431C74.3782 19.7558 74.0914 19.6436 73.8421 19.5064C73.5927 19.3693 73.3807 19.2259 73.2062 19.0763C73.0316 18.9142 72.8882 18.7583 72.776 18.6087H72.7199V24.0138H70.4756V10.7723ZM77.9193 15.2609C77.9193 14.9118 77.8569 14.5752 77.7322 14.251C77.62 13.9268 77.4455 13.64 77.2086 13.3907C76.9841 13.1413 76.7098 12.9418 76.3856 12.7922C76.0615 12.6425 75.6936 12.5677 75.2822 12.5677C74.8707 12.5677 74.5029 12.6425 74.1787 12.7922C73.8545 12.9418 73.574 13.1413 73.3371 13.3907C73.1127 13.64 72.9381 13.9268 72.8134 14.251C72.7012 14.5752 72.6451 14.9118 72.6451 15.2609C72.6451 15.61 72.7012 15.9467 72.8134 16.2709C72.9381 16.595 73.1127 16.8818 73.3371 17.1312C73.574 17.3806 73.8545 17.58 74.1787 17.7297C74.5029 17.8793 74.8707 17.9541 75.2822 17.9541C75.6936 17.9541 76.0615 17.8793 76.3856 17.7297C76.7098 17.58 76.9841 17.3806 77.2086 17.1312C77.4455 16.8818 77.62 16.595 77.7322 16.2709C77.8569 15.9467 77.9193 15.61 77.9193 15.2609Z" fill="black"/>
<path d="M82.2935 5.61035H84.5378V19.7496H82.2935V5.61035Z" fill="black"/>
<path d="M92.7252 18.5152H92.6691C92.3449 19.0264 91.9334 19.4004 91.4347 19.6373C90.936 19.8618 90.3873 19.974 89.7889 19.974C89.3774 19.974 88.9722 19.9179 88.5732 19.8057C88.1867 19.6934 87.8376 19.5251 87.5258 19.3007C87.2266 19.0763 86.9835 18.7957 86.7964 18.4591C86.6094 18.1224 86.5159 17.7297 86.5159 17.2808C86.5159 16.7945 86.6032 16.3831 86.7777 16.0464C86.9523 15.6973 87.183 15.4105 87.4697 15.1861C87.769 14.9492 88.1119 14.7622 88.4984 14.625C88.8849 14.4879 89.2839 14.3881 89.6953 14.3258C90.1193 14.251 90.5432 14.2073 90.9671 14.1949C91.3911 14.1699 91.79 14.1575 92.1641 14.1575H92.7252V13.9143C92.7252 13.3532 92.5319 12.9356 92.1454 12.6613C91.7589 12.3745 91.2664 12.2311 90.6679 12.2311C90.1941 12.2311 89.7515 12.3184 89.34 12.4929C88.9285 12.655 88.5732 12.8794 88.2739 13.1662L87.0957 11.988C87.5944 11.4767 88.1742 11.1089 88.835 10.8845C89.5083 10.6601 90.2003 10.5479 90.911 10.5479C91.5469 10.5479 92.0831 10.6227 92.5194 10.7723C92.9558 10.9094 93.3174 11.0902 93.6042 11.3147C93.891 11.5391 94.1092 11.8009 94.2588 12.1002C94.4209 12.3869 94.5331 12.68 94.5954 12.9792C94.6703 13.2784 94.7139 13.5714 94.7264 13.8582C94.7388 14.1325 94.7451 14.3757 94.7451 14.5876V19.7496H92.7252V18.5152ZM92.5943 15.7285H92.1267C91.815 15.7285 91.4659 15.741 91.0793 15.7659C90.6928 15.7908 90.325 15.8532 89.9759 15.9529C89.6392 16.0402 89.3525 16.1773 89.1156 16.3644C88.8787 16.5389 88.7602 16.7883 88.7602 17.1125C88.7602 17.3244 88.8039 17.5052 88.8911 17.6549C88.9909 17.792 89.1156 17.9105 89.2652 18.0102C89.4148 18.11 89.5831 18.1848 89.7702 18.2346C89.9572 18.272 90.1442 18.2907 90.3312 18.2907C91.1043 18.2907 91.6716 18.11 92.0332 17.7484C92.4072 17.3743 92.5943 16.8693 92.5943 16.2335V15.7285Z" fill="black"/>
<path d="M96.1124 12.68V10.7723H97.964V8.17262H100.208V10.7723H102.677V12.68H100.208V16.6075C100.208 17.0564 100.289 17.4117 100.451 17.6736C100.626 17.9354 100.963 18.0663 101.461 18.0663C101.661 18.0663 101.879 18.0476 102.116 18.0102C102.353 17.9603 102.54 17.8855 102.677 17.7858V19.6747C102.44 19.787 102.147 19.8618 101.798 19.8992C101.461 19.9491 101.162 19.974 100.9 19.974C100.302 19.974 99.8093 19.9054 99.4228 19.7683C99.0487 19.6436 98.7495 19.4503 98.525 19.1885C98.3131 18.9142 98.1635 18.5775 98.0762 18.1785C98.0014 17.7795 97.964 17.3182 97.964 16.7945V12.68H96.1124Z" fill="black"/>
<path d="M104.485 10.7723H106.729V19.7496H104.485V10.7723ZM104.167 7.72375C104.167 7.36217 104.298 7.05046 104.559 6.78862C104.834 6.51431 105.177 6.37716 105.588 6.37716C106 6.37716 106.342 6.50808 106.617 6.76992C106.903 7.01928 107.047 7.33723 107.047 7.72375C107.047 8.11027 106.903 8.43445 106.617 8.69629C106.342 8.94566 106 9.07034 105.588 9.07034C105.177 9.07034 104.834 8.93942 104.559 8.67759C104.298 8.40328 104.167 8.08534 104.167 7.72375Z" fill="black"/>
<path d="M118.545 24.0138H116.3V18.6087H116.244C116.132 18.7583 115.989 18.9142 115.814 19.0763C115.639 19.2259 115.428 19.3693 115.178 19.5064C114.929 19.6436 114.642 19.7558 114.318 19.8431C113.994 19.9303 113.62 19.974 113.196 19.974C112.56 19.974 111.974 19.8555 111.438 19.6186C110.901 19.3693 110.44 19.0326 110.054 18.6087C109.68 18.1848 109.387 17.686 109.175 17.1125C108.963 16.5389 108.857 15.9217 108.857 15.2609C108.857 14.6001 108.956 13.9829 109.156 13.4094C109.355 12.8358 109.648 12.3371 110.035 11.9131C110.421 11.4892 110.883 11.1588 111.419 10.9219C111.968 10.6725 112.591 10.5479 113.289 10.5479C113.925 10.5479 114.517 10.6725 115.066 10.9219C115.615 11.1713 116.051 11.5703 116.375 12.1189H116.413V10.7723H118.545V24.0138ZM111.101 15.2609C111.101 15.61 111.157 15.9467 111.269 16.2709C111.394 16.595 111.569 16.8818 111.793 17.1312C112.03 17.3806 112.31 17.58 112.635 17.7297C112.959 17.8793 113.327 17.9541 113.738 17.9541C114.15 17.9541 114.517 17.8793 114.841 17.7297C115.166 17.58 115.44 17.3806 115.664 17.1312C115.901 16.8818 116.076 16.595 116.188 16.2709C116.313 15.9467 116.375 15.61 116.375 15.2609C116.375 14.9118 116.313 14.5752 116.188 14.251C116.076 13.9268 115.901 13.64 115.664 13.3907C115.44 13.1413 115.166 12.9418 114.841 12.7922C114.517 12.6425 114.15 12.5677 113.738 12.5677C113.327 12.5677 112.959 12.6425 112.635 12.7922C112.31 12.9418 112.03 13.1413 111.793 13.3907C111.569 13.64 111.394 13.9268 111.269 14.251C111.157 14.5752 111.101 14.9118 111.101 15.2609Z" fill="black"/>
<path d="M0.40332 4.69336L12.4885 12.0054V29.6344C12.4885 29.9156 12.1774 30.0855 11.9408 29.9334L0.40332 22.5163V4.69336Z" fill="white"/>
<path fill-rule="evenodd" clip-rule="evenodd" d="M0.40332 4.69336V22.5163L11.9408 29.9334C12.1774 30.0855 12.4885 29.9156 12.4885 29.6344V12.0054L0.40332 4.69336ZM2.536 8.47637V21.352L10.3558 26.3791V13.2077L2.536 8.47637Z" fill="#6C3AF8"/>
<path d="M26.7065 14.6465L14.6214 22.2292V29.6435C14.6214 29.9229 14.929 30.0931 15.1657 29.9445L26.7065 22.7033V14.6465Z" fill="white"/>
<path fill-rule="evenodd" clip-rule="evenodd" d="M26.7065 14.6465V22.7033L15.1657 29.9445C14.929 30.0931 14.6214 29.9229 14.6214 29.6435V22.2292L26.7065 14.6465ZM24.5739 18.5023V21.5237L16.7541 26.4302V23.4088L24.5739 18.5023Z" fill="#6C3AF8"/>
<path d="M26.7065 5.4043L14.6214 11.802V24.5981L26.7065 17.385V5.4043Z" fill="white"/>
<path fill-rule="evenodd" clip-rule="evenodd" d="M26.7065 5.4043V17.385L14.6214 24.5981V11.802L26.7065 5.4043ZM24.5739 8.94639V16.1743L16.7541 20.8415V13.0861L24.5739 8.94639Z" fill="#6C3AF8"/>
<path fill-rule="evenodd" clip-rule="evenodd" d="M8.13998 1.90244C8.36738 2.44569 8.11133 3.07042 7.56807 3.29782L1.88094 5.67833C1.33769 5.90572 0.712961 5.64967 0.485568 5.10642C0.258174 4.56317 0.514227 3.93844 1.05748 3.71105L6.74461 1.33053C7.28786 1.10314 7.91259 1.35919 8.13998 1.90244Z" fill="#6C3AF8"/>
<path fill-rule="evenodd" clip-rule="evenodd" d="M26.5772 5.91374C26.2959 6.43116 25.6484 6.62261 25.131 6.34135L19.4439 3.24994C18.9265 2.96869 18.735 2.32123 19.0163 1.80381C19.2975 1.28639 19.945 1.09494 20.4624 1.3762L26.1495 4.46761C26.667 4.74887 26.8584 5.39632 26.5772 5.91374Z" fill="#6C3AF8"/>
</g>
<defs>
<clipPath id="clip0_519_15308">
<rect width="130" height="30" fill="white"/>
</clipPath>
</defs>
</svg>
