<svg xmlns="http://www.w3.org/2000/svg" width="16" height="16" viewBox="0 0 16 16">
  <path id="arrow-alt-square-down_1_" data-name="arrow-alt-square-down (1)" d="M11.16,9.017,8.368,11.845a.517.517,0,0,1-.736,0L4.84,9.017A.6.6,0,0,1,5.265,8H7V5A1,1,0,0,1,9,5V8h1.735A.6.6,0,0,1,11.16,9.017ZM16,3.667v8.667A3.671,3.671,0,0,1,12.333,16H3.667A3.671,3.671,0,0,1,0,12.333V3.667A3.671,3.671,0,0,1,3.667,0h8.667A3.671,3.671,0,0,1,16,3.667Zm-2,0A1.669,1.669,0,0,0,12.333,2H3.667A1.669,1.669,0,0,0,2,3.667v8.667A1.669,1.669,0,0,0,3.667,14h8.667A1.669,1.669,0,0,0,14,12.333Z" transform="translate(16) rotate(90)" fill="#6e6e6e"/>
</svg>
