<svg xmlns="http://www.w3.org/2000/svg" width="14" height="12.578" viewBox="0 0 14 12.578">
  <g id="Group_2712" data-name="Group 2712" transform="translate(-988.229 -532.338)">
    <path id="Path_1529" data-name="Path 1529" d="M995.023,544.017a.9.9,0,1,0,1.8,0v-3.474l-1.8,1.8Z" fill="#6e6e6e"/>
    <path id="Path_1530" data-name="Path 1530" d="M1001.039,540.544,998.363,539l-1.315,1.317,3.093,1.785a.9.9,0,1,0,.9-1.556Z" fill="#6e6e6e"/>
    <path id="Path_1531" data-name="Path 1531" d="M1000.115,537.243l1.7-.983a1.812,1.812,0,0,0-.318-.4Z" fill="#6e6e6e"/>
    <path id="Path_1532" data-name="Path 1532" d="M999.718,532.868l-2.9,2.9v-2.535a.9.9,0,0,0-1.8,0v3.835l-3.321-1.918a.9.9,0,1,0-.9,1.556l3.222,1.861-.268.268-3.732,2.155a1.794,1.794,0,0,0,.835.748l-2.632,2.636a1.8,1.8,0,0,0,2.235.244l11.765-11.785A1.8,1.8,0,0,0,999.718,532.868Z" fill="#6e6e6e"/>
  </g>
</svg>
