<svg xmlns="http://www.w3.org/2000/svg" width="16" height="16" viewBox="0 0 16 16">
  <path id="calendar-check" d="M12.333,1.333H12V1a1,1,0,0,0-2,0v.333H6V1A1,1,0,0,0,4,1v.333H3.667A3.671,3.671,0,0,0,0,5v7.333A3.671,3.671,0,0,0,3.667,16h8.667A3.671,3.671,0,0,0,16,12.333V5A3.671,3.671,0,0,0,12.333,1.333Zm0,12.667H3.667A1.669,1.669,0,0,1,2,12.333V6H14v6.333A1.669,1.669,0,0,1,12.333,14ZM11.9,7.983A1,1,0,0,1,11.851,9.4L9.067,12.005a2.332,2.332,0,0,1-3.277-.023l-1.652-1.6A1,1,0,1,1,5.529,8.948l1.664,1.609a.346.346,0,0,0,.247.109.334.334,0,0,0,.236-.1l2.807-2.632a1,1,0,0,1,1.413.045Z" fill="#6e6e6e"/>
</svg>
