<svg id="checkbox" xmlns="http://www.w3.org/2000/svg" width="16" height="16" viewBox="0 0 16 16">
  <path id="Path_1503" data-name="Path 1503" d="M12.333,16H3.667A3.671,3.671,0,0,1,0,12.333V3.667A3.671,3.671,0,0,1,3.667,0h8.667A3.671,3.671,0,0,1,16,3.667v8.667A3.671,3.671,0,0,1,12.333,16ZM3.667,2A1.667,1.667,0,0,0,2,3.667v8.667A1.667,1.667,0,0,0,3.667,14h8.667A1.667,1.667,0,0,0,14,12.333V3.667A1.667,1.667,0,0,0,12.333,2Z" fill="#6e6e6e"/>
  <path id="Path_1504" data-name="Path 1504" d="M100.691,153.978a1.575,1.575,0,0,1-1.12-.467l-1.991-1.988a1,1,0,0,1,0-1.414h0a1,1,0,0,1,1.414,0l1.7,1.7L105.5,147a1,1,0,0,1,1.414,0h0a1,1,0,0,1,0,1.414h0l-5.1,5.1A1.573,1.573,0,0,1,100.691,153.978Z" transform="translate(-94.246 -142.12)" fill="#6e6e6e"/>
</svg>
