<svg xmlns="http://www.w3.org/2000/svg" width="46" height="38.327" viewBox="0 0 46 38.327">
  <path id="cloud-upload-alt" d="M34.45,11.859a1.977,1.977,0,0,1-1.422-1.091,15.431,15.431,0,0,0-16.74-8.506A15.23,15.23,0,0,0,4.052,14.723a15.581,15.581,0,0,0,.063,5.539,1.9,1.9,0,0,1-.663,1.727,10.541,10.541,0,0,0,7.09,18.342H31.625a14.375,14.375,0,0,0,2.825-28.47ZM31.625,36.5H10.542A6.708,6.708,0,0,1,6.03,24.823a5.757,5.757,0,0,0,1.846-5.3,11.772,11.772,0,0,1-.046-4.18,11.536,11.536,0,0,1,9.144-9.319,12.27,12.27,0,0,1,2.2-.2,11.405,11.405,0,0,1,10.392,6.582A5.775,5.775,0,0,0,33.7,15.618,10.543,10.543,0,0,1,31.623,36.5ZM28.982,21.724a1.916,1.916,0,1,1-2.71,2.71L23,21.163v9.583a1.917,1.917,0,1,1-3.833,0V21.163l-3.272,3.272a1.916,1.916,0,1,1-2.71-2.71l5.188-5.188a3.815,3.815,0,0,1,2.683-1.117l.027-.006.027.006a3.812,3.812,0,0,1,2.683,1.117l5.188,5.188Z" transform="translate(0 -2.004)" fill="#a2a2a2"/>
</svg>
