<svg xmlns="http://www.w3.org/2000/svg" width="18.004" height="16.329" viewBox="0 0 18.004 16.329">
  <g id="cloud-computer" transform="translate(-27.438 -36.264)">
    <g id="Group_2950" data-name="Group 2950" transform="translate(27.438 36.264)">
      <path id="Path_1590" data-name="Path 1590" d="M42.546,40.356A3.285,3.285,0,0,0,37.064,38.2a3.569,3.569,0,0,0-6.7,2.151,3.444,3.444,0,0,0,.521,6.848H42a3.444,3.444,0,0,0,.548-6.844Z" transform="translate(-27.438 -36.264)" fill="#ffa91a"/>
      <g id="Group_2949" data-name="Group 2949" transform="translate(0.358 0.358)">
        <g id="Group_2948" data-name="Group 2948">
          <path id="Path_1593" data-name="Path 1593" d="M31.876,48.77a.179.179,0,0,1-.163-.1,3.087,3.087,0,0,1,.479-3.292,3.092,3.092,0,0,1,1.866-1.03l.352-.053-.051-.353A3.209,3.209,0,0,1,40.388,42l.214.414.346-.313a2.929,2.929,0,0,1,3.312-.435.179.179,0,0,1,.076.242.183.183,0,0,1-.241.077,2.569,2.569,0,0,0-2.907.381l-.518.471a.18.18,0,0,1-.28-.05l-.32-.623a2.852,2.852,0,0,0-5.388,1.3,3,3,0,0,0,.03.416l.077.529a.179.179,0,0,1-.149.2l-.528.081a2.729,2.729,0,0,0-2.072,3.82.179.179,0,0,1-.163.252Zm12.887-6.354a.179.179,0,0,1-.132-.3.186.186,0,0,1,.253-.012h0a.178.178,0,0,1,.057.123.175.175,0,0,1-.047.129.179.179,0,0,1-.132.059Z" transform="translate(-31.439 -40.26)" fill="#ffc91d"/>
        </g>
      </g>
    </g>
    <g id="Group_2951" data-name="Group 2951" transform="translate(31.588 42.89)">
      <circle id="Ellipse_320" data-name="Ellipse 320" cx="4.852" cy="4.852" r="4.852" transform="translate(0 0)" fill="#6551f2"/>
    </g>
    <g id="Group_2969" data-name="Group 2969" transform="translate(33.334 45.05)">
      <g id="Group_2956" data-name="Group 2956">
        <g id="Group_2955" data-name="Group 2955">
          <g id="Group_2954" data-name="Group 2954">
            <g id="Group_2953" data-name="Group 2953">
              <path id="Path_1595" data-name="Path 1595" d="M99.269,138.946H93.546a.245.245,0,0,1-.245-.245v-4.048a.245.245,0,0,1,.245-.245h5.723a.245.245,0,0,1,.245.245V138.7A.245.245,0,0,1,99.269,138.946Z" transform="translate(-93.301 -134.408)" fill="#fff"/>
            </g>
          </g>
        </g>
      </g>
      <g id="Group_2960" data-name="Group 2960" transform="translate(2.45 4.538)">
        <g id="Group_2959" data-name="Group 2959">
          <g id="Group_2958" data-name="Group 2958">
            <g id="Group_2957" data-name="Group 2957">
              <path id="Path_1596" data-name="Path 1596" d="M120.672,185.1h1.312v.877h-1.312Z" transform="translate(-120.672 -185.097)" fill="#e6e7e8"/>
            </g>
          </g>
        </g>
      </g>
      <g id="Group_2964" data-name="Group 2964" transform="translate(0.535 0.512)">
        <g id="Group_2963" data-name="Group 2963">
          <g id="Group_2962" data-name="Group 2962">
            <g id="Group_2961" data-name="Group 2961">
              <path id="Path_1597" data-name="Path 1597" d="M104.315,143.581H99.383a.1.1,0,0,1-.1-.1v-3.245a.1.1,0,0,1,.1-.1h4.933a.1.1,0,0,1,.1.1v3.245A.1.1,0,0,1,104.315,143.581Z" transform="translate(-99.278 -140.126)" fill="#ffa91a"/>
            </g>
          </g>
        </g>
      </g>
      <g id="Group_2968" data-name="Group 2968" transform="translate(0.977 5.415)">
        <g id="Group_2967" data-name="Group 2967">
          <g id="Group_2966" data-name="Group 2966">
            <g id="Group_2965" data-name="Group 2965">
              <path id="Path_1598" data-name="Path 1598" d="M108.331,195.183h-3.971a.144.144,0,1,1,0-.287h3.971a.144.144,0,1,1,0,.287Z" transform="translate(-104.217 -194.896)" fill="#fff"/>
            </g>
          </g>
        </g>
      </g>
    </g>
  </g>
</svg>
