<svg xmlns="http://www.w3.org/2000/svg" width="18" height="17.999" viewBox="0 0 18 17.999">
  <path id="code-branch_1_" data-name="code-branch (1)" d="M18,3a3,3,0,1,0-3.75,2.9V6A2.253,2.253,0,0,1,12,8.25H6A3.735,3.735,0,0,0,3.75,9V5.9a3,3,0,1,0-1.5,0v6.19a3,3,0,1,0,1.5,0V12A2.253,2.253,0,0,1,6,9.749h6A3.754,3.754,0,0,0,15.75,6V5.9A3.005,3.005,0,0,0,18,3ZM1.5,3A1.5,1.5,0,1,1,3,4.5,1.5,1.5,0,0,1,1.5,3Zm3,12A1.5,1.5,0,1,1,3,13.5,1.5,1.5,0,0,1,4.5,15ZM15,4.5A1.5,1.5,0,1,1,16.5,3,1.5,1.5,0,0,1,15,4.5Z"/>
</svg>
