<svg xmlns="http://www.w3.org/2000/svg" width="16" height="16" viewBox="0 0 16 16">
  <g id="comment_2_" data-name="comment (2)" transform="translate(-0.001 0.022)">
    <path id="Path_1500" data-name="Path 1500" d="M16,7.483a8.007,8.007,0,1,0-7.989,8.495h4.322A3.67,3.67,0,0,0,16,12.315V7.546Zm-2,4.832a1.666,1.666,0,0,1-1.667,1.665H8.012a6.03,6.03,0,0,1-4.488-2.005A5.941,5.941,0,0,1,2.04,7.289a6.023,6.023,0,0,1,5.192-5.25,6.329,6.329,0,0,1,.782-.049A6,6,0,0,1,14,7.578Z" transform="translate(0 0)" fill="#a2a2a2"/>
    <path id="Path_1501" data-name="Path 1501" d="M9,10h2a1,1,0,0,0,0-2H9a1,1,0,0,0,0,2Z" transform="translate(-2.666 -2.68)" fill="#a2a2a2"/>
    <path id="Path_1502" data-name="Path 1502" d="M13.667,13H9a1,1,0,0,0,0,2h4.667a1,1,0,0,0,0-2Z" transform="translate(-2.666 -4.35)" fill="#a2a2a2"/>
  </g>
</svg>
