<svg xmlns="http://www.w3.org/2000/svg" width="16" height="16" viewBox="0 0 16 16">
  <path id="copy" d="M9,12.667H3.667A3.671,3.671,0,0,1,0,9V3.667A3.671,3.671,0,0,1,3.667,0H9a3.671,3.671,0,0,1,3.667,3.667V9A3.671,3.671,0,0,1,9,12.667ZM3.667,2A1.667,1.667,0,0,0,2,3.667V9a1.667,1.667,0,0,0,1.667,1.667H9A1.667,1.667,0,0,0,10.667,9V3.667A1.667,1.667,0,0,0,9,2ZM16,12.333V4.667a1,1,0,1,0-2,0v7.667A1.667,1.667,0,0,1,12.333,14H4.667a1,1,0,1,0,0,2h7.667A3.671,3.671,0,0,0,16,12.333Z" fill="#6e6e6e"/>
</svg>
