<svg xmlns="http://www.w3.org/2000/svg" width="14" height="14" viewBox="0 0 14 14">
  <path id="envelope-open" d="M13.012,4.566,9.194.908A3.1,3.1,0,0,0,4.819.9L.988,4.566A3.224,3.224,0,0,0,0,6.883v3.908A3.212,3.212,0,0,0,3.208,14h7.583A3.212,3.212,0,0,0,14,10.792V6.883a3.224,3.224,0,0,0-.988-2.318ZM6.043,2.147a1.359,1.359,0,0,1,1.925.012l3.14,3.008L8.03,8.323a1.493,1.493,0,0,1-2.063,0L2.851,5.2Zm6.207,8.645a1.458,1.458,0,0,1-1.458,1.458H3.208A1.458,1.458,0,0,1,1.75,10.792V6.883a1.406,1.406,0,0,1,.029-.276L4.731,9.561a3.222,3.222,0,0,0,4.545-.008l2.931-3a1.432,1.432,0,0,1,.043.335Z" transform="translate(0 0)"/>
</svg>
