<svg xmlns="http://www.w3.org/2000/svg" width="100" height="100" viewBox="0 0 100 100">
  <g id="Page-1" transform="translate(0)">
    <g id="_027---Email-Tick" data-name="027---Email-Tick" transform="translate(0)">
      <path id="Path" d="M93.1,19.28l4.293,3.4a6.917,6.917,0,0,1,2.6,5.4V79.142a6.9,6.9,0,0,1-6.9,6.9H6.9a6.9,6.9,0,0,1-6.9-6.9V28.073a6.917,6.917,0,0,1,2.6-5.4L6.9,19.28Z" transform="translate(0 13.961)" fill="#f29c1f" fill-rule="evenodd"/>
      <path id="Path-2" data-name="Path" d="M4,82.31V3.448A3.459,3.459,0,0,1,7.448,0h79.31a3.459,3.459,0,0,1,3.448,3.448V80.517Z" transform="translate(3)" fill="#ecf0f1" fill-rule="evenodd"/>
      <path id="Path-3" data-name="Path" d="M72.62,24.91V75.065a6.8,6.8,0,0,1-2.293,5.121L37.81,54.91Z" transform="translate(27.38 18.038)" fill="#f0c419" fill-rule="evenodd"/>
      <path id="Path-4" data-name="Path" d="M96.744,72.153a6.869,6.869,0,0,1-4.6,1.776H5.933a6.869,6.869,0,0,1-4.6-1.776L33.847,46.878,46.9,36.74a3.469,3.469,0,0,1,4.276,0L64.227,46.878Z" transform="translate(0.963 26.071)" fill="#f3d55b" fill-rule="evenodd"/>
      <path id="Path-5" data-name="Path" d="M34.81,54.91,2.293,80.186A6.8,6.8,0,0,1,0,75.065V24.91Z" transform="translate(0 18.038)" fill="#f0c419" fill-rule="evenodd"/>
      <g id="Group_2755" data-name="Group 2755" transform="translate(-1178 -341.803)">
        <circle id="Ellipse_259" data-name="Ellipse 259" cx="24" cy="24" r="24" transform="translate(1204 348.803)" fill="#28a800"/>
        <path id="Path_6" data-name="Path 6" d="M147.385,136.619a2.1,2.1,0,0,0-2.977,0l-9.038,9.037-3.775-3.774a2.105,2.105,0,0,0-2.977,2.977l5.263,5.263a2.1,2.1,0,0,0,2.977,0L147.385,139.6A2.1,2.1,0,0,0,147.385,136.619Z" transform="translate(1089.998 229.801)" fill="#fff"/>
      </g>
    </g>
  </g>
</svg>
