<svg xmlns="http://www.w3.org/2000/svg" width="19.031" height="19.031" viewBox="0 0 19.031 19.031">
  <g id="expand" transform="translate(0 0)">
    <path id="Path_1249" data-name="Path 1249" d="M21.069,15.5a1.193,1.193,0,0,0-1.193,1.193v1.193a1.989,1.989,0,0,1-1.989,1.989H16.693a1.193,1.193,0,0,0,0,2.387h1.193a4.38,4.38,0,0,0,4.376-4.376V16.693A1.193,1.193,0,0,0,21.069,15.5Z" transform="translate(-3.231 -3.231)" fill="#fff"/>
    <path id="Path_1250" data-name="Path 1250" d="M5.569,0H4.376A4.38,4.38,0,0,0,0,4.376V5.569a1.193,1.193,0,0,0,2.387,0V4.376A1.989,1.989,0,0,1,4.376,2.387H5.569A1.193,1.193,0,0,0,5.569,0Z" transform="translate(0 0)" fill="#fff"/>
    <path id="Path_1251" data-name="Path 1251" d="M5.569,19.876H4.376a1.989,1.989,0,0,1-1.989-1.989V16.693a1.193,1.193,0,0,0-2.387,0v1.193a4.38,4.38,0,0,0,4.376,4.376H5.569a1.193,1.193,0,1,0,0-2.387Z" transform="translate(0 -3.231)" fill="#fff"/>
    <path id="Path_1252" data-name="Path 1252" d="M17.887,0H16.693a1.193,1.193,0,0,0,0,2.387h1.193a1.989,1.989,0,0,1,1.989,1.989V5.569a1.193,1.193,0,1,0,2.387,0V4.376A4.38,4.38,0,0,0,17.887,0Z" transform="translate(-3.231 0)" fill="#fff"/>
  </g>
</svg>
