<svg xmlns="http://www.w3.org/2000/svg" width="15" height="14.433" viewBox="0 0 15 14.433">
  <g id="eye-crossed_1_" data-name="eye-crossed (1)" transform="translate(0 -9.619)">
    <path id="Path_1525" data-name="Path 1525" d="M14.4,14.879h0a9.613,9.613,0,0,0-1.721-1.9l1.77-1.769a.942.942,0,0,0-1.333-1.331l-2.039,2.04A7.878,7.878,0,0,0,7.5,11.087,8.319,8.319,0,0,0,.6,14.879a3.461,3.461,0,0,0,0,3.892,9.613,9.613,0,0,0,1.721,1.9L.55,22.443a.943.943,0,0,0,1.333,1.333l2.039-2.04a7.878,7.878,0,0,0,3.577.831,8.319,8.319,0,0,0,6.9-3.792A3.461,3.461,0,0,0,14.4,14.879ZM2.153,17.707a1.561,1.561,0,0,1,0-1.759A6.375,6.375,0,0,1,7.5,12.972a6.129,6.129,0,0,1,2.146.377L8.481,14.513a2.513,2.513,0,0,0-3.3,3.3L3.654,19.34A7.594,7.594,0,0,1,2.153,17.707Zm10.692,0A6.375,6.375,0,0,1,7.5,20.682a6.129,6.129,0,0,1-2.146-.377L6.518,19.14a2.513,2.513,0,0,0,3.3-3.3l1.531-1.531a7.6,7.6,0,0,1,1.5,1.634,1.561,1.561,0,0,1,0,1.759Z" fill="#6e6e6e"/>
  </g>
</svg>
