<svg xmlns="http://www.w3.org/2000/svg" width="15" height="11.479" viewBox="0 0 15 11.479">
  <g id="eye_3_" data-name="eye (3)" transform="translate(0 -59.773)">
    <path id="Path_1524" data-name="Path 1524" d="M14.4,63.565a8.315,8.315,0,0,0-6.9-3.792A8.315,8.315,0,0,0,.6,63.565a3.455,3.455,0,0,0,0,3.891,8.315,8.315,0,0,0,6.9,3.8,8.315,8.315,0,0,0,6.9-3.792A3.455,3.455,0,0,0,14.4,63.565Zm-1.553,2.827A6.376,6.376,0,0,1,7.5,69.368a6.376,6.376,0,0,1-5.346-2.975,1.563,1.563,0,0,1,0-1.759A6.376,6.376,0,0,1,7.5,61.658a6.376,6.376,0,0,1,5.346,2.975A1.563,1.563,0,0,1,12.846,66.392Z" transform="translate(0 0)" fill="#6e6e6e"/>
    <circle id="Ellipse_283" data-name="Ellipse 283" cx="2.521" cy="2.521" r="2.521" transform="translate(4.978 62.991)" fill="#6e6e6e"/>
  </g>
</svg>
