<svg xmlns="http://www.w3.org/2000/svg" width="20" height="17.951" viewBox="0 0 20 17.951">
  <g id="google-drive" transform="translate(-0.002 -0.001)">
    <path id="Path_1467" data-name="Path 1467" d="M161.6,570.64h-7.323l-3.136,5.474a2.716,2.716,0,0,0,1.083.315c2.881,0,8.76-.043,11.678-.043a1.551,1.551,0,0,0,.833-.262Z" transform="translate(-147.919 -558.477)" fill="#4185f3"/>
    <path id="Path_1468" data-name="Path 1468" d="M3.344,576.125l3.134-5.474H.127a2.33,2.33,0,0,0,.344,1.126c.59,1.1,1.59,2.871,2.176,3.793A3.056,3.056,0,0,0,3.344,576.125Z" transform="translate(-0.123 -558.486)" fill="#1767d1"/>
    <path id="Path_1469" data-name="Path 1469" d="M641.86,570.62l3.134,5.483a3.046,3.046,0,0,0,.952-1.044c.485-.849,1.306-2.264,1.872-3.221a2.287,2.287,0,0,0,.359-1.219Z" transform="translate(-628.178 -558.457)" fill="#e94235"/>
    <path id="Path_1470" data-name="Path 1470" d="M6.356,28.383l3.656-6.356L6.744,16.58a2.641,2.641,0,0,0-.793.788C4.525,19.869,1.652,25,.208,27.529a1.567,1.567,0,0,0-.2.854Z" transform="translate(0 -16.226)" fill="#30a753"/>
    <path id="Path_1471" data-name="Path 1471" d="M473.582,28.667l-3.662-6.356L473.1,16.87a3.079,3.079,0,0,1,.878.782c1.426,2.5,4.3,7.627,5.744,10.161a1.543,1.543,0,0,1,.18.854Z" transform="translate(-459.901 -16.509)" fill="#f9bc00"/>
    <path id="Path_1472" data-name="Path 1472" d="M316.52.355,319.788,5.8,322.965.361a2.747,2.747,0,0,0-1.243-.32C320.471,0,318.442-.018,317.35.03A2.882,2.882,0,0,0,316.52.355Z" transform="translate(-309.772 0)" fill="#0f8038"/>
  </g>
</svg>
