<svg xmlns="http://www.w3.org/2000/svg" width="130" height="105" viewBox="0 0 130 105">
  <g id="hands-raised" transform="translate(-5.001 -16.45)">
    <path id="Path_1577" data-name="Path 1577" d="M71.429,16.45,64.884,31.414,58.35,16.45Z" transform="translate(5.444)" fill="#fdc945"/>
    <path id="Path_1578" data-name="Path 1578" d="M50.023,22.08l6.512,14.975L41.12,31.666Z" transform="translate(3.686 0.574)" fill="#fdc945"/>
    <path id="Path_1579" data-name="Path 1579" d="M79.4,22.08,72.89,37.055l15.415-5.388Z" transform="translate(6.928 0.574)" fill="#fdc945"/>
    <path id="Path_1580" data-name="Path 1580" d="M125.745,50.467h-.066a3.779,3.779,0,0,0-4.54,2.755l-4.1,16.242a.224.224,0,1,1-.441-.077l2.6-23.139a4.132,4.132,0,0,0-3.581-4.551h-.088a4.132,4.132,0,0,0-4.628,3.57l-2.975,23.25a.286.286,0,0,1-.562,0V40.528a4.639,4.639,0,0,0-4.639-4.628h-.1a4.639,4.639,0,0,0-4.639,4.628V67.744a.154.154,0,0,1-.3,0l-1.7-23.36a4.319,4.319,0,0,0-4.606-3.967H91.3a4.33,4.33,0,0,0-4.044,4.529l1.4,29.63L88.3,77.683A3.372,3.372,0,0,1,83.7,80.427H83.62a22.512,22.512,0,0,0-8.374-1.62H73.185a6.182,6.182,0,0,0-5.509,3.416h0a1.73,1.73,0,0,0,1.1,2.424L73.5,86.1a6.457,6.457,0,0,1,2.843,1.774l4.408,4.716,3.229,4.562a14.192,14.192,0,0,0,4.848,4.3l2.611,1.421,1.6,5.862h23.547l2.016-3.1a10.534,10.534,0,0,0,1.609-4.242l3.118-21.1a6.885,6.885,0,0,0,.088-.948V77.6a7.626,7.626,0,0,1,.2-1.587l4.892-20.991a3.779,3.779,0,0,0-2.766-4.551Z" transform="translate(6.385 1.697)" fill="#f7c7b9"/>
    <rect id="Rectangle_2030" data-name="Rectangle 2030" width="30.853" height="15.426" rx="4" transform="translate(96.473 106.024)" fill="#6551f2"/>
    <path id="Path_1582" data-name="Path 1582" d="M7.909,50.467h.066a3.779,3.779,0,0,1,4.54,2.755l4.1,16.242a.224.224,0,1,0,.441-.077l-2.6-23.139A4.132,4.132,0,0,1,18.035,41.7h.088a4.132,4.132,0,0,1,4.628,3.57l2.975,23.25a.286.286,0,0,0,.562,0V40.528A4.639,4.639,0,0,1,30.927,35.9h.1a4.639,4.639,0,0,1,4.639,4.628V67.744a.154.154,0,0,0,.3,0l1.7-23.36a4.319,4.319,0,0,1,4.606-3.967h.088A4.33,4.33,0,0,1,46.4,44.946L45,74.576l.353,3.107a3.372,3.372,0,0,0,4.606,2.744h.077a22.512,22.512,0,0,1,8.374-1.62h2.061a6.182,6.182,0,0,1,5.509,3.416h0a1.73,1.73,0,0,1-1.1,2.424L60.149,86.1a6.457,6.457,0,0,0-2.843,1.774L52.9,92.592,49.67,97.153a14.192,14.192,0,0,1-4.848,4.3l-2.468,1.477-1.741,5.807H17.121l-2.016-3.1A10.534,10.534,0,0,1,13.5,101.4L10.322,80.273a6.887,6.887,0,0,1-.088-.948V77.573a7.625,7.625,0,0,0-.2-1.587L5.1,55a3.779,3.779,0,0,1,2.81-4.529Z" transform="translate(0 1.697)" fill="#f7c7b9"/>
    <rect id="Rectangle_2031" data-name="Rectangle 2031" width="30.853" height="15.426" rx="4" transform="translate(12.713 106.024)" fill="#6551f2"/>
  </g>
</svg>
