<svg xmlns="http://www.w3.org/2000/svg" width="16" height="16" viewBox="0 0 16 16">
  <path id="link-alt" d="M5.266,10.739A1,1,0,0,1,6.68,9.325a2.4,2.4,0,0,0,3.311,0L13.319,6a2.342,2.342,0,0,0-3.311-3.311A1,1,0,1,1,8.593,1.273a4.342,4.342,0,1,1,6.14,6.14l-3.327,3.327a4.347,4.347,0,0,1-6.14,0ZM4.343,16a4.33,4.33,0,0,0,3.07-1.27A1,1,0,1,0,6,13.319a2.342,2.342,0,0,1-3.311-3.311L6,6.7a2.343,2.343,0,0,1,3.311,0,1,1,0,0,0,1.414-1.414,4.346,4.346,0,0,0-6.14,0L1.273,8.593A4.34,4.34,0,0,0,4.343,16Z" transform="translate(-0.003 -0.003)" fill="#6e6e6e"/>
</svg>
