<svg xmlns="http://www.w3.org/2000/svg" width="14" height="16" viewBox="0 0 14 16">
  <g id="marker" transform="translate(-1.5)">
    <path id="Path_1494" data-name="Path 1494" d="M8.5,0a7.009,7.009,0,0,0-7,7c0,1.884,1.467,4.511,4.361,7.806a3.517,3.517,0,0,0,5.28,0C14.034,11.512,15.5,8.885,15.5,7A7.009,7.009,0,0,0,8.5,0ZM9.638,13.488a1.553,1.553,0,0,1-2.275,0C4.907,10.691,3.5,8.326,3.5,7a5,5,0,1,1,10,0C13.5,8.326,12.093,10.691,9.638,13.488Z" fill="#6e6e6e"/>
    <path id="Path_1495" data-name="Path 1495" d="M10.546,6.055a2.909,2.909,0,1,0,2.909,2.909,2.909,2.909,0,0,0-2.909-2.909Zm0,3.817a.909.909,0,1,1,.909-.909A.909.909,0,0,1,10.546,9.872Z" transform="translate(-2.046 -2.018)" fill="#6e6e6e"/>
  </g>
</svg>
