<svg xmlns="http://www.w3.org/2000/svg" width="18" height="15.75" viewBox="0 0 18 15.75">
  <path id="media" d="M7.5,5.875A1.125,1.125,0,1,1,8.625,7,1.123,1.123,0,0,1,7.5,5.875ZM18,5.125v3.75A4.132,4.132,0,0,1,13.875,13h-6A4.132,4.132,0,0,1,3.75,8.875V5.125A4.132,4.132,0,0,1,7.875,1h6A4.132,4.132,0,0,1,18,5.125ZM6,8.875a1.879,1.879,0,0,0,1.073,1.7l3.21-3.21a1.2,1.2,0,0,1,1.695,0l.78.78a1.2,1.2,0,0,0,1.695,0l1.29-1.29V5.133a1.876,1.876,0,0,0-1.875-1.875H7.875A1.876,1.876,0,0,0,6,5.133v3.75ZM12.375,14.5H4.125A1.876,1.876,0,0,1,2.25,12.625V7.375a1.125,1.125,0,0,0-2.25,0v5.25A4.132,4.132,0,0,0,4.125,16.75h8.25a1.125,1.125,0,0,0,0-2.25Z" transform="translate(0 -1)" fill="#a2a2a2"/>
</svg>
