<svg xmlns="http://www.w3.org/2000/svg" width="18.684" height="24.001" viewBox="0 0 18.684 24.001">
  <g id="Group_2701" data-name="Group 2701" transform="translate(-809.622 -524.872)">
    <path id="Path_1240" data-name="Path 1240" d="M818.49,541.535a5.332,5.332,0,0,0,4.727-5.38q0-1.462,0-2.924,0-1.49,0-2.98a5.649,5.649,0,0,0-.164-1.361,5.268,5.268,0,0,0-10.379,1.444q0,2.908,0,5.819a6.237,6.237,0,0,0,.107,1.145A5.334,5.334,0,0,0,818.49,541.535Zm1.025-8.438a.651.651,0,0,1-.681.54,3.729,3.729,0,0,1-.667-.064,3.172,3.172,0,0,0-1.057.064.679.679,0,0,1-.4-1.3,3.1,3.1,0,0,1,.429-.121,2.544,2.544,0,0,1,.667-.067,3.164,3.164,0,0,1,1.231.22A.642.642,0,0,1,819.516,533.1Zm-3.989-2.385a.7.7,0,0,1,.475-.571,5.7,5.7,0,0,1,1.775-.237,8.068,8.068,0,0,1,2.009.3.475.475,0,0,1,.283.739.83.83,0,0,1-.985.392,3.331,3.331,0,0,0-2.537.02C816.177,531.505,815.409,531.133,815.526,530.712Z" transform="translate(1.017 0)" fill="#fff"/>
    <path id="Path_1241" data-name="Path 1241" d="M828.294,533.534c0-.552.013-1.02-.005-1.488a.8.8,0,0,0-.831-.777.8.8,0,0,0-.816.761c-.024.608-.012,1.217-.015,1.825a8.305,8.305,0,0,1-.2,1.895,7.628,7.628,0,0,1-11.29,4.9,7.5,7.5,0,0,1-3.837-6.714c-.011-.637.011-1.275-.015-1.911a.8.8,0,0,0-.825-.753.785.785,0,0,0-.817.758,21.438,21.438,0,0,0,.107,3.533,9.373,9.373,0,0,0,8.151,7.793c.177.02.231.077.228.257-.011.74-.008,1.48,0,2.22a.842.842,0,1,0,1.679-.011c0-.645,0-1.292,0-1.939,0-.476,0-.468.461-.537a9.07,9.07,0,0,0,6.891-4.784A9.324,9.324,0,0,0,828.294,533.534Z" transform="translate(0 2.133)" fill="#fff"/>
  </g>
</svg>
