<svg id="monitor" xmlns="http://www.w3.org/2000/svg" width="27.5" height="25" viewBox="0 0 27.5 25">
  <path id="Path_1480" data-name="Path 1480" d="M5.25,3h20A3.754,3.754,0,0,1,29,6.75v12.5A3.754,3.754,0,0,1,25.25,23h-20A3.754,3.754,0,0,1,1.5,19.25V6.75A3.754,3.754,0,0,1,5.25,3Zm20,17.5a1.251,1.251,0,0,0,1.25-1.25V6.75A1.251,1.251,0,0,0,25.25,5.5h-20A1.251,1.251,0,0,0,4,6.75v12.5A1.251,1.251,0,0,0,5.25,20.5Z" transform="translate(-1.5 -3)" fill="#a2a2a2"/>
  <path id="Path_1481" data-name="Path 1481" d="M21.75,32.5h-10a1.25,1.25,0,1,1,0-2.5h10a1.25,1.25,0,1,1,0,2.5Z" transform="translate(-3 -7.5)" fill="#a2a2a2"/>
  <path id="Path_1482" data-name="Path 1482" d="M17.75,31.5a1.25,1.25,0,0,1-1.25-1.25v-5a1.25,1.25,0,1,1,2.5,0v5A1.25,1.25,0,0,1,17.75,31.5Z" transform="translate(-4 -6.5)" fill="#a2a2a2"/>
</svg>
