<svg xmlns="http://www.w3.org/2000/svg" width="270" height="97.217" viewBox="0 0 270 97.217">
  <g id="notification-empty" transform="translate(-680.396 -444)">
    <path id="Path_1637" data-name="Path 1637" d="M292.836,21.62a36.144,36.144,0,0,0-9.719-7.649l4.527-9.4A3.181,3.181,0,0,0,286.166.318h0A3.179,3.179,0,0,0,281.923,1.8l-4.614,9.571c-12.144-4.336-26.161-3-34.774,4.673a27.957,27.957,0,0,0-6.906,9.424l-18.8,34.774L203.64,63.421,234.516,79.4a10.282,10.282,0,1,0,17.809,9.219l13.689,1.372,13.125,1.886,15.634-31.107c.316-.574.605-1.16.882-1.753l.116-.229h0C300.961,47.313,302.629,32.633,292.836,21.62Z" transform="translate(506.307 443.997)" fill="#6551f2"/>
    <path id="Path_1638" data-name="Path 1638" d="M495.62,175.4V107.253a2.964,2.964,0,0,1,3.037-2.893H612.073a2.962,2.962,0,0,1,3.037,2.893V175.4" transform="translate(284.773 364.83)" fill="#fff"/>
    <path id="Path_1638_-_Outline" data-name="Path 1638 - Outline" d="M615.1,176.378a.99.99,0,0,1-.99-.99V107.243a1.981,1.981,0,0,0-2.047-1.9H498.647a1.981,1.981,0,0,0-2.047,1.9v68.145a.99.99,0,1,1-1.98,0V107.243a3.962,3.962,0,0,1,4.027-3.883H612.064a3.962,3.962,0,0,1,4.027,3.883v68.145A.99.99,0,0,1,615.1,176.378Z" transform="translate(284.783 364.84)" fill="#2e186a"/>
    <path id="Path_1639" data-name="Path 1639" d="M962.51,104.33a2.893,2.893,0,0,1,2.893,2.893v68.145" transform="translate(-69.561 364.853)" fill="#fff"/>
    <path id="Path_1639_-_Outline" data-name="Path 1639 - Outline" d="M965.393,176.348a.99.99,0,0,1-.99-.99V107.213a1.9,1.9,0,0,0-1.9-1.9.99.99,0,1,1,0-1.98,3.887,3.887,0,0,1,3.883,3.883v68.145A.99.99,0,0,1,965.393,176.348Z" transform="translate(-69.551 364.863)" fill="#2e186a"/>
    <rect id="Rectangle_2068" data-name="Rectangle 2068" width="41.762" height="18.992" rx="3" transform="translate(845.608 514.659)" fill="#6551f2" opacity="0.7"/>
    <path id="Line_1" data-name="Line 1" d="M25.532.98H-.01A.99.99,0,0,1-1-.01.99.99,0,0,1-.01-1H25.532a.99.99,0,0,1,.99.99A.99.99,0,0,1,25.532.98Z" transform="translate(853.03 521.46)" fill="#fff"/>
    <path id="Line_2" data-name="Line 2" d="M20.581.98H-.01A.99.99,0,0,1-1-.01.99.99,0,0,1-.01-1h20.59a.99.99,0,0,1,.99.99A.99.99,0,0,1,20.581.98Z" transform="translate(853.029 526.75)" fill="#fff"/>
    <path id="Path_1640" data-name="Path 1640" d="M555.778,145.3a3.637,3.637,0,0,1-2.05-.636l-54.55-36.748a.99.99,0,1,1,1.106-1.642l54.554,36.75a1.654,1.654,0,0,0,1.874,0l54.262-36.553a.99.99,0,0,1,1.106,1.642l-54.258,36.55A3.627,3.627,0,0,1,555.778,145.3Z" transform="translate(281.654 362.74)" fill="#2e186a"/>
    <g id="notification_counter" data-name="notification counter" transform="translate(752.319 495.525)">
      <circle id="Ellipse_335" data-name="Ellipse 335" cx="22.213" cy="22.213" r="22.213" transform="translate(0 0)" fill="#ff9926"/>
      <path id="Path_1641" data-name="Path 1641" d="M11.783-24V-.235H6.77V-17.85H6.55a3.907,3.907,0,0,1-1.625,1.178,7.566,7.566,0,0,1-3.214.586v-3.992a5.171,5.171,0,0,0,2.68-.679,5.7,5.7,0,0,0,1.8-1.6A3.151,3.151,0,0,0,6.863-24Z" transform="translate(15.123 33.902)" fill="#fff"/>
    </g>
    <path id="Line_3" data-name="Line 3" d="M288.009.98H19.991A.99.99,0,0,1,19-.01.99.99,0,0,1,19.991-1H288.009A.99.99,0,0,1,289-.01.99.99,0,0,1,288.009.98Z" transform="translate(661.396 540.177)" fill="#2e186a"/>
  </g>
</svg>
