<svg xmlns="http://www.w3.org/2000/svg" width="14" height="13.995" viewBox="0 0 14 13.995">
  <g id="pencil" transform="translate(-143.265 -4.296)">
    <g id="Group_2789" data-name="Group 2789" transform="translate(143.265 4.296)">
      <g id="Group_2788" data-name="Group 2788">
        <path id="Path_1561" data-name="Path 1561" d="M156.209,5.347a3.635,3.635,0,0,0-5.1-.009l-6.393,6.393a4.928,4.928,0,0,0-1.447,3.5v2.115a.943.943,0,0,0,.944.944h2.115a4.929,4.929,0,0,0,3.5-1.448l6.385-6.385A3.622,3.622,0,0,0,156.209,5.347Zm-7.718,10.16a3.051,3.051,0,0,1-2.166.9h-1.171V15.231a3.051,3.051,0,0,1,.894-2.165l4.215-4.215,2.442,2.442Zm6.383-6.383-.834.834L151.6,7.516l.834-.834a1.727,1.727,0,0,1,2.442,2.442Z" transform="translate(-143.265 -4.296)" fill="#6e6e6e"/>
      </g>
    </g>
  </g>
</svg>
