<svg xmlns="http://www.w3.org/2000/svg" width="14" height="14.004" viewBox="0 0 14 14.004">
  <path id="pencil-solid_1_" data-name="pencil-solid (1)" d="M11.242,6.276l.309-.309-.928-.928-1.7-1.7L8,2.41l-.309.309-.619.619L1.613,8.792a2.428,2.428,0,0,0-.608,1.024l-.969,3.3a.649.649,0,0,0,.167.649.663.663,0,0,0,.649.167l3.294-.969a2.428,2.428,0,0,0,1.024-.608L10.623,6.9ZM4.389,10.887l-.249.622a1.155,1.155,0,0,1-.364.189l-2.141.63.63-2.138a1.05,1.05,0,0,1,.189-.364l.622-.249v.876a.439.439,0,0,0,.438.438h.876ZM9.939.463l-.394.4-.619.619-.312.309.928.928,1.7,1.7.928.928.309-.309.619-.619.4-.4a1.752,1.752,0,0,0,0-2.478L12.419.463a1.752,1.752,0,0,0-2.478,0Zm-1.3,4.6L4.7,9.006a.438.438,0,0,1-.619-.619L8.022,4.444a.438.438,0,1,1,.619.619Z" transform="translate(-0.009 0.05)" fill="#3c3c3c"/>
</svg>
