<svg xmlns="http://www.w3.org/2000/svg" width="13.51" height="14" viewBox="0 0 13.51 14">
  <g id="Group_2999" data-name="Group 2999" transform="translate(0.002)">
    <path id="Path_1589" data-name="Path 1589" d="M.855,4.319H6.994a3.346,3.346,0,0,0,3.2,2.545,3.378,3.378,0,0,0,3.313-3.432A3.377,3.377,0,0,0,10.194,0a3.345,3.345,0,0,0-3.2,2.546H.855a.887.887,0,0,0,0,1.773ZM8.594,3.43a1.6,1.6,0,1,1,3.2,0,1.6,1.6,0,1,1-3.2,0Z" fill="#3c3c3c"/>
    <path id="Path_1590" data-name="Path 1590" d="M12.65,9.681H6.513a3.346,3.346,0,0,0-3.2-2.545h0a3.435,3.435,0,0,0,0,6.865,3.347,3.347,0,0,0,3.2-2.546H12.65a.887.887,0,0,0,0-1.773ZM3.313,12.227a1.66,1.66,0,0,1,0-3.318,1.66,1.66,0,0,1,0,3.318Z" fill="#3c3c3c"/>
  </g>
</svg>
