<svg xmlns="http://www.w3.org/2000/svg" width="16" height="16" viewBox="0 0 16 16">
  <g id="rotate-right" transform="translate(-1.152 0)">
    <path id="Path_1229" data-name="Path 1229" d="M16.145,7.992a1.014,1.014,0,0,0-1,.881,6.02,6.02,0,1,1-2.055-5.443l-.758.754a.667.667,0,0,0,.476,1.139h3.074a.669.669,0,0,0,.67-.667V1.595a.671.671,0,0,0-1.144-.472l-.893.889a8.062,8.062,0,0,0-11.344.683,7.975,7.975,0,0,0,.686,11.293,8.038,8.038,0,0,0,13.28-4.825,1.014,1.014,0,0,0-.994-1.17Z" fill="#a2a2a2"/>
  </g>
</svg>
