<svg id="sign-out-alt" xmlns="http://www.w3.org/2000/svg" width="15.722" height="16" viewBox="0 0 15.722 16">
  <path id="Path_1578" data-name="Path 1578" d="M7.667,10.667a1,1,0,0,0-1,1V12.2a1.8,1.8,0,0,1-1.8,1.8H3.8A1.8,1.8,0,0,1,2,12.2V3.8A1.8,1.8,0,0,1,3.8,2H4.867a1.8,1.8,0,0,1,1.8,1.8v.533a1,1,0,0,0,2,0V3.8A3.8,3.8,0,0,0,4.867,0H3.8A3.8,3.8,0,0,0,0,3.8v8.4A3.8,3.8,0,0,0,3.8,16H4.867a3.8,3.8,0,0,0,3.8-3.8v-.533A1,1,0,0,0,7.667,10.667Z"/>
  <path id="Path_1579" data-name="Path 1579" d="M16.874,7.85,13.817,4.793A1,1,0,1,0,12.4,6.207l2.274,2.274L6.5,8.5a1,1,0,0,0,0,2h0l8.212-.019L12.4,12.793a1,1,0,0,0,1.414,1.415l3.057-3.057A2.337,2.337,0,0,0,16.874,7.85Z" transform="translate(-1.833 -1.5)"/>
</svg>
