<svg xmlns="http://www.w3.org/2000/svg" width="16" height="15.167" viewBox="0 0 16 15.167">
  <g id="settings-sliders_1_" data-name="settings-sliders (1)" transform="translate(0 -13.326)">
    <path id="Path_1491" data-name="Path 1491" d="M7.133,14.66a2.321,2.321,0,0,0-4.2,0H1a1,1,0,0,0-1,1H0a1,1,0,0,0,1,1H2.93a2.321,2.321,0,0,0,4.2,0H15a1,1,0,0,0,1-1h0a1,1,0,0,0-1-1Z" transform="translate(0 0)" fill="#6e6e6e"/>
    <path id="Path_1492" data-name="Path 1492" d="M10.97,181.333a2.328,2.328,0,0,0-2.1,1.333H1a1,1,0,0,0-1,1H0a1,1,0,0,0,1,1H8.867a2.321,2.321,0,0,0,4.2,0H15a1,1,0,0,0,1-1h0a1,1,0,0,0-1-1H13.07A2.328,2.328,0,0,0,10.97,181.333Z" transform="translate(0 -162.757)" fill="#6e6e6e"/>
    <path id="Path_1493" data-name="Path 1493" d="M5.03,349.333a2.328,2.328,0,0,0-2.1,1.333H1a1,1,0,0,0-1,1H0a1,1,0,0,0,1,1H2.93a2.321,2.321,0,0,0,4.2,0H15a1,1,0,0,0,1-1h0a1,1,0,0,0-1-1H7.133A2.328,2.328,0,0,0,5.03,349.333Z" transform="translate(0 -325.507)" fill="#6e6e6e"/>
  </g>
</svg>
