<svg xmlns="http://www.w3.org/2000/svg" width="26.041" height="25" viewBox="0 0 26.041 25">
  <path id="Icon_awesome-star" data-name="Icon awesome-star" d="M12.154.8,9.225,6.738l-6.554.956a1.436,1.436,0,0,0-.794,2.449l4.742,4.621L5.5,21.29A1.435,1.435,0,0,0,7.578,22.8l5.863-3.082L19.3,22.8a1.436,1.436,0,0,0,2.081-1.512l-1.122-6.527,4.742-4.621a1.436,1.436,0,0,0-.794-2.449l-6.554-.956L14.729.8a1.437,1.437,0,0,0-2.575,0Z" transform="translate(-0.421 1.001)" fill="#fff" stroke="#a2a2a2" stroke-width="2"/>
</svg>
