<svg xmlns="http://www.w3.org/2000/svg" width="21.875" height="25" viewBox="0 0 21.875 25">
  <path id="Icon_awesome-tablet-alt" data-name="Icon awesome-tablet-alt" d="M19.531,0H2.344A2.344,2.344,0,0,0,0,2.344V22.656A2.344,2.344,0,0,0,2.344,25H19.531a2.344,2.344,0,0,0,2.344-2.344V2.344A2.344,2.344,0,0,0,19.531,0ZM10.938,23.438A1.563,1.563,0,1,1,12.5,21.875,1.561,1.561,0,0,1,10.938,23.438Zm8.594-5.273a.588.588,0,0,1-.586.586H2.93a.588.588,0,0,1-.586-.586V2.93a.588.588,0,0,1,.586-.586H18.945a.588.588,0,0,1,.586.586Z" fill="#a2a2a2"/>
</svg>
