<svg xmlns="http://www.w3.org/2000/svg" width="16" height="14.667" viewBox="0 0 16 14.667">
  <path id="folder-upload" d="M16,5.654v6a3.671,3.671,0,0,1-3.667,3.667h-.667a1,1,0,0,1,0-2h.667A1.669,1.669,0,0,0,14,11.654v-6a1.663,1.663,0,0,0-.034-.333H2v6.333a1.669,1.669,0,0,0,1.667,1.667h.667a1,1,0,0,1,0,2H3.667A3.671,3.671,0,0,1,0,11.654V4.321A3.671,3.671,0,0,1,3.667.654H5.352A2.349,2.349,0,0,1,6.4.9L8.5,1.951a.329.329,0,0,0,.149.036h3.685A3.671,3.671,0,0,1,16,5.654ZM10.581,9.515,8.472,7.407a.666.666,0,0,0-.943,0L5.421,9.515a.667.667,0,0,0,.471,1.138H7v3.667a1,1,0,0,0,2,0V10.653H10.11a.667.667,0,0,0,.471-1.138Z" transform="translate(0 -0.654)" fill="#6e6e6e"/>
</svg>
