<svg xmlns="http://www.w3.org/2000/svg" width="16" height="12" viewBox="0 0 16 12">
  <path id="video-camera-alt" d="M15.283,4.8a1.289,1.289,0,0,0-1.358.122l-1.3,1.255A3.67,3.67,0,0,0,9,3H3.667A3.671,3.671,0,0,0,0,6.667v4.667A3.671,3.671,0,0,0,3.667,15H9a3.67,3.67,0,0,0,3.627-3.157l1.3,1.231a1.291,1.291,0,0,0,1.43.084A1.384,1.384,0,0,0,16,11.947V5.956A1.289,1.289,0,0,0,15.283,4.8Zm-4.617,6.537A1.668,1.668,0,0,1,9,13H3.667A1.669,1.669,0,0,1,2,11.333V6.667A1.669,1.669,0,0,1,3.667,5H9a1.668,1.668,0,0,1,1.667,1.667v4.667Z" transform="translate(0 -3)" fill="#a2a2a2"/>
</svg>
