<svg width="512" height="512" viewBox="0 0 512 512" fill="none" xmlns="http://www.w3.org/2000/svg">
<g clip-path="url(#clip0_1797_2876)">
<g clip-path="url(#clip1_1797_2876)">
<circle cx="256" cy="256" r="256" fill="url(#paint0_linear_1797_2876)"/>
<g filter="url(#filter0_d_1797_2876)">
<path d="M144.998 261.852C160.963 261.852 176.928 261.852 192.894 261.852C194.546 261.852 194.546 261.852 194.546 263.504C193.995 270.11 193.445 276.166 192.344 282.773C191.794 288.828 191.243 294.884 190.692 300.94C190.142 308.097 189.041 315.254 188.49 321.861C187.94 327.917 187.389 333.973 186.839 340.028C186.839 342.231 186.288 344.433 186.288 347.185C185.187 358.747 192.895 369.207 204.456 371.409C205.557 371.409 206.658 371.96 207.759 371.96C216.568 371.96 225.376 371.96 234.184 371.96C245.195 371.96 254.004 364.252 255.656 353.792C256.206 351.039 256.206 347.736 256.757 344.983C257.308 339.478 257.858 334.523 258.409 329.018C258.959 324.063 259.51 318.557 260.06 313.603C260.611 308.648 261.161 303.142 261.711 298.188C262.262 293.783 262.813 289.93 262.813 285.525C263.363 280.02 263.913 275.065 264.464 269.56C264.464 267.357 265.015 265.155 265.015 262.403C265.015 261.852 265.014 261.302 266.116 261.302C266.666 261.302 266.666 261.302 267.217 261.302C282.632 261.302 298.047 261.302 313.462 261.302C322.271 261.302 330.529 255.796 333.832 246.988C334.383 244.785 334.933 242.583 335.484 240.381C336.585 233.775 337.686 227.168 339.338 220.562C341.54 209.001 333.282 197.439 321.72 195.237C320.619 195.237 318.968 194.687 317.867 194.687C293.092 194.687 268.318 194.687 243.544 194.687C229.781 194.687 217.669 190.282 207.759 180.373C200.052 172.665 195.097 163.856 193.445 153.396C192.895 150.644 192.894 147.34 192.894 144.588C192.894 141.835 192.894 139.082 192.894 136.33C193.445 126.42 197.298 118.162 203.905 111.005C208.309 106.601 213.265 102.747 218.77 100.545C220.972 99.4435 222.623 99.4435 224.825 98.893C236.937 96.6908 248.498 95.5898 260.61 96.1403C288.137 97.2414 313.462 104.398 337.135 118.712C370.168 139.082 393.29 167.16 406.503 203.495C409.806 212.854 412.009 222.764 413.66 232.674C415.312 243.684 415.862 255.246 414.761 266.256C412.008 302.592 398.796 333.973 375.123 361.499C354.202 385.173 328.326 401.138 297.496 409.947C289.789 412.149 282.081 413.25 274.374 414.351C265.565 415.452 256.756 416.003 247.948 415.452C213.814 413.801 182.985 402.239 156.009 381.319C131.234 361.499 113.617 336.175 103.708 306.446C100.404 296.536 98.2021 286.626 97.1011 276.166C96.5505 271.762 96 267.908 96 263.504C96 261.852 96 261.852 97.6516 261.852C113.067 261.852 129.032 261.852 144.998 261.852Z" fill="white"/>
</g>
</g>
</g>
<defs>
<filter id="filter0_d_1797_2876" x="92" y="94" width="327.334" height="327.668" filterUnits="userSpaceOnUse" color-interpolation-filters="sRGB">
<feFlood flood-opacity="0" result="BackgroundImageFix"/>
<feColorMatrix in="SourceAlpha" type="matrix" values="0 0 0 0 0 0 0 0 0 0 0 0 0 0 0 0 0 0 127 0" result="hardAlpha"/>
<feOffset dy="2"/>
<feGaussianBlur stdDeviation="2"/>
<feComposite in2="hardAlpha" operator="out"/>
<feColorMatrix type="matrix" values="0 0 0 0 0.0627451 0 0 0 0 0.0941176 0 0 0 0 0.156863 0 0 0 0.08 0"/>
<feBlend mode="normal" in2="BackgroundImageFix" result="effect1_dropShadow_1797_2876"/>
<feBlend mode="normal" in="SourceGraphic" in2="effect1_dropShadow_1797_2876" result="shape"/>
</filter>
<linearGradient id="paint0_linear_1797_2876" x1="397.128" y1="420.103" x2="36.1026" y2="85.3333" gradientUnits="userSpaceOnUse">
<stop stop-color="#F9D423"/>
<stop offset="1" stop-color="#E14FAD"/>
</linearGradient>
<clipPath id="clip0_1797_2876">
<rect width="512" height="512" fill="white"/>
</clipPath>
<clipPath id="clip1_1797_2876">
<rect width="512" height="512" fill="white"/>
</clipPath>
</defs>
</svg>
