<svg width="20" height="20" viewBox="0 0 20 20" fill="none" xmlns="http://www.w3.org/2000/svg">
<path d="M1.25537 2.9668L8.89518 7.5892V18.7336C8.89518 18.9114 8.69851 19.0188 8.54897 18.9227L1.25537 14.2338V2.9668Z" fill="white"/>
<path fill-rule="evenodd" clip-rule="evenodd" d="M1.25537 2.9668V14.2338L8.54897 18.9227C8.69851 19.0188 8.89518 18.9114 8.89518 18.7336V7.5892L1.25537 2.9668ZM2.60357 5.35828V13.4978L7.54698 16.6757V8.34925L2.60357 5.35828Z" fill="#6C3AF8"/>
<path d="M17.8833 9.25977L10.2435 14.0533V18.7403C10.2435 18.917 10.438 19.0246 10.5876 18.9307L17.8833 14.353V9.25977Z" fill="white"/>
<path fill-rule="evenodd" clip-rule="evenodd" d="M17.8833 9.25977V14.353L10.5876 18.9307C10.438 19.0246 10.2435 18.917 10.2435 18.7403V14.0533L17.8833 9.25977ZM16.5351 11.6973V13.6073L11.5917 16.709V14.799L16.5351 11.6973Z" fill="#6C3AF8"/>
<path d="M17.8833 3.41699L10.2435 7.46142V15.5506L17.8833 10.9908V3.41699Z" fill="white"/>
<path fill-rule="evenodd" clip-rule="evenodd" d="M17.8833 3.41699V10.9908L10.2435 15.5506V7.46142L17.8833 3.41699ZM16.5351 5.65618V10.2254L11.5917 13.1759V8.27316L16.5351 5.65618Z" fill="#6C3AF8"/>
<path fill-rule="evenodd" clip-rule="evenodd" d="M6.14639 1.20306C6.29014 1.54648 6.12827 1.94141 5.78484 2.08516L2.18964 3.59004C1.84622 3.73379 1.45128 3.57192 1.30753 3.2285C1.16378 2.88507 1.32565 2.49014 1.66907 2.34639L5.26428 0.841514C5.6077 0.697764 6.00264 0.859631 6.14639 1.20306Z" fill="#6C3AF8"/>
<path fill-rule="evenodd" clip-rule="evenodd" d="M17.8015 3.73913C17.6237 4.06622 17.2144 4.18725 16.8873 4.00945L13.2921 2.05517C12.965 1.87737 12.844 1.46807 13.0218 1.14097C13.1996 0.81388 13.6089 0.692854 13.936 0.870656L17.5312 2.82493C17.8583 3.00274 17.9793 3.41204 17.8015 3.73913Z" fill="#6C3AF8"/>
</svg>
