<svg width="125" height="31" viewBox="0 0 125 31" fill="none" xmlns="http://www.w3.org/2000/svg">
<mask id="mask0_1797_2894" style="mask-type:luminance" maskUnits="userSpaceOnUse" x="0" y="0" width="125" height="31">
<path d="M125 0H0V30.0388H125V0Z" fill="white"/>
</mask>
<g mask="url(#mask0_1797_2894)">
<circle cx="15" cy="15" r="15" fill="url(#paint0_linear_1797_2894)"/>
<g filter="url(#filter0_d_1797_2894)">
<path d="M8.03488 15.2727C9.02377 15.2727 10.0126 15.2727 11.0015 15.2727C11.1038 15.2727 11.1038 15.2727 11.1038 15.375C11.0697 15.7842 11.0357 16.1593 10.9675 16.5685C10.9334 16.9436 10.8993 17.3187 10.8652 17.6938C10.8311 18.1371 10.7629 18.5804 10.7288 18.9896C10.6947 19.3647 10.6606 19.7398 10.6265 20.1149C10.6265 20.2513 10.5923 20.3877 10.5923 20.5582C10.5241 21.2743 11.0016 21.9222 11.7177 22.0586C11.7859 22.0586 11.854 22.0927 11.9222 22.0927C12.4678 22.0927 13.0134 22.0927 13.559 22.0927C14.241 22.0927 14.7866 21.6153 14.8889 20.9674C14.923 20.7969 14.923 20.5923 14.9571 20.4218C14.9912 20.0808 15.0253 19.7739 15.0594 19.4329C15.0935 19.126 15.1276 18.785 15.1617 18.4781C15.1958 18.1712 15.2299 17.8302 15.264 17.5233C15.2981 17.2505 15.3322 17.0118 15.3322 16.739C15.3663 16.398 15.4004 16.0911 15.4345 15.7501C15.4345 15.6137 15.4686 15.4773 15.4686 15.3068C15.4686 15.2727 15.4686 15.2386 15.5368 15.2386C15.5709 15.2386 15.5709 15.2386 15.605 15.2386C16.5598 15.2386 17.5146 15.2386 18.4694 15.2386C19.015 15.2386 19.5265 14.8976 19.7311 14.352C19.7652 14.2156 19.7993 14.0792 19.8334 13.9428C19.9016 13.5336 19.9698 13.1244 20.0721 12.7152C20.2085 11.9991 19.697 11.283 18.9809 11.1466C18.9127 11.1466 18.8104 11.1125 18.7422 11.1125C17.2077 11.1125 15.6732 11.1125 14.1387 11.1125C13.2862 11.1125 12.536 10.8397 11.9222 10.226C11.4449 9.74856 11.138 9.20296 11.0357 8.55506C11.0016 8.38457 11.0015 8.17997 11.0015 8.00947C11.0015 7.83897 11.0015 7.66847 11.0015 7.49797C11.0356 6.88418 11.2743 6.37268 11.6835 5.92938C11.9563 5.65659 12.2632 5.41789 12.6042 5.28149C12.7406 5.21329 12.8429 5.21329 12.9793 5.17919C13.7295 5.04279 14.4456 4.97459 15.1958 5.00869C16.9008 5.07689 18.4694 5.52019 19.9357 6.40678C21.9817 7.66847 23.4138 9.40756 24.2322 11.6581C24.4368 12.2378 24.5733 12.8516 24.6756 13.4654C24.7779 14.1474 24.8119 14.8635 24.7437 15.5455C24.5732 17.7961 23.7549 19.7398 22.2886 21.4448C20.9928 22.9111 19.3901 23.9 17.4805 24.4456C17.0031 24.582 16.5257 24.6501 16.0483 24.7183C15.5027 24.7865 14.9571 24.8207 14.4115 24.7866C12.2973 24.6843 10.3878 23.9682 8.71687 22.6724C7.18238 21.4448 6.09119 19.8762 5.4774 18.0348C5.2728 17.421 5.1364 16.8072 5.0682 16.1593C5.0341 15.8865 5 15.6478 5 15.375C5 15.2727 5 15.2727 5.1023 15.2727C6.05709 15.2727 7.04598 15.2727 8.03488 15.2727Z" fill="white"/>
</g>
<path d="M120.446 9.94824C121.253 9.94824 121.964 9.98054 122.674 10.0774C123.353 10.142 124.031 10.2712 124.645 10.465V23.7079H121.609V20.1549C121.318 20.1872 121.059 20.2195 120.833 20.2195C120.607 20.2195 120.381 20.2518 120.187 20.2518C119.412 20.2518 118.702 20.1226 118.023 19.8642C117.377 19.6058 116.796 19.2182 116.311 18.766C115.827 18.3138 115.439 17.7647 115.181 17.151C114.922 16.5374 114.793 15.8268 114.793 15.1162C114.793 14.3733 114.922 13.695 115.181 13.0813C115.439 12.4676 115.827 11.9185 116.311 11.4663C116.796 11.0141 117.41 10.6588 118.088 10.4004C118.798 10.0774 119.574 9.94824 120.446 9.94824ZM117.926 15.0839C117.926 15.4715 117.991 15.8268 118.12 16.1175C118.249 16.3759 118.443 16.602 118.669 16.7957C118.895 16.9895 119.186 17.1187 119.477 17.1833C119.767 17.2479 120.123 17.3125 120.478 17.3125C120.866 17.3125 121.253 17.2479 121.673 17.151V13.049C121.286 12.9521 120.866 12.8875 120.478 12.8875C120.123 12.8875 119.8 12.9198 119.477 13.0167C119.186 13.0813 118.895 13.2105 118.669 13.4043C118.443 13.5658 118.282 13.7919 118.12 14.0826C117.959 14.341 117.926 14.6963 117.926 15.0839Z" fill="#090928"/>
<path d="M110.142 10.3359H113.178V20.0258H110.142V10.3359ZM111.628 9.30231C111.176 9.30231 110.82 9.17311 110.465 8.94702C110.142 8.68862 109.948 8.30102 109.948 7.81653C109.948 7.36433 110.11 7.00903 110.433 6.75063C110.756 6.49224 111.143 6.36304 111.628 6.36304C112.112 6.36304 112.5 6.49224 112.823 6.75063C113.146 7.00903 113.307 7.36433 113.307 7.81653C113.307 8.33332 113.146 8.68862 112.791 8.94702C112.468 9.17311 112.08 9.30231 111.628 9.30231Z" fill="#090928"/>
<path d="M100.032 10.3359H101.712V6.84753H104.748V10.3359H108.236V13.146H104.748V15.9884C104.748 16.4729 104.845 16.7959 105.039 16.9897C105.233 17.1512 105.62 17.2158 106.137 17.2158H108.269V20.0258H105.749C105.006 20.0258 104.393 19.9612 103.876 19.8643C103.359 19.7674 102.972 19.6059 102.649 19.3475C102.326 19.1214 102.099 18.7984 101.97 18.4108C101.809 18.0232 101.744 17.5387 101.744 16.9574V13.0814H100.065V10.3359H100.032Z" fill="#090928"/>
<path d="M92.8941 16.7311C92.8941 17.0864 93.0556 17.3125 93.3463 17.4417C93.6693 17.5709 94.0569 17.6355 94.5414 17.6355C94.7675 17.6355 94.9613 17.6032 95.1873 17.5709C95.4134 17.5386 95.6395 17.5063 95.8333 17.4417V15.956C95.6395 15.8914 95.4457 15.8591 95.1873 15.8268C94.9613 15.7945 94.7352 15.7622 94.5414 15.7622C94.0569 15.7622 93.637 15.8268 93.3463 15.956C93.0233 16.1498 92.8941 16.4082 92.8941 16.7311ZM94.3476 9.94824C94.9612 9.94824 95.5426 10.0128 96.0917 10.142C96.6408 10.2712 97.1253 10.4973 97.5452 10.788C97.9651 11.0787 98.2881 11.4986 98.5142 11.9831C98.7403 12.4676 98.8695 13.0813 98.8695 13.8242V19.7027C98.2235 19.8642 97.5129 19.9934 96.7054 20.0903C95.9302 20.1872 95.1873 20.2518 94.4444 20.2518C93.7985 20.2518 93.2171 20.1872 92.6357 20.058C92.0543 19.9611 91.5698 19.7673 91.1499 19.5089C90.73 19.2505 90.3747 18.8952 90.1163 18.4753C89.8579 18.0554 89.761 17.5386 89.761 16.9249C89.761 16.4082 89.8579 15.9237 90.084 15.5361C90.3101 15.1162 90.6008 14.7609 90.9884 14.5025C91.376 14.2118 91.8282 14.018 92.3773 13.8565C92.9264 13.695 93.5078 13.6304 94.1538 13.6304C94.4122 13.6304 94.6705 13.6304 94.9612 13.6627C95.2519 13.6627 95.5749 13.695 95.8979 13.7596V13.6627C95.8979 13.4689 95.8333 13.3397 95.7364 13.2105C95.6395 13.0813 95.5103 12.9844 95.3165 12.9198C95.155 12.8552 94.9613 12.7906 94.7029 12.7583C94.4768 12.726 94.2184 12.6937 93.96 12.6937C93.7339 12.6937 93.4755 12.726 93.2171 12.7583C92.9264 12.7906 92.6357 12.8552 92.345 12.9198C92.0543 12.9844 91.7313 13.049 91.4406 13.1459C91.1499 13.2105 90.8915 13.3074 90.6331 13.4043L91.0853 10.4973C91.4083 10.3681 91.8928 10.2389 92.4742 10.142C92.991 10.0128 93.637 9.94824 94.3476 9.94824Z" fill="#090928"/>
<path d="M84.9482 20.0257V6.39526H87.9844V20.0257H84.9482Z" fill="#090928"/>
<path d="M77.6486 9.94824C78.5207 9.94824 79.2959 10.0774 80.0065 10.3358C80.7171 10.5942 81.2985 10.9495 81.8153 11.4017C82.2998 11.8539 82.6874 12.403 82.9458 13.0167C83.2042 13.6304 83.3334 14.341 83.3334 15.0516C83.3334 15.7945 83.2042 16.4728 82.9135 17.0864C82.6551 17.7001 82.2675 18.2492 81.783 18.7014C81.2985 19.1536 80.7171 19.5089 80.0711 19.7996C79.4251 20.058 78.6822 20.1872 77.907 20.1872C77.7132 20.1872 77.4871 20.1872 77.2287 20.1549C77.0026 20.1549 76.7442 20.1226 76.4535 20.0903V23.6433H73.4174V10.4004C74.0634 10.2066 74.7093 10.0774 75.3876 10.0128C76.1305 10.0128 76.8734 9.94824 77.6486 9.94824ZM80.2003 15.0839C80.2003 14.6963 80.1357 14.341 80.0065 14.0826C79.8773 13.7919 79.7158 13.5658 79.4574 13.4043C79.2313 13.2105 78.9729 13.0813 78.6499 13.0167C78.3592 12.9521 78.0362 12.8875 77.6809 12.8875C77.2933 12.8875 76.9057 12.9521 76.4858 13.049V17.1187C76.8734 17.2156 77.2933 17.2802 77.6809 17.2802C78.0362 17.2802 78.3592 17.2479 78.6499 17.151C78.9729 17.0864 79.2313 16.9572 79.4574 16.7634C79.6835 16.5697 79.8773 16.3759 80.0065 16.0852C80.1357 15.8268 80.2003 15.5038 80.2003 15.0839Z" fill="#090928"/>
<path d="M68.217 14.6318C68.217 13.9858 68.1201 13.5659 67.894 13.3075C67.6679 13.0491 67.3126 12.9199 66.7636 12.9199C66.5698 12.9199 66.3437 12.9522 66.1176 12.9845C65.8592 13.0168 65.6331 13.0814 65.407 13.1783C65.4393 13.2106 65.4393 13.3075 65.4716 13.469C65.5039 13.5982 65.5039 13.7597 65.5362 13.9212C65.5362 14.0827 65.5685 14.2442 65.5685 14.4057C65.5685 14.5672 65.6008 14.6641 65.6008 14.761V20.0258H62.5646V14.6318C62.5646 13.9858 62.4677 13.5659 62.2416 13.3075C62.0155 13.0491 61.6279 12.9199 61.1111 12.9199C60.9173 12.9199 60.7235 12.9199 60.5297 12.9522C60.3359 12.9845 60.1098 13.0168 59.8837 13.0814V20.0258H56.8475V10.4974C57.2351 10.4328 57.6227 10.3682 58.0426 10.3036C58.4625 10.239 58.8178 10.1744 59.2054 10.1421C59.593 10.0775 59.9483 10.0452 60.2713 10.0129C60.5943 9.98061 60.885 9.94831 61.1111 9.94831C61.3372 9.94831 61.5956 9.94831 61.8217 9.98061C62.0801 10.0129 62.3385 10.0452 62.5646 10.1098C62.823 10.1421 63.0491 10.2067 63.2429 10.3036C63.469 10.3682 63.6305 10.4974 63.792 10.5943C64.2765 10.4005 64.7933 10.239 65.3747 10.1098C65.9561 9.98061 66.4406 9.91602 66.8928 9.91602C67.4742 9.91602 68.0555 9.98061 68.5723 10.1098C69.0891 10.2067 69.5736 10.4328 69.9612 10.7235C70.3488 11.0142 70.6718 11.4018 70.9302 11.9186C71.1886 12.4354 71.2855 13.0814 71.2855 13.8566V19.9935H68.2493V14.6318H68.217Z" fill="#090928"/>
<path d="M50.4199 17.3773C51.0013 17.3773 51.5504 17.3127 52.0349 17.1512C52.5517 16.9897 52.9716 16.7959 53.3592 16.5698L54.6835 19.1861C54.1344 19.4768 53.5207 19.7352 52.8424 19.9613C52.1641 20.1874 51.3243 20.2843 50.3553 20.2843C49.5478 20.2843 48.8372 20.1551 48.1589 19.8967C47.5129 19.6383 46.9315 19.2507 46.447 18.7985C45.9625 18.3463 45.5749 17.7972 45.3166 17.1835C45.0582 16.5698 44.929 15.8592 44.929 15.1486C44.929 14.4057 45.0582 13.6951 45.3166 13.0814C45.6072 12.4354 45.9625 11.8863 46.447 11.4664C46.9315 11.0142 47.4806 10.6589 48.0943 10.4005C48.7403 10.1421 49.4186 10.0129 50.1292 10.0129C50.8721 10.0129 51.5827 10.1421 52.1964 10.4328C52.8424 10.7235 53.3915 11.1111 53.8437 11.6279C54.3282 12.1447 54.6835 12.7907 54.9096 13.5336C55.168 14.2765 55.2649 15.1163 55.2003 16.0207H47.9328C48.0943 16.5375 48.385 16.8928 48.8372 17.0866C49.2894 17.2804 49.8062 17.3773 50.4199 17.3773ZM50.0646 12.4031C49.5478 12.4031 49.1279 12.5323 48.7726 12.7907C48.4173 13.0491 48.1589 13.4044 48.0297 13.8243H52.1318C52.0672 13.3075 51.8088 12.9522 51.4212 12.7261C51.0659 12.5323 50.5814 12.4031 50.0646 12.4031Z" fill="#090928"/>
<path d="M38.4044 9.30229H34.0439V6.42761H45.8657V9.30229H41.5052V20.0258H38.4044V9.30229Z" fill="#090928"/>
</g>
<defs>
<filter id="filter0_d_1797_2894" x="3.88451" y="4.44226" width="22.0102" height="22.0309" filterUnits="userSpaceOnUse" color-interpolation-filters="sRGB">
<feFlood flood-opacity="0" result="BackgroundImageFix"/>
<feColorMatrix in="SourceAlpha" type="matrix" values="0 0 0 0 0 0 0 0 0 0 0 0 0 0 0 0 0 0 127 0" result="hardAlpha"/>
<feOffset dy="0.557744"/>
<feGaussianBlur stdDeviation="0.557744"/>
<feComposite in2="hardAlpha" operator="out"/>
<feColorMatrix type="matrix" values="0 0 0 0 0.0627451 0 0 0 0 0.0941176 0 0 0 0 0.156863 0 0 0 0.08 0"/>
<feBlend mode="normal" in2="BackgroundImageFix" result="effect1_dropShadow_1797_2894"/>
<feBlend mode="normal" in="SourceGraphic" in2="effect1_dropShadow_1797_2894" result="shape"/>
</filter>
<linearGradient id="paint0_linear_1797_2894" x1="23.2692" y1="24.6154" x2="2.11538" y2="5" gradientUnits="userSpaceOnUse">
<stop stop-color="#F9D423"/>
<stop offset="1" stop-color="#E14FAD"/>
</linearGradient>
</defs>
</svg>
